<svg xmlns="http://www.w3.org/2000/svg" xmlns:xlink="http://www.w3.org/1999/xlink" width="376" height="207" viewBox="0 0 376 207"><defs><clipPath id="a"><rect width="376" height="207" transform="translate(0 460)" fill="#fff" stroke="#707070" stroke-width="1"/></clipPath></defs><g transform="translate(0 -460)" clip-path="url(#a)"><g transform="translate(-1426.666 6.691)"><path d="M342.435,81.419c.01-.167.016-.335.016-.5a8.4,8.4,0,0,0-10.915-8c0-.029,0-.058,0-.088a10.385,10.385,0,0,0-20.223-3.328,8.037,8.037,0,0,0-12.027,8.392,8.04,8.04,0,0,0,1.164,15.995h39.941a6.4,6.4,0,0,0,2.042-12.461Z" transform="translate(1334.261 432.212)" fill="#eff8ff"/><path d="M319.409,72.681c.005-.09.009-.181.009-.272a4.531,4.531,0,0,0-5.891-4.32c0-.016,0-.032,0-.047a5.6,5.6,0,0,0-10.914-1.8,4.338,4.338,0,0,0-6.491,4.529,4.339,4.339,0,0,0,.628,8.632h21.556a3.453,3.453,0,0,0,1.1-6.725Z" transform="translate(1460.89 409.759)" fill="#eff8ff"/><path d="M319.409,72.681c.005-.09.009-.181.009-.272a4.531,4.531,0,0,0-5.891-4.32c0-.016,0-.032,0-.047a5.6,5.6,0,0,0-10.914-1.8,4.338,4.338,0,0,0-6.491,4.529,4.339,4.339,0,0,0,.628,8.632h21.556a3.453,3.453,0,0,0,1.1-6.725Z" transform="translate(1200.89 467.759)" fill="#eff8ff"/><path d="M319.409,72.681c.005-.09.009-.181.009-.272a4.531,4.531,0,0,0-5.891-4.32c0-.016,0-.032,0-.047a5.6,5.6,0,0,0-10.914-1.8,4.338,4.338,0,0,0-6.491,4.529,4.339,4.339,0,0,0,.628,8.632h21.556a3.453,3.453,0,0,0,1.1-6.725Z" transform="translate(1535.89 423.759)" fill="#eff8ff"/><path d="M58.249,253.832a4.347,4.347,0,0,0-.494.03,6.332,6.332,0,0,0-7.364-4.948,9.539,9.539,0,0,0-17.7.877,5.611,5.611,0,0,0-7.288,5.351c0,.041,0,.082,0,.123a3.61,3.61,0,1,0-.659,7.159h33.5a4.3,4.3,0,1,0,0-8.593Z" transform="translate(1605.534 316.799)" fill="#eff8ff"/><g transform="translate(1996.268 335.802)"><g transform="translate(-570)"><g transform="translate(0.398 107.085)"><path d="M581.1,198.7v-4.044H569.677v-15.7H563.6v-1.844h-8.444v1.844h-8.626v17.3h-4.557V183.479h-1.731v-5.856h-2.871V174.68h-13.03v2.944h-2.87v5.856H518.65v-8.086h-1.641V127.769h-2.687v-1.962h-3.386L507.6,96.99a.859.859,0,0,0-1.705.013l-2.858,28.8h-3.386v1.962h-2.689v47.625h-1.64v25.685H483.294v12.664h-7.9V164.216h-9.924v-2.11h-5.628v-6.734h-1.094v6.734h-2.643V158h-1.094v4.1h-8.269v2.11h-9.924v31.065H425.34V179.793H412.462v4.46h-3.584v3.309h-6.985V182.3h-1.328v-1.944h-1.1v-2.109H389.135v2.108h-1.1V182.3h-1.33v14.616h-3.582v-17.6H370.184v-1.962H359.706v1.962H346.858V189.9h-2.369v-4.457H334.465V189.9h-9.476v18.312H311.138V168.259H305v-6.422H265.638v42.1h-4.253V182.3h-1.328v-1.945h-1.1v-2.108H248.628v2.108h-1.1V182.3H246.2v5.262h-6.985v-3.309h-3.584v-4.46H222.75v15.488H211.268V164.216h-9.924v-2.11h-8.269V158h-1.094v4.1h-2.642v-6.734h-1.094v6.734h-5.628v2.11h-9.924v49.527h-7.9V201.079H152.768V175.394h-1.64V127.769H148.44v-1.962h-3.386L142.185,96.9a.847.847,0,0,0-1.682-.014l-3.346,28.924h-3.388v1.962h-2.687v47.625h-1.641v8.086h-2.825v-5.856h-2.87V174.68h-13.03v2.944h-2.871v5.856h-1.731v12.783h-4.557v-17.3H92.932v-1.844H84.488v1.844H78.413v15.7H66.992V198.7H62.163V181.808H57.334V136.152H50.606v-5.262H23v5.262H16.268v99.511H586.2V198.7Z" transform="translate(-16.268 -18.241)" fill="#f1f6ff"/><g transform="translate(164.354 148.189)"><rect width="6.474" height="10.656" transform="translate(0 0)" fill="#fff"/><rect width="6.474" height="10.656" transform="translate(92 0)" fill="#fff"/></g><g transform="translate(173.278 148.189)"><rect width="6.474" height="10.656" transform="translate(0 0)" fill="#fff"/></g><g transform="translate(265.278 148.189)"><rect width="6.474" height="10.656" transform="translate(0 0)" fill="#fff"/></g><g transform="translate(182.228 148.189)"><rect width="6.474" height="10.656" transform="translate(0 0)" fill="#fff"/></g><g transform="translate(274.228 148.189)"><rect width="6.474" height="10.656" transform="translate(0 0)" fill="#fff"/></g><g transform="translate(164.354 161.229)"><rect width="6.474" height="10.656" transform="translate(0 0)" fill="#fff"/></g><g transform="translate(256.354 161.229)"><rect width="6.474" height="10.656" transform="translate(0 0)" fill="#fff"/></g><g transform="translate(173.278 161.229)"><rect width="6.474" height="10.656" transform="translate(0 0)" fill="#fff"/></g><g transform="translate(265.278 161.229)"><rect width="6.474" height="10.656" transform="translate(0 0)" fill="#fff"/></g><g transform="translate(182.228 161.229)"><rect width="6.474" height="10.656" transform="translate(0 0)" fill="#fff"/></g><g transform="translate(274.228 161.229)"><rect width="6.474" height="10.656" transform="translate(0 0)" fill="#fff"/></g><g transform="translate(164.354 174.497)"><rect width="6.474" height="10.656" transform="translate(0 0)" fill="#fff"/></g><g transform="translate(256.354 174.497)"><rect width="6.474" height="10.656" transform="translate(0 0)" fill="#fff"/></g><g transform="translate(173.278 174.497)"><rect width="6.474" height="10.656" transform="translate(0 0)" fill="#fff"/></g><g transform="translate(265.278 174.497)"><rect width="6.474" height="10.656" transform="translate(0 0)" fill="#fff"/></g><g transform="translate(182.228 174.497)"><rect width="6.474" height="10.656" transform="translate(0 0)" fill="#fff"/></g><g transform="translate(274.228 174.497)"><rect width="6.474" height="10.656" transform="translate(0 0)" fill="#fff"/></g><g transform="translate(210.933 164.272)"><rect width="4.615" height="10.656" transform="translate(0 0)" fill="#fff"/></g><g transform="translate(210.933 176.88)"><rect width="4.615" height="10.656" transform="translate(0 0)" fill="#fff"/></g><g transform="translate(222.806 172.609)"><rect width="7.098" height="4.62" transform="translate(0 0)" fill="#fff"/></g><g transform="translate(222.806 179.45)"><rect width="7.098" height="4.62" transform="translate(0 0)" fill="#fff"/></g><g transform="translate(222.806 186.182)"><rect width="7.098" height="4.62" transform="translate(0 0)" fill="#fff"/></g><g transform="translate(222.806 193.023)"><rect width="7.098" height="4.62" transform="translate(0 0)" fill="#fff"/></g><g transform="translate(210.933 190.313)"><rect width="4.615" height="4.44" transform="translate(0 0)" fill="#fff"/></g><g transform="translate(194.964 178.393)"><rect width="4.645" height="6.732" transform="translate(0 0)" fill="#fff"/></g><g transform="translate(201.845 178.393)"><rect width="4.645" height="6.732" transform="translate(0 0)" fill="#fff"/></g><g transform="translate(194.964 186.947)"><rect width="4.645" height="6.732" transform="translate(0 0)" fill="#fff"/></g><g transform="translate(201.845 186.947)"><rect width="4.645" height="6.732" transform="translate(0 0)" fill="#fff"/></g><g transform="translate(164.354 187.536)"><rect width="6.474" height="10.656" transform="translate(0 0)" fill="#fff"/></g><g transform="translate(173.278 187.536)"><rect width="6.474" height="10.656" transform="translate(0 0)" fill="#fff"/></g><g transform="translate(182.228 187.536)"><rect width="6.474" height="10.656" transform="translate(0 0)" fill="#fff"/></g><g transform="translate(64.97 164.044)"><rect width="3.899" height="6.952" transform="translate(0 0)" fill="#fff"/></g><g transform="translate(71.5 164.044)"><rect width="3.899" height="6.952" transform="translate(0 0)" fill="#fff"/></g><g transform="translate(78.305 164.044)"><rect width="3.899" height="6.952" transform="translate(0 0)" fill="#fff"/></g><g transform="translate(64.97 173.952)"><rect width="3.899" height="6.952" transform="translate(0 0)" fill="#fff"/></g><g transform="translate(71.5 173.952)"><rect width="3.899" height="6.952" transform="translate(0 0)" fill="#fff"/></g><g transform="translate(78.305 173.952)"><rect width="3.899" height="6.952" transform="translate(0 0)" fill="#fff"/></g><g transform="translate(64.97 183.243)"><rect width="3.899" height="6.952" transform="translate(0 0)" fill="#fff"/></g><g transform="translate(71.5 183.243)"><rect width="3.899" height="6.952" transform="translate(0 0)" fill="#fff"/></g><g transform="translate(78.305 183.243)"><rect width="3.899" height="6.952" transform="translate(0 0)" fill="#fff"/></g><g transform="translate(12.831 123.378)"><rect width="6.454" height="11.508" transform="translate(0 0)" fill="#fff"/></g><g transform="translate(23.641 123.378)"><rect width="6.454" height="11.508" transform="translate(0 0)" fill="#fff"/></g><g transform="translate(12.831 138.052)"><rect width="6.454" height="11.508" transform="translate(0 0)" fill="#fff"/></g><g transform="translate(23.641 138.052)"><rect width="6.454" height="11.508" transform="translate(0 0)" fill="#fff"/></g><g transform="translate(12.831 152.846)"><rect width="6.454" height="11.508" transform="translate(0 0)" fill="#fff"/></g><g transform="translate(23.641 152.846)"><rect width="6.454" height="11.508" transform="translate(0 0)" fill="#fff"/></g><g transform="translate(12.831 167.52)"><rect width="6.454" height="11.508" transform="translate(0 0)" fill="#fff"/></g><g transform="translate(23.641 167.52)"><rect width="6.454" height="11.508" transform="translate(0 0)" fill="#fff"/></g><g transform="translate(12.831 182.122)"><rect width="6.454" height="11.508" transform="translate(0 0)" fill="#fff"/></g><g transform="translate(23.641 182.122)"><rect width="6.454" height="11.508" transform="translate(0 0)" fill="#fff"/></g><g transform="translate(96.078 161.541)"><rect width="3.899" height="6.952" transform="translate(0 0)" fill="#fff"/></g><g transform="translate(102.609 161.541)"><rect width="3.899" height="6.952" transform="translate(0 0)" fill="#fff"/></g><g transform="translate(96.078 170.828)"><rect width="3.899" height="6.952" transform="translate(0 0)" fill="#fff"/></g><g transform="translate(102.609 170.828)"><rect width="3.899" height="6.952" transform="translate(0 0)" fill="#fff"/></g><g transform="translate(96.078 179.788)"><rect width="3.899" height="6.952" transform="translate(0 0)" fill="#fff"/></g><g transform="translate(102.609 179.788)"><rect width="3.899" height="6.952" transform="translate(0 0)" fill="#fff"/></g><g transform="translate(96.078 189.075)"><rect width="3.899" height="6.952" transform="translate(0 0)" fill="#fff"/></g><g transform="translate(102.609 189.075)"><rect width="3.899" height="6.952" transform="translate(0 0)" fill="#fff"/></g><g transform="translate(120.21 112.411)"><rect width="4.201" height="7.538" transform="translate(0 0)" fill="#fff"/></g><g transform="translate(125.961 112.411)"><rect width="4.201" height="7.538" transform="translate(0 0)" fill="#fff"/></g><g transform="translate(120.21 121.784)"><rect width="4.201" height="7.538" transform="translate(0 0)" fill="#fff"/></g><g transform="translate(125.961 121.784)"><rect width="4.201" height="7.538" transform="translate(0 0)" fill="#fff"/></g><g transform="translate(120.21 130.995)"><rect width="4.201" height="7.538" transform="translate(0 0)" fill="#fff"/></g><g transform="translate(125.961 130.995)"><rect width="4.201" height="7.538" transform="translate(0 0)" fill="#fff"/></g><g transform="translate(120.21 140.367)"><rect width="4.201" height="7.538" transform="translate(0 0)" fill="#fff"/></g><g transform="translate(125.961 140.367)"><rect width="4.201" height="7.538" transform="translate(0 0)" fill="#fff"/></g><g transform="translate(120.21 149.472)"><rect width="4.201" height="7.538" transform="translate(0 0)" fill="#fff"/></g><g transform="translate(125.961 149.472)"><rect width="4.201" height="7.538" transform="translate(0 0)" fill="#fff"/></g><g transform="translate(120.21 158.845)"><rect width="4.201" height="7.538" transform="translate(0 0)" fill="#fff"/></g><g transform="translate(125.961 158.845)"><rect width="4.201" height="7.538" transform="translate(0 0)" fill="#fff"/></g><g transform="translate(120.21 168.056)"><rect width="4.201" height="7.538" transform="translate(0 0)" fill="#fff"/></g><g transform="translate(125.961 168.056)"><rect width="4.201" height="7.538" transform="translate(0 0)" fill="#fff"/></g><g transform="translate(120.21 177.428)"><rect width="4.201" height="7.538" transform="translate(0 0)" fill="#fff"/></g><g transform="translate(125.961 177.428)"><rect width="4.201" height="7.538" transform="translate(0 0)" fill="#fff"/></g><g transform="translate(120.21 187.541)"><rect width="4.201" height="7.538" transform="translate(0 0)" fill="#fff"/></g><g transform="translate(125.961 187.541)"><rect width="4.201" height="7.538" transform="translate(0 0)" fill="#fff"/></g><g transform="translate(515.922 161.541)"><rect width="3.899" height="6.952" transform="translate(0 0)" fill="#fff"/></g><g transform="translate(509.392 161.541)"><rect width="3.899" height="6.952" transform="translate(0 0)" fill="#fff"/></g><g transform="translate(515.922 170.828)"><rect width="3.899" height="6.952" transform="translate(0 0)" fill="#fff"/></g><g transform="translate(509.392 170.828)"><rect width="3.899" height="6.952" transform="translate(0 0)" fill="#fff"/></g><g transform="translate(515.922 179.788)"><rect width="3.899" height="6.952" transform="translate(0 0)" fill="#fff"/></g><g transform="translate(509.392 179.788)"><rect width="3.899" height="6.952" transform="translate(0 0)" fill="#fff"/></g><g transform="translate(515.922 189.075)"><rect width="3.899" height="6.952" transform="translate(0 0)" fill="#fff"/></g><g transform="translate(509.392 189.075)"><rect width="3.899" height="6.952" transform="translate(0 0)" fill="#fff"/></g><g transform="translate(491.489 112.411)"><rect width="4.201" height="7.538" transform="translate(0 0)" fill="#fff"/></g><g transform="translate(485.738 112.411)"><rect width="4.201" height="7.538" transform="translate(0 0)" fill="#fff"/></g><g transform="translate(491.489 121.784)"><rect width="4.201" height="7.538" transform="translate(0 0)" fill="#fff"/></g><g transform="translate(485.738 121.784)"><rect width="4.201" height="7.538" transform="translate(0 0)" fill="#fff"/></g><g transform="translate(491.489 130.994)"><rect width="4.201" height="7.538" transform="translate(0 0)" fill="#fff"/></g><g transform="translate(485.738 130.994)"><rect width="4.201" height="7.538" transform="translate(0 0)" fill="#fff"/></g><g transform="translate(491.489 140.367)"><rect width="4.201" height="7.538" transform="translate(0 0)" fill="#fff"/></g><g transform="translate(485.738 140.367)"><rect width="4.201" height="7.538" transform="translate(0 0)" fill="#fff"/></g><g transform="translate(491.489 149.472)"><rect width="4.201" height="7.538" transform="translate(0 0)" fill="#fff"/></g><g transform="translate(485.738 149.472)"><rect width="4.201" height="7.538" transform="translate(0 0)" fill="#fff"/></g><g transform="translate(491.489 158.845)"><rect width="4.201" height="7.538" transform="translate(0 0)" fill="#fff"/></g><g transform="translate(485.738 158.845)"><rect width="4.201" height="7.538" transform="translate(0 0)" fill="#fff"/></g><g transform="translate(491.489 168.056)"><rect width="4.201" height="7.538" transform="translate(0 0)" fill="#fff"/></g><g transform="translate(485.738 168.056)"><rect width="4.201" height="7.538" transform="translate(0 0)" fill="#fff"/></g><g transform="translate(491.489 177.428)"><rect width="4.201" height="7.538" transform="translate(0 0)" fill="#fff"/></g><g transform="translate(485.738 177.428)"><rect width="4.201" height="7.538" transform="translate(0 0)" fill="#fff"/></g><g transform="translate(491.489 187.541)"><rect width="4.201" height="7.538" transform="translate(0 0)" fill="#fff"/></g><g transform="translate(485.738 187.541)"><rect width="4.201" height="7.538" transform="translate(0 0)" fill="#fff"/></g><g transform="translate(315.097 174.87)"><rect width="6.474" height="10.656" transform="translate(0 0)" fill="#fff"/></g><g transform="translate(324.021 174.87)"><rect width="6.474" height="10.656" transform="translate(0 0)" fill="#fff"/></g><g transform="translate(333.628 163.736)"><rect width="5.831" height="7.542" transform="translate(0 0)" fill="#fff"/></g><g transform="translate(341.975 163.736)"><rect width="5.831" height="7.542" transform="translate(0 0)" fill="#fff"/></g><g transform="translate(350.142 163.736)"><rect width="5.831" height="7.542" transform="translate(0 0)" fill="#fff"/></g><g transform="translate(358.489 163.736)"><rect width="5.831" height="7.542" transform="translate(0 0)" fill="#fff"/></g><g transform="translate(333.628 174.437)"><rect width="5.831" height="7.542" transform="translate(0 0)" fill="#fff"/></g><g transform="translate(341.975 174.437)"><rect width="5.831" height="7.542" transform="translate(0 0)" fill="#fff"/></g><g transform="translate(350.142 174.437)"><rect width="5.831" height="7.542" transform="translate(0 0)" fill="#fff"/></g><g transform="translate(358.489 174.437)"><rect width="5.831" height="7.542" transform="translate(0 0)" fill="#fff"/></g><g transform="translate(372.161 165.53)"><rect width="2.915" height="7.542" transform="translate(0 0)" fill="#fff"/></g><g transform="translate(376.478 165.53)"><rect width="2.915" height="7.542" transform="translate(0 0)" fill="#fff"/></g><g transform="translate(380.957 165.53)"><rect width="2.915" height="7.542" transform="translate(0 0)" fill="#fff"/></g><g transform="translate(399.181 162.632)"><rect width="2.915" height="7.542" transform="translate(0 0)" fill="#fff"/></g><g transform="translate(403.57 162.632)"><rect width="2.915" height="7.542" transform="translate(0 0)" fill="#fff"/></g><g transform="translate(399.181 171.972)"><rect width="2.915" height="7.542" transform="translate(0 0)" fill="#fff"/></g><g transform="translate(403.57 171.972)"><rect width="2.915" height="7.542" transform="translate(0 0)" fill="#fff"/></g><g transform="translate(399.181 181.184)"><rect width="2.915" height="7.542" transform="translate(0 0)" fill="#fff"/></g><g transform="translate(403.57 181.184)"><rect width="2.915" height="7.542" transform="translate(0 0)" fill="#fff"/></g><g transform="translate(399.181 191.098)"><rect width="2.915" height="5.487" transform="translate(0 0)" fill="#fff"/></g><g transform="translate(403.57 191.098)"><rect width="2.915" height="5.487" transform="translate(0 0)" fill="#fff"/></g><g transform="translate(372.161 174.649)"><rect width="2.915" height="7.542" transform="translate(0 0)" fill="#fff"/></g><g transform="translate(376.478 174.649)"><rect width="2.915" height="7.542" transform="translate(0 0)" fill="#fff"/></g><g transform="translate(380.957 174.649)"><rect width="2.915" height="7.542" transform="translate(0 0)" fill="#fff"/></g><g transform="translate(372.161 184.24)"><rect width="2.915" height="7.542" transform="translate(0 0)" fill="#fff"/></g><g transform="translate(376.478 184.24)"><rect width="2.915" height="7.542" transform="translate(0 0)" fill="#fff"/></g><g transform="translate(380.957 184.24)"><rect width="2.915" height="7.542" transform="translate(0 0)" fill="#fff"/></g><g transform="translate(372.161 194.137)"><rect width="2.915" height="3.532" transform="translate(0 0)" fill="#fff"/></g><g transform="translate(376.478 194.137)"><rect width="2.915" height="3.532" transform="translate(0 0)" fill="#fff"/></g><g transform="translate(380.957 194.137)"><rect width="2.915" height="3.532" transform="translate(0 0)" fill="#fff"/></g><g transform="translate(333.628 185.093)"><rect width="5.831" height="7.542" transform="translate(0 0)" fill="#fff"/></g><g transform="translate(341.975 185.093)"><rect width="5.831" height="7.542" transform="translate(0 0)" fill="#fff"/></g><g transform="translate(350.142 185.093)"><rect width="5.831" height="7.542" transform="translate(0 0)" fill="#fff"/></g><g transform="translate(358.489 185.093)"><rect width="5.831" height="7.542" transform="translate(0 0)" fill="#fff"/></g><g transform="translate(315.097 188.011)"><rect width="6.474" height="8.207" transform="translate(0 0)" fill="#fff"/></g><g transform="translate(324.021 188.011)"><rect width="6.474" height="8.207" transform="translate(0 0)" fill="#fff"/></g><g transform="translate(290.239 152.408)"><rect width="2.923" height="10.656" transform="translate(0 0)" fill="#fff"/></g><g transform="translate(290.239 164.921)"><rect width="2.923" height="10.656" transform="translate(0 0)" fill="#fff"/></g><g transform="translate(290.239 178.208)"><rect width="2.923" height="10.656" transform="translate(0 0)" fill="#fff"/></g><g transform="translate(290.239 191.913)"><rect width="2.923" height="5.328" transform="translate(0 0)" fill="#fff"/></g><g transform="translate(427.927 148.719)"><rect width="6.474" height="10.656" transform="translate(0 0)" fill="#fff"/></g><g transform="translate(436.851 148.719)"><rect width="6.474" height="10.656" transform="translate(0 0)" fill="#fff"/></g><g transform="translate(445.801 148.719)"><rect width="6.474" height="10.656" transform="translate(0 0)" fill="#fff"/></g><g transform="translate(427.927 163.064)"><rect width="6.474" height="10.656" transform="translate(0 0)" fill="#fff"/></g><g transform="translate(436.851 163.064)"><rect width="6.474" height="10.656" transform="translate(0 0)" fill="#fff"/></g><g transform="translate(445.801 163.064)"><rect width="6.474" height="10.656" transform="translate(0 0)" fill="#fff"/></g><g transform="translate(427.927 177.568)"><rect width="6.474" height="10.656" transform="translate(0 0)" fill="#fff"/></g><g transform="translate(436.851 177.568)"><rect width="6.474" height="10.656" transform="translate(0 0)" fill="#fff"/></g><g transform="translate(445.801 177.568)"><rect width="6.474" height="10.656" transform="translate(0 0)" fill="#fff"/></g><g transform="translate(427.927 190.323)"><rect width="6.474" height="4.722" transform="translate(0 0)" fill="#fff"/></g><g transform="translate(436.851 190.323)"><rect width="6.474" height="4.722" transform="translate(0 0)" fill="#fff"/></g><g transform="translate(445.801 190.323)"><rect width="6.474" height="4.722" transform="translate(0 0)" fill="#fff"/></g></g></g></g></g></g></svg>