<svg width="310" height="30" viewBox="0 0 310 30" fill="none" xmlns="http://www.w3.org/2000/svg">
<g clip-path="url(#clip0)">
<path d="M212.295 14.4708C212.663 13.7965 213.214 13.2391 213.883 12.8622C214.556 12.4695 215.322 12.2661 216.101 12.2734C216.989 12.2523 217.863 12.4937 218.614 12.9673C219.337 13.4392 219.886 14.1328 220.181 14.944H218.804C218.588 14.4358 218.22 14.0063 217.752 13.7138C217.253 13.4181 216.681 13.2687 216.101 13.2827C215.523 13.2768 214.953 13.4256 214.451 13.7138C213.96 14.0028 213.563 14.426 213.305 14.9334C213.017 15.5073 212.873 16.1422 212.884 16.7839C212.874 17.4188 213.018 18.0467 213.305 18.6133C213.563 19.1208 213.96 19.544 214.451 19.833C214.953 20.1212 215.523 20.27 216.101 20.2641C216.68 20.2818 217.252 20.1361 217.752 19.8435C218.218 19.5522 218.584 19.1271 218.804 18.6239H220.181C219.886 19.4264 219.336 20.1098 218.614 20.569C217.863 21.0426 216.989 21.284 216.101 21.2629C215.323 21.2739 214.557 21.0741 213.883 20.6846C213.216 20.3088 212.667 19.7556 212.295 19.0865C211.916 18.3763 211.718 17.5837 211.718 16.7787C211.718 15.9736 211.916 15.181 212.295 14.4708Z" fill="#4F4B66"/>
<path d="M223.639 20.6948C222.971 20.3179 222.418 19.7653 222.041 19.0967C221.655 18.387 221.452 17.5917 221.452 16.7836C221.452 15.9755 221.655 15.1802 222.041 14.4705C222.417 13.7981 222.969 13.2417 223.639 12.8619C224.327 12.4892 225.097 12.294 225.879 12.294C226.661 12.294 227.431 12.4892 228.118 12.8619C228.783 13.2403 229.332 13.7929 229.706 14.46C230.085 15.1758 230.283 15.9735 230.283 16.7836C230.283 17.5937 230.085 18.3914 229.706 19.1072C229.33 19.7705 228.782 20.3193 228.118 20.6948C227.433 21.0741 226.662 21.273 225.879 21.273C225.095 21.273 224.325 21.0741 223.639 20.6948ZM227.529 19.8432C228.025 19.5577 228.427 19.1339 228.686 18.6236C228.967 18.0489 229.112 17.4178 229.112 16.7783C229.112 16.1389 228.967 15.5078 228.686 14.9331C228.428 14.4257 228.03 14.0025 227.54 13.7135C227.031 13.4241 226.454 13.2753 225.868 13.2824C225.286 13.2736 224.712 13.4225 224.207 13.7135C223.713 14.0018 223.312 14.4249 223.05 14.9331C222.774 15.5089 222.63 16.1395 222.63 16.7783C222.63 17.4172 222.774 18.0478 223.05 18.6236C223.316 19.1294 223.716 19.5517 224.207 19.8432C224.715 20.1258 225.287 20.2742 225.868 20.2742C226.45 20.2742 227.021 20.1258 227.529 19.8432Z" fill="#4F4B66"/>
<path d="M240.725 12.4524V21.1895H239.569V14.6708L236.667 21.1895H235.899L232.976 14.6603V21.1895H231.799V12.4524H233.04L236.267 19.6755L239.495 12.4524H240.725Z" fill="#4F4B66"/>
<path d="M247.79 16.784C247.152 17.3189 246.328 17.5797 245.498 17.5095H243.816V21.1894H242.659V12.3891H245.498C246.321 12.3245 247.136 12.585 247.769 13.1146C248.012 13.3543 248.205 13.6399 248.337 13.9549C248.469 14.2698 248.537 14.6079 248.537 14.9493C248.537 15.2907 248.469 15.6287 248.337 15.9437C248.205 16.2587 248.012 16.5443 247.769 16.784H247.79ZM246.917 16.1531C247.073 15.9989 247.194 15.813 247.272 15.6081C247.35 15.4032 247.383 15.1839 247.369 14.9651C247.369 13.9137 246.749 13.3354 245.498 13.3354H243.816V16.5632H245.498C246.005 16.6027 246.509 16.457 246.917 16.1531Z" fill="#4F4B66"/>
<path d="M251.112 20.2533H254.193V21.1891H249.987V12.3889H251.133L251.112 20.2533Z" fill="#4F4B66"/>
<path d="M256.569 13.3248V16.3213H259.776V17.2675H256.569V20.2956H260.154V21.2418H255.423V12.4311H260.154V13.3774L256.569 13.3248Z" fill="#4F4B66"/>
<path d="M267.304 12.3889V13.3246H264.907V21.1891H263.761V13.3246H261.354V12.3889H267.304Z" fill="#4F4B66"/>
<path d="M269.87 13.3248V16.3213H273.025V17.2675H269.87V20.2956H273.445V21.2418H268.714V12.4311H273.445V13.3774L269.87 13.3248Z" fill="#4F4B66"/>
<path d="M278.712 14.4706C279.079 13.799 279.625 13.2422 280.289 12.862C280.967 12.4704 281.736 12.2671 282.518 12.2732C283.406 12.2534 284.28 12.4947 285.031 12.9671C285.754 13.439 286.303 14.1326 286.598 14.9438H285.22C285.001 14.4377 284.635 14.0091 284.169 13.7136C283.67 13.4179 283.098 13.2685 282.518 13.2825C281.939 13.2751 281.369 13.424 280.868 13.7136C280.377 14.0026 279.98 14.4258 279.722 14.9332C279.429 15.5053 279.285 16.1415 279.301 16.7837C279.286 17.4192 279.43 18.0483 279.722 18.6131C279.98 19.1206 280.377 19.5438 280.868 19.8328C281.369 20.1224 281.939 20.2713 282.518 20.2639C283.097 20.2816 283.669 20.1358 284.169 19.8433C284.632 19.5491 284.998 19.1248 285.22 18.6237H286.598C286.303 19.4262 285.752 20.1096 285.031 20.5688C284.28 21.0412 283.406 21.2825 282.518 21.2627C281.737 21.2725 280.967 21.0728 280.289 20.6844C279.629 20.3045 279.083 19.7521 278.712 19.0863C278.333 18.3761 278.135 17.5835 278.135 16.7785C278.135 15.9734 278.333 15.1808 278.712 14.4706Z" fill="#4F4B66"/>
<path d="M293.494 19.2335H289.657L288.952 21.1891H287.743L290.897 12.4414H292.222L295.376 21.1891H294.157L293.494 19.2335ZM293.168 18.2978L291.623 13.8503L290.035 18.2978H293.168Z" fill="#4F4B66"/>
<path d="M301.433 21.1892L299.331 17.5934H297.932V21.1892H296.786V12.389H299.625C300.205 12.3719 300.781 12.4907 301.307 12.736C301.741 12.9289 302.107 13.2475 302.359 13.6507C302.585 14.055 302.701 14.512 302.695 14.9754C302.704 15.5552 302.519 16.1212 302.169 16.5841C301.779 17.0727 301.22 17.3986 300.603 17.4988L302.811 21.1892H301.433ZM297.953 16.6682H299.646C300.155 16.7044 300.657 16.5382 301.044 16.2056C301.201 16.0428 301.323 15.8497 301.402 15.6382C301.482 15.4267 301.518 15.2012 301.507 14.9754C301.522 14.7524 301.488 14.5289 301.408 14.3201C301.328 14.1114 301.204 13.9224 301.044 13.7663C300.65 13.45 300.15 13.2959 299.646 13.3353H297.932L297.953 16.6682Z" fill="#4F4B66"/>
<path d="M305.617 13.3248V16.3213H308.824V17.2675H305.617V20.2956H309.202V21.2418H304.471V12.4311H309.202V13.3774L305.617 13.3248Z" fill="#4F4B66"/>
</g>
<path d="M12.5932 28.8791C7.85666 25.7397 8.1735 16.9881 13.2934 9.32547C18.4134 1.66285 26.4061 -2.00246 31.132 1.13165C35.8579 4.26575 35.5517 13.0253 30.4291 20.6879C25.3065 28.3505 17.3191 32.0132 12.5905 28.8791" fill="url(#paint0_linear)"/>
<path d="M20.5002 28.709C24.3874 25.6439 23.4849 18.0663 18.4874 11.7822C13.4899 5.49802 6.29327 2.88716 2.41138 5.93892C-1.47051 8.99069 -0.570604 16.5789 4.42686 22.8657C9.42432 29.1525 16.621 31.7607 20.5002 28.709Z" fill="url(#paint1_linear)"/>
<path d="M125.008 27.6386H37.9932V29.9892H125.008V27.6386Z" fill="#F7941D"/>
<path d="M57.151 6.92154C52.0923 6.92154 48.0986 10.8392 48.0986 15.8378C48.0986 20.6903 51.8501 24.6398 56.4561 24.6398C58.027 24.6398 58.9935 24.3238 60.3061 23.3756L61.435 22.5788V24.1724H66.0517V16.2043C66.0517 10.8312 62.3029 6.92685 57.1457 6.92685L57.151 6.92154ZM57.0818 20.0184C56.2393 20.0184 55.4156 19.7691 54.7151 19.3022C54.0146 18.8352 53.4685 18.1715 53.1461 17.395C52.8237 16.6185 52.7394 15.764 52.9037 14.9397C53.0681 14.1153 53.4738 13.3581 54.0696 12.7638C54.6653 12.1695 55.4244 11.7647 56.2507 11.6008C57.0771 11.4368 57.9336 11.521 58.712 11.8426C59.4904 12.1642 60.1557 12.7089 60.6238 13.4078C61.0919 14.1066 61.3418 14.9282 61.3418 15.7687C61.3418 16.8958 60.893 17.9767 60.0941 18.7737C59.2952 19.5706 58.2116 20.0184 57.0818 20.0184Z" fill="#F7941D"/>
<path d="M77.8955 6.92159C76.5355 6.92137 75.2066 7.32748 74.0801 8.08758L72.9166 8.8047V0H68.3398V15.2535C68.3398 20.6904 72.0859 24.6399 77.2431 24.6399C82.3018 24.6399 86.2956 20.7116 86.2956 15.6918C86.2956 10.9375 82.4456 6.9269 77.9034 6.9269L77.8955 6.92159ZM77.3177 20.0184C76.4752 20.0184 75.6515 19.7692 74.951 19.3022C74.2504 18.8353 73.7044 18.1716 73.382 17.3951C73.0596 16.6185 72.9752 15.7641 73.1396 14.9397C73.304 14.1154 73.7097 13.3582 74.3054 12.7638C74.9012 12.1695 75.6603 11.7648 76.4866 11.6008C77.313 11.4368 78.1695 11.521 78.9479 11.8426C79.7263 12.1643 80.3916 12.709 80.8597 13.4078C81.3278 14.1067 81.5777 14.9283 81.5777 15.7688C81.5777 16.8959 81.1288 17.9768 80.3299 18.7737C79.531 19.5707 78.4475 20.0184 77.3177 20.0184Z" fill="#F7941D"/>
<path d="M97.7571 6.92159C96.4003 6.9199 95.0744 7.32623 93.9525 8.08758L92.7836 8.8047V0H88.2148V15.2535C88.2148 20.6904 91.9423 24.6399 97.1075 24.6399C102.166 24.6399 106.16 20.7116 106.16 15.6918C106.16 10.9375 102.326 6.9269 97.7678 6.9269L97.7571 6.92159ZM97.19 20.0184C96.3475 20.0184 95.5239 19.7692 94.8233 19.3022C94.1228 18.8353 93.5768 18.1716 93.2543 17.3951C92.9319 16.6185 92.8475 15.7641 93.0119 14.9397C93.1763 14.1154 93.582 13.3582 94.1778 12.7638C94.7735 12.1695 95.5326 11.7648 96.359 11.6008C97.1853 11.4368 98.0418 11.521 98.8202 11.8426C99.5986 12.1643 100.264 12.709 100.732 13.4078C101.2 14.1067 101.45 14.9283 101.45 15.7688C101.45 16.8959 101.001 17.9768 100.202 18.7737C99.4034 19.5707 98.3198 20.0184 97.19 20.0184Z" fill="#F7941D"/>
<path d="M113.101 7.39166H108.375V24.1644H113.101V7.39166Z" fill="#F7941D"/>
<path d="M125.034 11.4554V7.47141H120.412V0.00799561H115.838V17.6201C115.838 20.4487 116.37 21.8484 117.88 22.9879C119.19 23.9308 120.276 24.1725 123.104 24.1725H125.034V20.1513H123.612C121.128 20.1513 120.417 19.4713 120.417 17.142V11.4554H125.034Z" fill="#F7941D"/>
<path d="M46.8746 6.92154C41.7147 6.92154 37.9766 10.8259 37.9766 16.199V24.1671H42.588V16.7302C42.588 13.4155 44.2014 11.4474 46.9065 11.4474C46.9579 11.4445 47.0095 11.4445 47.0609 11.4474L47.194 11.4633V6.93482H47.0662C46.9989 6.92992 46.9313 6.92992 46.8639 6.93482" fill="#F7941D"/>
<path d="M145.075 20.2098L141.028 17.8804C140.565 18.6812 139.85 19.3072 138.994 19.6613C138.137 20.0153 137.188 20.0776 136.293 19.8385C135.398 19.5993 134.607 19.0722 134.042 18.3388C133.478 17.6054 133.172 16.7067 133.172 15.7822C133.172 14.8577 133.478 13.959 134.042 13.2256C134.607 12.4922 135.398 11.965 136.293 11.7259C137.188 11.4868 138.137 11.5491 138.994 11.9031C139.85 12.2571 140.565 12.8831 141.028 13.6839L145.075 11.3546C144.098 9.66563 142.589 8.34553 140.783 7.59905C138.977 6.85257 136.975 6.72143 135.087 7.22597C133.199 7.73052 131.53 8.84255 130.34 10.3896C129.15 11.9366 128.505 13.8321 128.505 15.7822C128.505 17.7322 129.15 19.6278 130.34 21.1748C131.53 22.7218 133.199 23.8338 135.087 24.3384C136.975 24.8429 138.977 24.7118 140.783 23.9653C142.589 23.2188 144.098 21.8987 145.075 20.2098Z" fill="#005098"/>
<path d="M154.851 6.92154C149.793 6.92154 145.799 10.8392 145.799 15.8378C145.799 20.6903 149.55 24.6398 154.159 24.6398C155.727 24.6398 156.694 24.3238 158.009 23.3756L159.138 22.5788V24.1724H163.755V16.2043C163.755 10.8312 160.006 6.92685 154.849 6.92685L154.851 6.92154ZM154.782 20.0184C153.939 20.0184 153.116 19.7691 152.415 19.3022C151.715 18.8352 151.169 18.1715 150.846 17.395C150.524 16.6185 150.44 15.764 150.604 14.9397C150.768 14.1153 151.174 13.3581 151.77 12.7638C152.366 12.1695 153.125 11.7647 153.951 11.6008C154.777 11.4368 155.634 11.521 156.412 11.8426C157.191 12.1642 157.856 12.7089 158.324 13.4078C158.792 14.1066 159.042 14.9282 159.042 15.7687C159.042 16.8958 158.593 17.9767 157.794 18.7737C156.995 19.5706 155.912 20.0184 154.782 20.0184Z" fill="#005098"/>
<path d="M174.303 6.92154C169.143 6.92154 165.405 10.8259 165.405 16.199V24.1671H170.017V16.7302C170.017 13.4155 171.63 11.4474 174.335 11.4474C174.387 11.4446 174.438 11.4446 174.49 11.4474L174.623 11.4633V6.93482H174.506C174.438 6.92992 174.371 6.92992 174.303 6.93482" fill="#005098"/>
<path d="M192.757 17.7237C192.899 17.0862 192.972 16.4352 192.973 15.7821C192.972 13.6772 192.22 11.6414 190.851 10.0394C189.483 8.43734 187.587 7.37389 185.504 7.03956C183.42 6.70523 181.286 7.12188 179.483 8.21485C177.679 9.30782 176.325 11.0057 175.663 13.0041C175 15.0026 175.073 17.1711 175.868 19.121C176.662 21.0709 178.127 22.6748 180 23.6452C181.872 24.6156 184.03 24.8892 186.086 24.4169C188.142 23.9445 189.962 22.7572 191.221 21.0676L187.379 18.4249C186.939 18.9664 186.372 19.3904 185.727 19.6587C185.083 19.9269 184.381 20.0309 183.686 19.9613C182.992 19.8918 182.325 19.6508 181.747 19.2602C181.168 18.8696 180.696 18.3415 180.374 17.7237H192.77H192.757ZM180.363 13.8353C180.72 13.1571 181.256 12.5891 181.913 12.1928C182.57 11.7965 183.323 11.5871 184.091 11.5871C184.858 11.5871 185.611 11.7965 186.268 12.1928C186.925 12.5891 187.461 13.1571 187.818 13.8353H180.363Z" fill="#005098"/>
<defs>
<linearGradient id="paint0_linear" x1="35.3997" y1="4.27611" x2="13.4483" y2="29.3424" gradientUnits="userSpaceOnUse">
<stop stop-color="#F58124"/>
<stop offset="0.26" stop-color="#F7921E"/>
<stop offset="0.29" stop-color="#F7941D"/>
<stop offset="0.71" stop-color="#FBB040"/>
</linearGradient>
<linearGradient id="paint1_linear" x1="-1.28028" y1="7.24741" x2="19.4129" y2="27.3302" gradientUnits="userSpaceOnUse">
<stop offset="0.08" stop-color="#FBB040"/>
<stop offset="0.47" stop-color="#F7941D"/>
<stop offset="0.51" stop-color="#F7921E"/>
<stop offset="0.9" stop-color="#F58124"/>
</linearGradient>
<clipPath id="clip0">
<rect width="97.486" height="9" fill="white" transform="translate(211.717 12.2734)"/>
</clipPath>
</defs>
</svg>
