<svg width="381" height="100" viewBox="0 0 381 100" fill="none" xmlns="http://www.w3.org/2000/svg">
<path d="M24.8301 56.9427C15.4907 50.7524 16.1154 33.4962 26.2108 18.3872C36.3062 3.27812 52.0662 -3.94908 61.3847 2.2307C70.7031 8.41048 70.0994 25.6824 59.9987 40.7915C49.898 55.9005 34.1486 63.1225 24.8249 56.9427" fill="url(#paint0_linear)"/>
<path d="M40.422 56.6076C48.0867 50.564 46.3071 35.6226 36.4532 23.2316C26.5992 10.8406 12.409 5.69255 4.75472 11.71C-2.89952 17.7274 -1.12511 32.6898 8.72881 45.086C18.5827 57.4822 32.773 62.625 40.422 56.6076Z" fill="url(#paint1_linear)"/>
<path d="M246.488 54.4971H74.9132V59.1319H246.488V54.4971Z" fill="#F7941D"/>
<path d="M112.691 13.6481C102.716 13.6481 94.8417 21.3728 94.8417 31.229C94.8417 40.7972 102.239 48.5848 111.321 48.5848C114.418 48.5848 116.324 47.9615 118.912 46.0919L121.138 44.5208V47.663H130.241V31.9517C130.241 21.3571 122.849 13.6586 112.681 13.6586L112.691 13.6481ZM112.555 39.4722C110.893 39.4722 109.269 38.9808 107.888 38.06C106.507 37.1393 105.43 35.8306 104.794 34.2995C104.158 32.7684 103.992 31.0836 104.316 29.4581C104.64 27.8327 105.44 26.3396 106.615 25.1678C107.79 23.9959 109.286 23.1978 110.916 22.8745C112.545 22.5512 114.234 22.7171 115.769 23.3513C117.304 23.9856 118.616 25.0596 119.539 26.4375C120.462 27.8155 120.954 29.4356 120.954 31.0929C120.954 33.3152 120.069 35.4465 118.494 37.018C116.919 38.5894 114.782 39.4722 112.555 39.4722Z" fill="#F7941D"/>
<path d="M153.592 13.6479C150.911 13.6475 148.291 14.4482 146.069 15.947L143.775 17.361V0H134.751V30.0767C134.751 40.797 142.137 48.5846 152.306 48.5846C162.281 48.5846 170.156 40.8389 170.156 30.9408C170.156 21.5664 162.564 13.6584 153.608 13.6584L153.592 13.6479ZM152.453 39.472C150.792 39.472 149.168 38.9806 147.787 38.0598C146.405 37.1391 145.329 35.8304 144.693 34.2993C144.057 32.7682 143.891 31.0834 144.215 29.4579C144.539 27.8325 145.339 26.3394 146.514 25.1676C147.688 23.9957 149.185 23.1976 150.815 22.8743C152.444 22.551 154.133 22.7169 155.668 23.3511C157.203 23.9854 158.514 25.0594 159.437 26.4373C160.36 27.8153 160.853 29.4354 160.853 31.0927C160.853 33.315 159.968 35.4463 158.393 37.0178C156.818 38.5892 154.681 39.472 152.453 39.472Z" fill="#F7941D"/>
<path d="M192.756 13.6479C190.081 13.6446 187.466 14.4458 185.254 15.947L182.95 17.361V0H173.941V30.0767C173.941 40.797 181.291 48.5846 191.475 48.5846C201.45 48.5846 209.325 40.8389 209.325 30.9408C209.325 21.5664 201.765 13.6584 192.777 13.6584L192.756 13.6479ZM191.638 39.472C189.977 39.472 188.353 38.9806 186.971 38.0598C185.59 37.1391 184.513 35.8304 183.878 34.2993C183.242 32.7682 183.076 31.0834 183.4 29.4579C183.724 27.8325 184.524 26.3394 185.699 25.1676C186.873 23.9957 188.37 23.1976 189.999 22.8743C191.629 22.551 193.318 22.7169 194.852 23.3511C196.387 23.9854 197.699 25.0594 198.622 26.4373C199.545 27.8153 200.038 29.4354 200.038 31.0927C200.038 33.315 199.153 35.4463 197.578 37.0178C196.002 38.5892 193.866 39.472 191.638 39.472Z" fill="#F7941D"/>
<path d="M223.011 14.5746H213.692V47.6469H223.011V14.5746Z" fill="#F7941D"/>
<path d="M246.541 22.5878V14.7321H237.427V0.0158691H228.408V34.7431C228.408 40.3206 229.458 43.0805 232.434 45.3273C235.017 47.1864 237.159 47.663 242.734 47.663H246.541V39.734H243.737C238.839 39.734 237.437 38.3933 237.437 33.8004V22.5878H246.541Z" fill="#F7941D"/>
<path d="M92.4269 13.6481C82.2527 13.6481 74.882 21.3466 74.882 31.9413V47.6526H83.9747V32.9887C83.9747 26.4528 87.1561 22.5721 92.4899 22.5721C92.5913 22.5665 92.6929 22.5665 92.7944 22.5721L93.0568 22.6035V13.6743H92.8049C92.672 13.6646 92.5387 13.6646 92.4059 13.6743" fill="#F7941D"/>
<path d="M286.056 39.8489L278.076 35.256C277.163 36.8351 275.753 38.0694 274.065 38.7674C272.377 39.4655 270.505 39.5883 268.74 39.1168C266.975 38.6453 265.415 37.6059 264.302 36.1598C263.19 34.7136 262.587 32.9416 262.587 31.1187C262.587 29.2958 263.19 27.5238 264.302 26.0776C265.415 24.6315 266.975 23.5921 268.74 23.1206C270.505 22.6491 272.377 22.7719 274.065 23.47C275.753 24.168 277.163 25.4024 278.076 26.9814L286.056 22.3884C284.129 19.0582 281.155 16.4552 277.594 14.9833C274.033 13.5114 270.085 13.2529 266.362 14.2477C262.639 15.2426 259.349 17.4352 257.002 20.4856C254.656 23.536 253.384 27.2736 253.384 31.1187C253.384 34.9638 254.656 38.7014 257.002 41.7518C259.349 44.8022 262.639 46.9948 266.362 47.9897C270.085 48.9845 274.033 48.726 277.594 47.2541C281.155 45.7822 284.129 43.1792 286.056 39.8489Z" fill="#005098"/>
<path d="M305.334 13.6481C295.359 13.6481 287.484 21.3728 287.484 31.229C287.484 40.7972 294.881 48.5848 303.969 48.5848C307.061 48.5848 308.966 47.9615 311.56 46.0919L313.786 44.5208V47.663H322.889V31.9517C322.889 21.3571 315.497 13.6586 305.328 13.6586L305.334 13.6481ZM305.197 39.4722C303.536 39.4722 301.912 38.9808 300.53 38.06C299.149 37.1393 298.073 35.8306 297.437 34.2995C296.801 32.7684 296.635 31.0836 296.959 29.4581C297.283 27.8327 298.083 26.3396 299.258 25.1678C300.432 23.9959 301.929 23.1978 303.558 22.8745C305.188 22.5512 306.877 22.7171 308.412 23.3513C309.946 23.9856 311.258 25.0596 312.181 26.4375C313.104 27.8155 313.597 29.4356 313.597 31.0929C313.597 33.3152 312.712 35.4465 311.137 37.018C309.561 38.5894 307.425 39.4722 305.197 39.4722Z" fill="#005098"/>
<path d="M343.688 13.6481C333.514 13.6481 326.143 21.3466 326.143 31.9413V47.6526H335.236V32.9887C335.236 26.4528 338.418 22.5721 343.751 22.5721C343.853 22.5666 343.954 22.5666 344.056 22.5721L344.318 22.6035V13.6743H344.087C343.955 13.6646 343.821 13.6646 343.688 13.6743" fill="#005098"/>
<path d="M380.075 34.9474C380.356 33.6905 380.499 32.4068 380.5 31.1191C380.499 26.9687 379.016 22.9544 376.318 19.7956C373.619 16.6367 369.881 14.5398 365.773 13.8806C361.665 13.2214 357.457 14.0429 353.901 16.198C350.345 18.3531 347.675 21.7009 346.369 25.6415C345.063 29.582 345.206 33.8578 346.773 37.7026C348.34 41.5474 351.228 44.7099 354.92 46.6233C358.612 48.5368 362.867 49.0762 366.921 48.1449C370.975 47.2136 374.565 44.8724 377.046 41.5409L369.47 36.33C368.604 37.3978 367.485 38.2339 366.214 38.7627C364.943 39.2916 363.56 39.4967 362.19 39.3596C360.82 39.2224 359.505 38.7473 358.365 37.9771C357.225 37.2068 356.295 36.1657 355.658 34.9474H380.101H380.075ZM355.637 27.2803C356.341 25.943 357.397 24.8231 358.693 24.0417C359.988 23.2604 361.473 22.8473 362.987 22.8473C364.501 22.8473 365.986 23.2604 367.281 24.0417C368.577 24.8231 369.633 25.943 370.337 27.2803H355.637Z" fill="#005098"/>
<g clip-path="url(#clip0)">
<path d="M182.058 92.322C179.733 92.322 177.974 91.7816 176.779 90.7008C175.585 89.6199 174.989 88.1007 174.992 86.1429V84.5217C174.985 83.8961 175.126 83.2778 175.403 82.7169C175.668 82.1827 175.986 81.6761 176.351 81.2045C176.707 80.7513 177.023 80.323 177.3 79.9197C177.548 79.5977 177.693 79.2077 177.714 78.8015C177.731 78.6851 177.72 78.5665 177.683 78.4551C177.646 78.3436 177.583 78.2423 177.5 78.1591C177.265 78.036 177 77.9829 176.735 78.0062H174.625L174.9 75.4978H178.754C180.304 75.4978 181.079 76.2422 181.079 77.7309C181.089 78.3768 180.947 79.016 180.664 79.5968C180.385 80.1544 180.057 80.6866 179.685 81.1875C179.316 81.6851 178.989 82.2126 178.707 82.7645C178.429 83.319 178.287 83.9321 178.295 84.5523V86.4284C178.295 87.5501 178.626 88.3714 179.288 88.8926C179.949 89.4137 180.873 89.6732 182.058 89.6709C183.261 89.6709 184.193 89.4058 184.855 88.8756C185.517 88.3454 185.849 87.4991 185.851 86.3367V84.3178C185.851 83.3593 185.698 82.692 185.392 82.3159C185.086 81.9397 184.52 81.7505 183.693 81.7483H182.836L182.989 79.3317H183.574C184.43 79.3317 185.022 79.1232 185.348 78.7063C185.674 78.2894 185.837 77.6414 185.837 76.7622V75.2021H189.172V76.701C189.2 77.5156 189.054 78.3268 188.743 79.0802C188.469 79.692 187.879 80.1701 186.973 80.5145C187.911 80.902 188.512 81.4118 188.777 82.044C189.063 82.7953 189.198 83.5957 189.175 84.3993V86.0988C189.175 88.0565 188.543 89.5814 187.278 90.6736C186.014 91.7657 184.274 92.3152 182.058 92.322Z" fill="#4F4B66"/>
<path d="M208.579 92.322C208.124 92.3173 207.67 92.2821 207.219 92.2166C206.787 92.1654 206.362 92.0674 205.952 91.9243L203.501 85.4088H201.39L201.543 82.9005H205.622L208.161 89.6981C209.013 89.7527 209.864 89.5729 210.622 89.1781C211.387 88.7372 211.985 88.0546 212.321 87.2374C212.785 86.0866 212.999 84.8505 212.95 83.6108C212.998 82.4508 212.804 81.2935 212.382 80.212C212.022 79.3923 211.351 78.7493 210.516 78.4242C209.384 78.0231 208.185 77.8409 206.985 77.8872C206.115 77.8909 205.246 77.9523 204.385 78.0707C203.49 78.1878 202.609 78.3927 201.754 78.6825V76.113C202.669 75.8249 203.604 75.6056 204.551 75.457C205.649 75.2794 206.76 75.1919 207.872 75.1953C210.788 75.1953 212.899 75.9193 214.204 77.3672C215.509 78.8151 216.162 80.8952 216.162 83.6074C216.215 85.267 215.852 86.9136 215.105 88.3964C214.492 89.5961 213.556 90.6001 212.402 91.2946C211.248 91.9891 209.922 92.3462 208.575 92.3254L208.579 92.322Z" fill="#4F4B66"/>
<path d="M222.589 92.0161C221.488 92.0161 220.676 91.7408 220.155 91.1902C219.634 90.6396 219.375 89.8544 219.377 88.8348V75.4978H222.711V88.0089C222.711 88.9266 223.164 89.3854 224.071 89.3854H225.294V92.0161H222.589ZM230.022 92.0161C228.9 92.0161 228.085 91.7408 227.575 91.1902C227.065 90.6396 226.81 89.8544 226.81 88.8348V75.4978H230.114V88.0089C230.114 88.9266 230.567 89.3854 231.473 89.3854H232.728V92.0161H230.022Z" fill="#4F4B66"/>
<path d="M235.916 92.0161V81.5545C235.916 79.556 236.517 77.996 237.72 76.8744C238.924 75.7528 240.82 75.1919 243.41 75.1919C246.02 75.1919 247.911 75.7528 249.083 76.8744C250.254 77.996 250.85 79.556 250.87 81.5545V92.0161H247.536V81.2486C247.536 80.0862 247.179 79.2354 246.466 78.6961C245.752 78.1568 244.742 77.8861 243.437 77.8838C242.078 77.8838 241.042 78.1546 240.331 78.6961C239.619 79.2377 239.268 80.0885 239.277 81.2486V84.6475C240.183 83.9102 241.321 83.5198 242.489 83.5462H244.477L244.6 86.2075H242.373C241.242 86.1693 240.135 86.5384 239.253 87.2476V92.0059L235.916 92.0161Z" fill="#4F4B66"/>
<path d="M260.122 92.322C259.073 92.3242 258.024 92.2526 256.985 92.1079C256.133 92.0046 255.296 91.7992 254.494 91.4961V88.7125C255.309 89.0298 256.154 89.2655 257.015 89.416C257.838 89.571 258.673 89.6529 259.51 89.6607C260.917 89.6607 261.957 89.5338 262.63 89.2801C263.303 89.0263 263.643 88.4904 263.65 87.6724C263.669 87.4214 263.633 87.1693 263.543 86.9342C263.453 86.699 263.312 86.4868 263.13 86.3129C262.676 85.9492 262.157 85.6747 261.6 85.504C260.921 85.2774 260.085 84.9964 259.092 84.6611C258.222 84.3635 257.374 84.0058 256.553 83.5904C255.851 83.2463 255.237 82.7436 254.762 82.1221C254.305 81.4694 254.075 80.6851 254.106 79.8891C254.082 79.2249 254.22 78.5649 254.508 77.9658C254.796 77.3666 255.225 76.8463 255.758 76.4495C256.859 75.6021 258.521 75.1783 260.744 75.1783C261.676 75.1779 262.607 75.2495 263.528 75.3925C264.296 75.5006 265.053 75.6746 265.791 75.9125V78.6655C265.065 78.3869 264.31 78.1875 263.541 78.0707C262.778 77.9429 262.007 77.8759 261.233 77.8702C260.27 77.8391 259.309 77.9689 258.389 78.2543C258.061 78.351 257.776 78.5567 257.582 78.8373C257.387 79.118 257.294 79.4566 257.318 79.7973C257.308 80.0281 257.353 80.2579 257.449 80.4681C257.544 80.6783 257.688 80.863 257.869 81.0073C258.344 81.3596 258.876 81.6285 259.442 81.8027L261.906 82.6422C262.849 82.9314 263.761 83.3164 264.625 83.791C265.299 84.1539 265.872 84.6797 266.291 85.3204C266.697 86.0308 266.893 86.8414 266.858 87.6588C266.858 89.2699 266.251 90.4481 265.037 91.1936C263.822 91.9391 262.184 92.3152 260.122 92.322Z" fill="#4F4B66"/>
<path d="M283.248 92.322C282.041 92.3415 280.849 92.0463 279.791 91.4655C278.719 90.8364 277.873 89.8848 277.374 88.7464C276.783 87.5138 276.487 85.9277 276.487 83.9881C276.487 81.235 277.191 79.0824 278.598 77.5303C280.005 75.9782 282.116 75.1976 284.93 75.1885C286.827 75.1885 288.356 75.5103 289.518 76.1538C290.597 76.7136 291.485 77.5806 292.071 78.6451C292.609 79.652 292.888 80.7767 292.883 81.9182V92.0127H289.549V82.0745C289.563 81.3283 289.417 80.5877 289.121 79.9027C288.82 79.2563 288.307 78.7331 287.666 78.4208C286.789 78.0232 285.831 77.8392 284.869 77.8838C283.074 77.8838 281.763 78.4038 280.936 79.4439C280.109 80.4839 279.697 82.0032 279.699 84.0017C279.699 86.1021 280.056 87.575 280.77 88.4201C281.484 89.2653 282.503 89.6834 283.829 89.6743C284.211 89.6745 284.594 89.6541 284.974 89.6131C285.301 89.5822 285.624 89.5208 285.939 89.4296V91.9685C285.562 92.0982 285.173 92.1904 284.777 92.2438C284.27 92.3054 283.759 92.3315 283.248 92.322Z" fill="#4F4B66"/>
<path d="M169.119 92.0164C167.986 92.0164 167.17 91.7411 166.672 91.1904C166.173 90.6398 165.916 89.8547 165.9 88.8351V78.71C165.871 77.8213 166.06 76.9391 166.451 76.1405C166.781 75.4967 167.203 74.9047 167.705 74.3833C168.174 73.9029 168.592 73.4645 168.959 73.0679C169.3 72.7314 169.497 72.2758 169.51 71.7968C169.51 71.2054 169.34 70.8077 169.003 70.6038C168.535 70.3704 168.013 70.2648 167.491 70.2979C166.319 70.3167 165.172 70.6324 164.156 71.2156V68.7548C164.818 68.3684 165.534 68.0853 166.281 67.9153C167.047 67.7259 167.833 67.6278 168.622 67.623C170.07 67.623 171.151 67.9289 171.865 68.5407C172.227 68.8658 172.512 69.2684 172.697 69.7185C172.882 70.1687 172.964 70.6548 172.936 71.1408C172.95 71.7303 172.818 72.3141 172.551 72.8402C172.297 73.3196 171.984 73.7659 171.62 74.1691C171.253 74.577 170.886 74.9951 170.519 75.4233C170.146 75.8597 169.832 76.3431 169.584 76.861C169.314 77.4667 169.184 78.1253 169.204 78.7881V87.9955C169.163 88.3769 169.254 88.7608 169.462 89.0832C169.635 89.2769 169.999 89.3721 170.55 89.3721H171.957V92.0028L169.119 92.0164Z" fill="#4F4B66"/>
<path d="M182.15 72.9895V70.1753H179.733V67.8811H184.444V70.6647H191.051L190.929 72.9895H182.15Z" fill="#4F4B66"/>
<path d="M195.854 92.0161C194.732 92.0161 193.916 91.7408 193.407 91.1902C192.897 90.6396 192.642 89.8544 192.642 88.8348V78.7097C192.613 77.8211 192.802 76.9388 193.192 76.1402C193.524 75.4972 193.946 74.9054 194.447 74.383C194.916 73.9026 195.334 73.4642 195.701 73.0677C196.038 72.7353 196.235 72.2866 196.251 71.8135C196.251 71.2221 196.081 70.8244 195.745 70.6205C195.277 70.3871 194.755 70.2816 194.232 70.3146C193.061 70.3334 191.914 70.6492 190.898 71.2323V68.7546C191.559 68.3681 192.276 68.085 193.022 67.9151C193.789 67.7256 194.575 67.6275 195.364 67.6228C196.812 67.6228 197.893 67.9286 198.607 68.5404C198.969 68.8655 199.254 69.2681 199.439 69.7182C199.624 70.1684 199.706 70.6545 199.677 71.1405C199.692 71.73 199.56 72.3139 199.293 72.8399C199.038 73.3194 198.726 73.7657 198.362 74.1689C197.995 74.5767 197.628 74.9948 197.261 75.423C196.888 75.8595 196.574 76.3428 196.326 76.8608C196.056 77.4664 195.926 78.1251 195.945 78.7879V87.9953C195.905 88.3767 195.996 88.7605 196.204 89.0829C196.377 89.2766 196.741 89.3718 197.291 89.3718H198.698V92.0025L195.854 92.0161Z" fill="#4F4B66"/>
<path d="M258.96 72.9895V68.5235H267.953L267.831 70.8483H261.713V72.9895H258.96Z" fill="#4F4B66"/>
<path d="M289.151 100C288.03 100 287.147 99.7507 286.504 99.2523C286.207 99.0431 285.964 98.7657 285.797 98.4434C285.629 98.121 285.542 97.7631 285.542 97.3999V95.8398H283.89L284.012 93.7598H287.917V96.8493C287.917 97.529 288.325 97.8689 289.141 97.8689C289.957 97.8689 290.375 97.529 290.395 96.8493V93.7598H292.812V97.0634C292.813 97.4531 292.732 97.8388 292.574 98.195C292.416 98.5511 292.184 98.8698 291.894 99.1299C291.282 99.7122 290.368 100.002 289.151 100Z" fill="#4F4B66"/>
<path d="M299.949 92.0161C298.848 92.0161 298.037 91.7408 297.516 91.1902C296.995 90.6396 296.735 89.8544 296.738 88.8348V75.4978H300.072V88.0089C300.072 88.9266 300.525 89.3854 301.431 89.3854H302.655V92.0161H299.949ZM307.383 92.0161C306.261 92.0161 305.445 91.7408 304.936 91.1902C304.426 90.6396 304.171 89.8544 304.171 88.8348V75.4978H307.474V88.0089C307.474 88.9266 307.928 89.3854 308.834 89.3854H310.088V92.0161H307.383Z" fill="#4F4B66"/>
<path d="M318.395 92.322C317.428 92.3359 316.467 92.1651 315.564 91.819C314.735 91.499 314.023 90.9333 313.524 90.1977C312.979 89.3236 312.712 88.3041 312.76 87.2748C312.76 85.6637 313.305 84.4096 314.394 83.5123C315.484 82.615 317.081 82.1618 319.183 82.1527H324.231V81.1263C324.231 79.9231 323.929 79.0825 323.327 78.6044C322.724 78.1263 321.608 77.8861 319.979 77.8838C319.052 77.8816 318.127 77.943 317.209 78.0673C316.32 78.1901 315.445 78.3949 314.595 78.6791V76.1096C315.499 75.819 316.424 75.5997 317.362 75.4536C318.409 75.28 319.468 75.1925 320.529 75.1919C322.936 75.1919 324.71 75.6972 325.852 76.7078C326.994 77.7184 327.56 79.2932 327.551 81.4322V92.0161H324.217V84.729H319.384C318.251 84.729 317.389 84.9182 316.797 85.2966C316.206 85.675 315.916 86.3321 315.927 87.268C315.927 88.1743 316.187 88.7963 316.706 89.1339C317.224 89.4715 318.076 89.6449 319.262 89.6539C319.973 89.6665 320.683 89.5842 321.372 89.4092V91.9481C320.925 92.0621 320.471 92.1495 320.013 92.2098C319.477 92.2838 318.936 92.3213 318.395 92.322Z" fill="#4F4B66"/>
<path d="M331.422 92.0161V81.5545C331.422 79.556 332.024 77.996 333.227 76.8744C334.43 75.7528 336.327 75.1919 338.917 75.1919C341.527 75.1919 343.418 75.7528 344.59 76.8744C345.761 77.996 346.348 79.556 346.35 81.5545V92.0161H343.016V81.2486C343.016 80.0862 342.659 79.2354 341.945 78.6961C341.231 78.1568 340.222 77.8861 338.917 77.8838C337.557 77.8838 336.522 78.1546 335.81 78.6961C335.099 79.2377 334.748 80.0885 334.757 81.2486V84.6475C335.662 83.9102 336.801 83.5198 337.969 83.5462H339.957L340.079 86.2075H337.88C336.749 86.1693 335.642 86.5384 334.76 87.2476V92.0059L331.422 92.0161Z" fill="#4F4B66"/>
<path d="M355.622 92.322C354.573 92.3242 353.524 92.2526 352.485 92.1079C351.633 92.0046 350.797 91.7992 349.994 91.4961V88.7125C350.809 89.0298 351.654 89.2655 352.516 89.416C353.338 89.571 354.173 89.6529 355.01 89.6607C356.418 89.6607 357.458 89.5338 358.131 89.2801C358.803 89.0263 359.143 88.4904 359.15 87.6724C359.17 87.4214 359.133 87.1693 359.043 86.9342C358.953 86.699 358.812 86.4868 358.63 86.3129C358.176 85.9492 357.657 85.6747 357.101 85.504C356.421 85.2774 355.585 84.9964 354.592 84.6611C353.722 84.3635 352.874 84.0058 352.053 83.5904C351.351 83.2463 350.738 82.7436 350.262 82.1221C349.806 81.4694 349.575 80.6851 349.606 79.8891C349.583 79.2249 349.721 78.5649 350.008 77.9658C350.296 77.3666 350.725 76.8463 351.258 76.4495C352.359 75.6021 354.021 75.1783 356.244 75.1783C357.176 75.1779 358.107 75.2495 359.028 75.3925C359.796 75.5002 360.553 75.6742 361.291 75.9125V78.6655C360.565 78.3869 359.811 78.1875 359.041 78.0707C358.279 77.9429 357.507 77.8759 356.734 77.8702C355.771 77.8391 354.809 77.9689 353.889 78.2543C353.561 78.351 353.277 78.5567 353.082 78.8373C352.887 79.118 352.794 79.4566 352.818 79.7973C352.809 80.0281 352.853 80.2579 352.949 80.4681C353.045 80.6783 353.188 80.863 353.369 81.0073C353.845 81.3596 354.377 81.6285 354.942 81.8027L357.407 82.6422C358.35 82.9314 359.261 83.3164 360.126 83.791C360.8 84.1539 361.372 84.6797 361.791 85.3204C362.197 86.0308 362.394 86.8414 362.359 87.6588C362.359 89.2699 361.751 90.4481 360.537 91.1936C359.322 91.9391 357.684 92.3152 355.622 92.322Z" fill="#4F4B66"/>
<path d="M373.15 92.322C370.784 92.322 368.933 91.7612 367.596 90.6396C366.259 89.518 365.592 87.8355 365.594 85.5923V75.4978H368.928V85.7147C368.928 87.0742 369.29 88.0735 370.013 88.7124C370.736 89.3514 371.781 89.6675 373.15 89.6607C374.537 89.6607 375.591 89.3446 376.314 88.7124C377.037 88.0803 377.399 87.081 377.402 85.7147V75.4978H380.705V85.5923C380.705 87.8355 380.043 89.518 378.717 90.6396C377.392 91.7612 375.536 92.322 373.15 92.322Z" fill="#4F4B66"/>
</g>
<defs>
<linearGradient id="paint0_linear" x1="69.7996" y1="8.4309" x2="26.5162" y2="57.8562" gradientUnits="userSpaceOnUse">
<stop stop-color="#F58124"/>
<stop offset="0.26" stop-color="#F7921E"/>
<stop offset="0.29" stop-color="#F7941D"/>
<stop offset="0.71" stop-color="#FBB040"/>
</linearGradient>
<linearGradient id="paint1_linear" x1="-2.52443" y1="14.29" x2="38.2781" y2="53.889" gradientUnits="userSpaceOnUse">
<stop offset="0.08" stop-color="#FBB040"/>
<stop offset="0.47" stop-color="#F7941D"/>
<stop offset="0.51" stop-color="#F7921E"/>
<stop offset="0.9" stop-color="#F58124"/>
</linearGradient>
<clipPath id="clip0">
<rect width="216.542" height="32.3636" fill="white" transform="translate(164.163 67.6364)"/>
</clipPath>
</defs>
</svg>
