<svg width="450" height="100" viewBox="0 0 450 100" fill="none" xmlns="http://www.w3.org/2000/svg">
<g clip-path="url(#clip0)">
<path d="M233.421 84.8177C234.242 83.3131 235.47 82.0695 236.963 81.2286C238.465 80.3525 240.175 79.8986 241.913 79.9149C243.894 79.8679 245.844 80.4065 247.52 81.4632C249.131 82.516 250.358 84.0636 251.015 85.8733H247.942C247.46 84.7395 246.641 83.7813 245.596 83.1287C244.483 82.4689 243.207 82.1356 241.913 82.1669C240.622 82.1537 239.35 82.4857 238.23 83.1287C237.136 83.7735 236.249 84.7176 235.673 85.8499C235.032 87.1301 234.71 88.5467 234.735 89.9785C234.712 91.3951 235.034 92.796 235.673 94.0602C236.249 95.1925 237.136 96.1366 238.23 96.7814C239.35 97.4244 240.622 97.7564 241.913 97.7432C243.204 97.7828 244.481 97.4576 245.596 96.8049C246.634 96.1551 247.452 95.2065 247.942 94.0837H251.015C250.357 95.8743 249.129 97.3991 247.52 98.4235C245.844 99.4802 243.894 100.019 241.913 99.9718C240.177 99.9964 238.466 99.5505 236.963 98.6815C235.476 97.843 234.25 96.6088 233.421 95.1159C232.575 93.5315 232.132 91.763 232.132 89.9668C232.132 88.1706 232.575 86.4021 233.421 84.8177Z" fill="#4F4B66"/>
<path d="M258.73 98.7097C257.238 97.8688 256.005 96.6357 255.164 95.1441C254.302 93.5606 253.85 91.7863 253.85 89.9833C253.85 88.1802 254.302 86.4059 255.164 84.8224C256.001 83.3221 257.235 82.0806 258.73 81.2333C260.264 80.4018 261.981 79.9663 263.726 79.9663C265.471 79.9663 267.189 80.4018 268.723 81.2333C270.206 82.0776 271.43 83.3104 272.265 84.799C273.111 86.396 273.554 88.1759 273.554 89.9833C273.554 91.7906 273.111 93.5705 272.265 95.1675C271.427 96.6474 270.203 97.8718 268.723 98.7097C267.193 99.5559 265.474 99.9998 263.726 99.9998C261.978 99.9998 260.259 99.5559 258.73 98.7097ZM267.409 96.8096C268.515 96.1726 269.412 95.227 269.99 94.0885C270.616 92.8063 270.941 91.3983 270.941 89.9715C270.941 88.5447 270.616 87.1367 269.99 85.8546C269.414 84.7223 268.527 83.7782 267.433 83.1334C266.297 82.4877 265.009 82.1557 263.703 82.1716C262.403 82.1519 261.122 82.4842 259.996 83.1334C258.895 83.7767 258 84.7207 257.416 85.8546C256.798 87.1391 256.478 88.5462 256.478 89.9715C256.478 91.3968 256.798 92.8039 257.416 94.0885C258.007 95.2172 258.901 96.1593 259.996 96.8096C261.13 97.4402 262.406 97.7712 263.703 97.7712C265 97.7712 266.275 97.4402 267.409 96.8096Z" fill="#4F4B66"/>
<path d="M296.85 80.3185V99.8123H294.269V85.2681L287.795 99.8123H286.082L279.561 85.2447V99.8123H276.934V80.3185H279.702L286.903 96.4343L294.105 80.3185H296.85Z" fill="#4F4B66"/>
<path d="M312.613 89.983C311.189 91.1765 309.351 91.7584 307.499 91.6017H303.746V99.8121H301.165V80.1775H307.499C309.335 80.0334 311.154 80.6145 312.566 81.7961C313.109 82.3308 313.54 82.9681 313.834 83.6708C314.128 84.3736 314.279 85.1278 314.279 85.8896C314.279 86.6514 314.128 87.4055 313.834 88.1083C313.54 88.811 313.109 89.4483 312.566 89.983H312.613ZM310.666 88.5755C311.014 88.2314 311.284 87.8167 311.458 87.3594C311.632 86.9022 311.706 86.413 311.675 85.9247C311.675 83.5789 310.291 82.2887 307.499 82.2887H303.746V89.4904H307.499C308.631 89.5786 309.756 89.2535 310.666 88.5755Z" fill="#4F4B66"/>
<path d="M320.026 97.7246H326.899V99.8125H317.516V80.1779H320.073L320.026 97.7246Z" fill="#4F4B66"/>
<path d="M332.2 82.2658V88.9514H339.355V91.0627H332.2V97.8187H340.2V99.9299H329.644V80.2719H340.2V82.3832L332.2 82.2658Z" fill="#4F4B66"/>
<path d="M356.152 80.1779V82.2656H350.804V99.8125H348.247V82.2656H342.875V80.1779H356.152Z" fill="#4F4B66"/>
<path d="M361.876 82.2658V88.9514H368.914V91.0627H361.876V97.8187H369.852V99.9299H359.296V80.2719H369.852V82.3832L361.876 82.2658Z" fill="#4F4B66"/>
<path d="M381.604 84.8226C382.423 83.3241 383.641 82.0818 385.123 81.2334C386.634 80.3598 388.351 79.9062 390.096 79.9198C392.076 79.8756 394.026 80.4139 395.703 81.468C397.315 82.5209 398.541 84.0685 399.198 85.8782H396.125C395.635 84.7491 394.818 83.7929 393.779 83.1336C392.666 82.4738 391.39 82.1405 390.096 82.1718C388.804 82.1551 387.532 82.4874 386.413 83.1336C385.319 83.7783 384.432 84.7225 383.856 85.8547C383.204 87.131 382.881 88.5504 382.918 89.9834C382.883 91.4012 383.206 92.8049 383.856 94.0651C384.432 95.1974 385.319 96.1415 386.413 96.7863C387.532 97.4325 388.804 97.7648 390.096 97.7481C391.388 97.7877 392.664 97.4625 393.779 96.8098C394.812 96.1534 395.628 95.2068 396.125 94.0886H399.198C398.54 95.8792 397.312 97.404 395.703 98.4284C394.026 99.4825 392.076 100.021 390.096 99.9767C388.353 99.9985 386.636 99.553 385.123 98.6864C383.649 97.8387 382.432 96.6062 381.604 95.1208C380.758 93.5363 380.316 91.7678 380.316 89.9717C380.316 88.1755 380.758 86.407 381.604 84.8226Z" fill="#4F4B66"/>
<path d="M414.587 95.4488H406.024L404.453 99.8121H401.755L408.792 80.2948H411.748L418.786 99.8121H416.064L414.587 95.4488ZM413.859 93.3611L410.411 83.4382L406.869 93.3611H413.859Z" fill="#4F4B66"/>
<path d="M432.298 99.8121L427.607 91.7893H424.487V99.8121H421.93V80.1775H428.264C429.558 80.1394 430.843 80.4044 432.017 80.9516C432.985 81.3821 433.802 82.093 434.363 82.9924C434.868 83.8947 435.127 84.9141 435.113 85.9482C435.132 87.2417 434.72 88.5046 433.941 89.5373C433.069 90.6274 431.823 91.3547 430.445 91.5782L435.372 99.8121H432.298ZM424.534 89.725H428.311C429.446 89.8057 430.567 89.4348 431.431 88.6929C431.78 88.3296 432.052 87.8989 432.229 87.4269C432.407 86.955 432.486 86.4518 432.463 85.9482C432.496 85.4507 432.421 84.9518 432.243 84.4861C432.064 84.0203 431.787 83.5988 431.431 83.2505C430.551 82.5447 429.435 82.2008 428.311 82.2887H424.487L424.534 89.725Z" fill="#4F4B66"/>
<path d="M441.634 82.2658V88.9514H448.789V91.0627H441.634V97.8187H449.633V99.9299H439.077V80.2719H449.633V82.3832L441.634 82.2658Z" fill="#4F4B66"/>
</g>
<path d="M29.3394 67.2839C18.3039 59.9695 19.0421 39.5794 30.9709 21.7266C42.8996 3.87368 61.5217 -4.666 72.5324 2.63604C83.5431 9.93809 82.8297 30.3467 70.8947 48.1996C58.9597 66.0524 40.3501 74.5859 29.3332 67.2839" fill="url(#paint0_linear)"/>
<path d="M47.7628 66.8878C56.8194 59.7466 54.7166 42.0918 43.0732 27.4506C31.4298 12.8093 14.6625 6.72637 5.6182 13.8366C-3.42608 20.9468 -1.32943 38.6264 10.314 53.2738C21.9574 67.9212 38.7247 73.998 47.7628 66.8878Z" fill="url(#paint1_linear)"/>
<path d="M291.251 64.394H88.5176V69.8705H291.251V64.394Z" fill="#F7941D"/>
<path d="M133.156 16.1261C121.37 16.1261 112.065 25.2537 112.065 36.8998C112.065 48.2056 120.806 57.4074 131.537 57.4074C135.197 57.4074 137.449 56.671 140.507 54.4619L143.137 52.6054V56.3183H153.893V37.7538C153.893 25.2351 145.159 16.1385 133.144 16.1385L133.156 16.1261ZM132.995 46.64C131.032 46.64 129.113 46.0593 127.481 44.9714C125.848 43.8834 124.576 42.3371 123.825 40.5279C123.074 38.7187 122.877 36.7279 123.26 34.8073C123.643 32.8867 124.589 31.1225 125.977 29.7378C127.365 28.3531 129.133 27.4101 131.059 27.0281C132.984 26.6461 134.979 26.8421 136.793 27.5915C138.607 28.3409 140.157 29.61 141.247 31.2382C142.338 32.8664 142.92 34.7807 142.92 36.7389C142.92 39.3649 141.874 41.8832 140.013 43.74C138.152 45.5969 135.627 46.64 132.995 46.64Z" fill="#F7941D"/>
<path d="M181.485 16.1264C178.317 16.1259 175.221 17.0721 172.596 18.843L169.885 20.5138V0H159.222V35.5387C159.222 48.2059 167.95 57.4077 179.965 57.4077C191.752 57.4077 201.056 48.2554 201.056 36.5597C201.056 25.4829 192.086 16.1388 181.504 16.1388L181.485 16.1264ZM180.139 46.6403C178.176 46.6403 176.257 46.0596 174.625 44.9716C172.993 43.8837 171.721 42.3373 170.969 40.5282C170.218 38.719 170.022 36.7282 170.405 34.8076C170.788 32.8869 171.733 31.1227 173.121 29.7381C174.509 28.3534 176.278 27.4104 178.203 27.0284C180.128 26.6463 182.124 26.8424 183.937 27.5918C185.751 28.3412 187.301 29.6102 188.392 31.2384C189.482 32.8667 190.064 34.7809 190.064 36.7392C190.064 39.3651 189.019 41.8835 187.157 43.7403C185.296 45.5971 182.771 46.6403 180.139 46.6403Z" fill="#F7941D"/>
<path d="M227.761 16.1264C224.6 16.1224 221.511 17.0691 218.897 18.843L216.174 20.5138V0H205.529V35.5387C205.529 48.2059 214.213 57.4077 226.248 57.4077C238.034 57.4077 247.339 48.2554 247.339 36.5597C247.339 25.4829 238.406 16.1388 227.786 16.1388L227.761 16.1264ZM226.44 46.6403C224.477 46.6403 222.558 46.0596 220.926 44.9716C219.294 43.8837 218.021 42.3373 217.27 40.5282C216.519 38.719 216.322 36.7282 216.705 34.8076C217.088 32.8869 218.034 31.1227 219.422 29.7381C220.81 28.3534 222.578 27.4104 224.504 27.0284C226.429 26.6463 228.425 26.8424 230.238 27.5918C232.052 28.3412 233.602 29.6102 234.692 31.2384C235.783 32.8667 236.365 34.7809 236.365 36.7392C236.365 39.3651 235.319 41.8835 233.458 43.7403C231.597 45.5971 229.072 46.6403 226.44 46.6403Z" fill="#F7941D"/>
<path d="M263.51 17.2216H252.5V56.2999H263.51V17.2216Z" fill="#F7941D"/>
<path d="M291.313 26.69V17.4077H280.544V0.0189209H269.887V41.0527C269.887 47.6431 271.128 50.9043 274.645 53.559C277.697 55.7558 280.228 56.3189 286.816 56.3189H291.313V46.9501H288.001C282.213 46.9501 280.557 45.3659 280.557 39.9388V26.69H291.313Z" fill="#F7941D"/>
<path d="M109.212 16.1261C97.1902 16.1261 88.4808 25.2228 88.4808 37.7414V56.306H99.2248V38.9791C99.2248 31.2562 102.984 26.6708 109.286 26.6708C109.406 26.6641 109.526 26.6641 109.646 26.6708L109.956 26.7079V16.1571H109.659C109.502 16.1457 109.344 16.1457 109.187 16.1571" fill="#F7941D"/>
<path d="M338.005 47.0858L328.576 41.6588C327.497 43.5246 325.831 44.983 323.836 45.8079C321.842 46.6327 319.63 46.7778 317.544 46.2207C315.458 45.6636 313.615 44.4354 312.301 42.7266C310.986 41.0179 310.273 38.9241 310.273 36.7701C310.273 34.6161 310.986 32.5223 312.301 30.8136C313.615 29.1048 315.458 27.8766 317.544 27.3195C319.63 26.7624 321.842 26.9075 323.836 27.7323C325.831 28.5572 327.497 30.0156 328.576 31.8814L338.005 26.4544C335.728 22.5194 332.214 19.4437 328.006 17.7045C323.799 15.9653 319.134 15.6598 314.734 16.8353C310.335 18.0108 306.447 20.6017 303.675 24.206C300.902 27.8104 299.399 32.2268 299.399 36.7701C299.399 41.3134 300.902 45.7298 303.675 49.3342C306.447 52.9385 310.335 55.5294 314.734 56.7049C319.134 57.8804 323.799 57.5749 328.006 55.8357C332.214 54.0965 335.728 51.0208 338.005 47.0858Z" fill="#005098"/>
<path d="M360.783 16.1261C348.997 16.1261 339.692 25.2537 339.692 36.8998C339.692 48.2056 348.432 57.4074 359.17 57.4074C362.824 57.4074 365.076 56.671 368.14 54.4619L370.77 52.6054V56.3183H381.527V37.7538C381.527 25.2351 372.792 16.1385 360.777 16.1385L360.783 16.1261ZM360.622 46.64C358.659 46.64 356.74 46.0593 355.108 44.9714C353.476 43.8834 352.203 42.3371 351.452 40.5279C350.701 38.7187 350.504 36.7279 350.887 34.8073C351.27 32.8867 352.216 31.1225 353.604 29.7378C354.992 28.3531 356.76 27.4101 358.686 27.0281C360.611 26.6461 362.606 26.8421 364.42 27.5915C366.234 28.3409 367.784 29.61 368.874 31.2382C369.965 32.8664 370.547 34.7807 370.547 36.7389C370.547 39.3649 369.501 41.8832 367.64 43.74C365.779 45.5969 363.254 46.64 360.622 46.64Z" fill="#005098"/>
<path d="M406.103 16.1261C394.082 16.1261 385.372 25.2228 385.372 37.7414V56.306H396.116V38.9791C396.116 31.2562 399.875 26.6708 406.178 26.6708C406.298 26.6643 406.418 26.6643 406.538 26.6708L406.848 26.7079V16.1571H406.575C406.418 16.1457 406.26 16.1457 406.103 16.1571" fill="#005098"/>
<path d="M449.098 41.294C449.43 39.8088 449.598 38.292 449.601 36.7704C449.599 31.8663 447.847 27.123 444.658 23.3905C441.469 19.658 437.053 17.1803 432.199 16.4014C427.345 15.6224 422.372 16.5932 418.171 19.1396C413.969 21.6861 410.814 25.6419 409.271 30.2981C407.728 34.9542 407.897 40.0065 409.748 44.5495C411.6 49.0925 415.013 52.8293 419.375 55.0903C423.738 57.3513 428.764 57.9886 433.555 56.8882C438.346 55.7877 442.587 53.0214 445.519 49.0849L436.568 42.9276C435.544 44.1894 434.222 45.1773 432.72 45.8022C431.218 46.4271 429.584 46.6695 427.965 46.5074C426.346 46.3453 424.793 45.7839 423.446 44.8738C422.098 43.9637 420.999 42.7335 420.247 41.294H449.129H449.098ZM420.222 32.2345C421.053 30.6543 422.302 29.331 423.832 28.4078C425.363 27.4845 427.118 26.9965 428.907 26.9965C430.696 26.9965 432.45 27.4845 433.981 28.4078C435.512 29.331 436.76 30.6543 437.591 32.2345H420.222Z" fill="#005098"/>
<defs>
<linearGradient id="paint0_linear" x1="82.4755" y1="9.96222" x2="31.3317" y2="68.3632" gradientUnits="userSpaceOnUse">
<stop stop-color="#F58124"/>
<stop offset="0.26" stop-color="#F7921E"/>
<stop offset="0.29" stop-color="#F7941D"/>
<stop offset="0.71" stop-color="#FBB040"/>
</linearGradient>
<linearGradient id="paint1_linear" x1="-2.98288" y1="16.8852" x2="45.2295" y2="63.6755" gradientUnits="userSpaceOnUse">
<stop offset="0.08" stop-color="#FBB040"/>
<stop offset="0.47" stop-color="#F7941D"/>
<stop offset="0.51" stop-color="#F7921E"/>
<stop offset="0.9" stop-color="#F58124"/>
</linearGradient>
<clipPath id="clip0">
<rect width="217.505" height="20.0803" fill="white" transform="translate(232.128 79.9197)"/>
</clipPath>
</defs>
</svg>
