<svg width="294" height="27" viewBox="0 0 294 27" fill="none" xmlns="http://www.w3.org/2000/svg">
<path d="M11.3338 25.9912C7.07088 23.1657 7.35604 15.2892 11.964 8.39274C16.572 1.4963 23.7656 -1.80252 28.019 1.01821C32.2723 3.83893 31.9967 11.7226 27.3863 18.6191C22.7759 25.5155 15.5872 28.8119 11.3314 25.9912" fill="url(#paint0_linear)"/>
<path d="M18.4504 25.8383C21.9489 23.0797 21.1366 16.2598 16.6389 10.604C12.1411 4.94817 5.66401 2.59836 2.17027 5.34499C-1.32347 8.09161 -0.51355 14.9211 3.98422 20.5793C8.48199 26.2375 14.9591 28.5849 18.4504 25.8383Z" fill="url(#paint1_linear)"/>
<path d="M112.508 24.8749H34.1934V26.9904H112.508V24.8749Z" fill="#F7941D"/>
<path d="M51.4373 6.22961C46.8844 6.22961 43.29 9.75552 43.29 14.2543C43.29 18.6217 46.6664 22.1763 50.8119 22.1763C52.2257 22.1763 53.0955 21.8918 54.2769 21.0384L55.2929 20.3213V21.7556H59.448V14.5842C59.448 9.74835 56.0741 6.2344 51.4325 6.2344L51.4373 6.22961ZM51.375 18.0169C50.6167 18.0169 49.8754 17.7926 49.2449 17.3723C48.6144 16.9521 48.123 16.3547 47.8328 15.6558C47.5426 14.957 47.4667 14.1879 47.6147 13.446C47.7626 12.7041 48.1278 12.0226 48.6639 11.4877C49.2001 10.9528 49.8833 10.5885 50.627 10.441C51.3708 10.2934 52.1416 10.3691 52.8422 10.6586C53.5428 10.9481 54.1416 11.4383 54.5629 12.0673C54.9841 12.6963 55.209 13.4357 55.209 14.1922C55.209 15.2066 54.8051 16.1794 54.0861 16.8967C53.367 17.6139 52.3919 18.0169 51.375 18.0169Z" fill="#F7941D"/>
<path d="M70.107 6.22951C68.883 6.22931 67.687 6.59482 66.6731 7.27891L65.626 7.92433V0H61.5068V13.7283C61.5068 18.6216 64.8784 22.1762 69.5199 22.1762C74.0728 22.1762 77.6672 18.6407 77.6672 14.1228C77.6672 9.84386 74.2022 6.23429 70.1142 6.23429L70.107 6.22951ZM69.587 18.0168C68.8287 18.0168 68.0874 17.7925 67.4569 17.3722C66.8264 16.952 66.335 16.3546 66.0448 15.6557C65.7546 14.9569 65.6787 14.1878 65.8267 13.4459C65.9746 12.704 66.3398 12.0225 66.8759 11.4876C67.4121 10.9527 68.0953 10.5884 68.839 10.4409C69.5827 10.2933 70.3536 10.369 71.0542 10.6585C71.7548 10.948 72.3536 11.4382 72.7749 12.0672C73.1961 12.6962 73.421 13.4356 73.421 14.1921C73.421 15.2065 73.0171 16.1793 72.2981 16.8966C71.579 17.6138 70.6038 18.0168 69.587 18.0168Z" fill="#F7941D"/>
<path d="M87.9837 6.22951C86.7625 6.22799 85.5691 6.59369 84.5594 7.27891L83.5075 7.92433V0H79.3955V13.7283C79.3955 18.6216 82.7502 22.1762 87.399 22.1762C91.9519 22.1762 95.5462 18.6407 95.5462 14.1228C95.5462 9.84386 92.0957 6.23429 87.9933 6.23429L87.9837 6.22951ZM87.4733 18.0168C86.715 18.0168 85.9737 17.7925 85.3432 17.3722C84.7127 16.952 84.2213 16.3546 83.9311 15.6557C83.6409 14.9569 83.565 14.1878 83.7129 13.4459C83.8609 12.704 84.226 12.0225 84.7622 11.4876C85.2984 10.9527 85.9816 10.5884 86.7253 10.4409C87.469 10.2933 88.2399 10.369 88.9405 10.6585C89.6411 10.948 90.2398 11.4382 90.6611 12.0672C91.0824 12.6962 91.3073 13.4356 91.3073 14.1921C91.3073 15.2065 90.9033 16.1793 90.1843 16.8966C89.4653 17.6138 88.4901 18.0168 87.4733 18.0168Z" fill="#F7941D"/>
<path d="M101.791 6.65247H97.5381V21.7481H101.791V6.65247Z" fill="#F7941D"/>
<path d="M112.533 10.31V6.72436H108.373V0.00720215H104.256V15.8583C104.256 18.4041 104.735 19.6639 106.094 20.6894C107.273 21.538 108.25 21.7555 110.795 21.7555H112.533V18.1364H111.253C109.017 18.1364 108.377 17.5244 108.377 15.428V10.31H112.533Z" fill="#F7941D"/>
<path d="M42.188 6.22961C37.544 6.22961 34.1797 9.74357 34.1797 14.5795V21.7508H38.33V15.0575C38.33 12.0743 39.7821 10.3029 42.2167 10.3029C42.263 10.3004 42.3094 10.3004 42.3557 10.3029L42.4755 10.3173V6.24157H42.3605C42.2999 6.23716 42.239 6.23716 42.1784 6.24157" fill="#F7941D"/>
<path d="M130.569 18.1889L126.927 16.0925C126.51 16.8133 125.867 17.3767 125.096 17.6953C124.326 18.0139 123.471 18.07 122.666 17.8548C121.86 17.6396 121.148 17.1651 120.64 16.505C120.132 15.845 119.857 15.0361 119.857 14.2041C119.857 13.372 120.132 12.5632 120.64 11.9031C121.148 11.243 121.86 10.7686 122.666 10.5534C123.471 10.3382 124.326 10.3942 125.096 10.7129C125.867 11.0315 126.51 11.5949 126.927 12.3156L130.569 10.2192C129.69 8.69912 128.332 7.51102 126.707 6.83918C125.082 6.16733 123.279 6.04931 121.58 6.5034C119.881 6.9575 118.379 7.95833 117.308 9.35067C116.237 10.743 115.656 12.449 115.656 14.2041C115.656 15.9591 116.237 17.6651 117.308 19.0575C118.379 20.4498 119.881 21.4507 121.58 21.9048C123.279 22.3589 125.082 22.2408 126.707 21.569C128.332 20.8971 129.69 19.709 130.569 18.1889Z" fill="#005098"/>
<path d="M139.368 6.22961C134.815 6.22961 131.221 9.75552 131.221 14.2543C131.221 18.6217 134.597 22.1763 138.745 22.1763C140.156 22.1763 141.026 21.8918 142.21 21.0384L143.226 20.3213V21.7556H147.381V14.5842C147.381 9.74835 144.007 6.2344 139.366 6.2344L139.368 6.22961ZM139.306 18.0169C138.547 18.0169 137.806 17.7926 137.176 17.3723C136.545 16.9521 136.054 16.3547 135.764 15.6558C135.473 14.957 135.397 14.1879 135.545 13.446C135.693 12.7041 136.058 12.0226 136.595 11.4877C137.131 10.9528 137.814 10.5885 138.558 10.441C139.301 10.2934 140.072 10.3691 140.773 10.6586C141.473 10.9481 142.072 11.4383 142.494 12.0673C142.915 12.6963 143.14 13.4357 143.14 14.1922C143.14 15.2066 142.736 16.1794 142.017 16.8967C141.298 17.6139 140.323 18.0169 139.306 18.0169Z" fill="#005098"/>
<path d="M156.875 6.22961C152.231 6.22961 148.866 9.74357 148.866 14.5795V21.7508H153.017V15.0575C153.017 12.0743 154.469 10.3029 156.903 10.3029C156.95 10.3004 156.996 10.3004 157.042 10.3029L157.162 10.3173V6.24157H157.057C156.996 6.23716 156.935 6.23716 156.875 6.24157" fill="#005098"/>
<path d="M173.483 15.9515C173.611 15.3778 173.677 14.7919 173.677 14.2041C173.677 12.3097 173 10.4774 171.768 9.03557C170.536 7.59374 168.83 6.63662 166.955 6.33572C165.08 6.03482 163.159 6.40981 161.536 7.39349C159.913 8.37718 158.695 9.90525 158.098 11.7039C157.502 13.5026 157.568 15.4542 158.283 17.2091C158.998 18.9641 160.316 20.4076 162.001 21.281C163.687 22.1544 165.629 22.4006 167.479 21.9755C169.33 21.5504 170.968 20.4818 172.101 18.9611L168.643 16.5826C168.247 17.07 167.737 17.4516 167.157 17.693C166.576 17.9344 165.945 18.0281 165.32 17.9655C164.694 17.9029 164.094 17.686 163.574 17.3344C163.053 16.9829 162.629 16.5076 162.338 15.9515H173.495H173.483ZM162.329 12.4519C162.65 11.8415 163.132 11.3304 163.723 10.9737C164.315 10.6171 164.992 10.4285 165.683 10.4285C166.374 10.4285 167.052 10.6171 167.644 10.9737C168.235 11.3304 168.717 11.8415 169.038 12.4519H162.329Z" fill="#005098"/>
<g clip-path="url(#clip0)">
<path d="M200.972 21.5553C199.894 21.5553 199.079 21.3048 198.525 20.8039C197.972 20.3029 197.695 19.5987 197.697 18.6914V17.94C197.693 17.65 197.759 17.3634 197.887 17.1035C198.01 16.8559 198.157 16.621 198.327 16.4025C198.492 16.1924 198.638 15.9939 198.766 15.807C198.881 15.6578 198.948 15.477 198.958 15.2887C198.966 15.2348 198.961 15.1798 198.944 15.1282C198.927 15.0765 198.898 15.0295 198.859 14.991C198.75 14.9339 198.627 14.9093 198.505 14.9201H197.526L197.654 13.7575H199.44C200.159 13.7575 200.518 14.1025 200.518 14.7925C200.523 15.0919 200.457 15.3881 200.326 15.6573C200.196 15.9158 200.044 16.1624 199.872 16.3946C199.701 16.6252 199.549 16.8697 199.418 17.1255C199.289 17.3825 199.224 17.6667 199.228 17.9541V18.8237C199.228 19.3435 199.381 19.7242 199.688 19.9658C199.994 20.2073 200.422 20.3276 200.972 20.3265C201.529 20.3265 201.961 20.2037 202.268 19.9579C202.575 19.7122 202.729 19.3199 202.73 18.7812V17.8454C202.73 17.4012 202.659 17.0919 202.517 16.9176C202.375 16.7433 202.113 16.6556 201.729 16.6545H201.332L201.403 15.5345H201.674C202.071 15.5345 202.345 15.4379 202.496 15.2446C202.648 15.0514 202.723 14.751 202.723 14.3435V13.6205H204.269V14.3152C204.282 14.6927 204.214 15.0687 204.07 15.4179C203.943 15.7015 203.67 15.923 203.249 16.0827C203.684 16.2623 203.963 16.4986 204.086 16.7916C204.218 17.1398 204.281 17.5108 204.27 17.8832V18.6709C204.27 19.5783 203.977 20.285 203.391 20.7912C202.805 21.2974 201.999 21.5521 200.972 21.5553Z" fill="#4F4B66"/>
<path d="M213.263 21.5553C213.053 21.5531 212.842 21.5368 212.633 21.5065C212.433 21.4827 212.236 21.4373 212.046 21.371L210.91 18.3511H209.932L210.003 17.1886H211.893L213.07 20.3392C213.465 20.3645 213.859 20.2811 214.21 20.0981C214.565 19.8938 214.842 19.5774 214.998 19.1986C215.213 18.6653 215.312 18.0924 215.289 17.5178C215.311 16.9802 215.222 16.4438 215.026 15.9425C214.859 15.5626 214.548 15.2646 214.161 15.1139C213.636 14.928 213.081 14.8435 212.525 14.865C212.121 14.8667 211.719 14.8951 211.319 14.9501C210.905 15.0043 210.496 15.0993 210.1 15.2336V14.0427C210.524 13.9091 210.958 13.8075 211.397 13.7387C211.906 13.6563 212.42 13.6158 212.936 13.6174C214.287 13.6174 215.266 13.9529 215.871 14.624C216.475 15.295 216.778 16.2591 216.778 17.5162C216.803 18.2854 216.634 19.0486 216.288 19.7358C216.004 20.2919 215.57 20.7572 215.035 21.0791C214.5 21.401 213.886 21.5665 213.262 21.5569L213.263 21.5553Z" fill="#4F4B66"/>
<path d="M219.757 21.4135C219.247 21.4135 218.871 21.2859 218.629 21.0307C218.388 20.7755 218.268 20.4116 218.269 19.939V13.7576H219.814V19.5562C219.814 19.9816 220.024 20.1942 220.444 20.1942H221.011V21.4135H219.757ZM223.202 21.4135C222.683 21.4135 222.304 21.2859 222.068 21.0307C221.832 20.7755 221.714 20.4116 221.714 19.939V13.7576H223.245V19.5562C223.245 19.9816 223.455 20.1942 223.875 20.1942H224.456V21.4135H223.202Z" fill="#4F4B66"/>
<path d="M225.934 21.4135V16.5647C225.934 15.6384 226.212 14.9153 226.77 14.3955C227.328 13.8756 228.207 13.6157 229.407 13.6157C230.617 13.6157 231.493 13.8756 232.036 14.3955C232.579 14.9153 232.855 15.6384 232.865 16.5647V21.4135H231.32V16.4229C231.32 15.8842 231.154 15.4898 230.823 15.2399C230.493 14.9899 230.025 14.8644 229.42 14.8634C228.79 14.8634 228.31 14.9889 227.98 15.2399C227.65 15.4909 227.487 15.8852 227.492 16.4229V17.9982C227.911 17.6565 228.439 17.4755 228.98 17.4878H229.902L229.958 18.7213H228.927C228.402 18.7036 227.889 18.8746 227.481 19.2033V21.4087L225.934 21.4135Z" fill="#4F4B66"/>
<path d="M237.153 21.5553C236.666 21.5563 236.181 21.5232 235.699 21.4561C235.304 21.4082 234.916 21.313 234.544 21.1725V19.8823C234.922 20.0294 235.314 20.1387 235.713 20.2084C236.094 20.2803 236.481 20.3182 236.869 20.3219C237.521 20.3219 238.004 20.263 238.315 20.1454C238.627 20.0278 238.785 19.7794 238.788 19.4003C238.797 19.284 238.78 19.1671 238.738 19.0581C238.697 18.9492 238.631 18.8508 238.547 18.7702C238.336 18.6016 238.096 18.4744 237.838 18.3953C237.523 18.2902 237.136 18.16 236.676 18.0046C236.272 17.8667 235.879 17.7009 235.499 17.5084C235.173 17.3488 234.889 17.1159 234.669 16.8278C234.457 16.5253 234.35 16.1618 234.365 15.7929C234.354 15.485 234.418 15.1791 234.551 14.9014C234.684 14.6237 234.883 14.3826 235.13 14.1987C235.641 13.8059 236.411 13.6095 237.441 13.6095C237.873 13.6093 238.304 13.6425 238.731 13.7087C239.087 13.7589 239.438 13.8395 239.78 13.9498V15.2258C239.444 15.0966 239.094 15.0042 238.738 14.9501C238.384 14.8908 238.026 14.8598 237.668 14.8571C237.222 14.8427 236.776 14.9029 236.349 15.0351C236.198 15.08 236.066 15.1753 235.975 15.3054C235.885 15.4354 235.842 15.5924 235.853 15.7503C235.849 15.8573 235.87 15.9638 235.914 16.0612C235.958 16.1586 236.025 16.2442 236.108 16.3111C236.329 16.4744 236.576 16.599 236.838 16.6798L237.98 17.0689C238.417 17.2029 238.839 17.3813 239.24 17.6013C239.553 17.7695 239.818 18.0132 240.012 18.3102C240.2 18.6394 240.291 19.0152 240.275 19.394C240.275 20.1407 239.994 20.6868 239.431 21.0323C238.868 21.3778 238.109 21.5522 237.153 21.5553Z" fill="#4F4B66"/>
<path d="M247.872 21.5552C247.312 21.5643 246.76 21.4275 246.269 21.1582C245.773 20.8667 245.381 20.4256 245.149 19.898C244.875 19.3267 244.738 18.5916 244.738 17.6926C244.738 16.4166 245.064 15.4189 245.717 14.6995C246.369 13.9801 247.347 13.6183 248.651 13.6141C249.53 13.6141 250.239 13.7633 250.778 14.0615C251.278 14.321 251.689 14.7228 251.961 15.2162C252.21 15.6829 252.34 16.2042 252.337 16.7332V21.4119H250.792V16.8057C250.799 16.4598 250.731 16.1166 250.594 15.7991C250.454 15.4995 250.216 15.257 249.919 15.1122C249.513 14.928 249.069 14.8427 248.623 14.8633C247.791 14.8633 247.184 15.1044 246.8 15.5864C246.417 16.0685 246.226 16.7726 246.227 17.6989C246.227 18.6724 246.392 19.3551 246.723 19.7468C247.054 20.1385 247.527 20.3323 248.141 20.3281C248.318 20.3282 248.495 20.3187 248.672 20.2997C248.823 20.2854 248.973 20.2569 249.119 20.2146V21.3914C248.944 21.4515 248.764 21.4943 248.58 21.519C248.345 21.5475 248.108 21.5596 247.872 21.5552V21.5552Z" fill="#4F4B66"/>
<path d="M194.975 21.4131C194.45 21.4131 194.072 21.2855 193.841 21.0303C193.609 20.7751 193.49 20.4112 193.483 19.9386V15.2458C193.469 14.8339 193.557 14.425 193.738 14.0549C193.891 13.7565 194.087 13.4821 194.319 13.2404C194.537 13.0178 194.731 12.8146 194.901 12.6308C195.059 12.4748 195.15 12.2636 195.156 12.0416C195.156 11.7675 195.077 11.5832 194.921 11.4887C194.704 11.3805 194.462 11.3316 194.22 11.3469C193.677 11.3556 193.146 11.502 192.675 11.7723V10.6318C192.981 10.4526 193.313 10.3214 193.659 10.2427C194.015 10.1549 194.379 10.1094 194.745 10.1072C195.416 10.1072 195.917 10.249 196.248 10.5325C196.416 10.6832 196.547 10.8698 196.633 11.0784C196.719 11.287 196.757 11.5124 196.744 11.7376C196.75 12.0108 196.689 12.2814 196.566 12.5253C196.448 12.7475 196.303 12.9543 196.134 13.1412C195.964 13.3302 195.794 13.524 195.624 13.7225C195.451 13.9248 195.305 14.1488 195.191 14.3888C195.065 14.6696 195.005 14.9748 195.014 15.282V19.5495C194.995 19.7263 195.038 19.9042 195.134 20.0536C195.214 20.1434 195.383 20.1875 195.638 20.1875H196.29V21.4068L194.975 21.4131Z" fill="#4F4B66"/>
<path d="M201.015 12.5951V11.2907H199.895V10.2274H202.078V11.5176H205.14L205.084 12.5951H201.015Z" fill="#4F4B66"/>
<path d="M207.366 21.4136C206.846 21.4136 206.468 21.286 206.232 21.0308C205.996 20.7756 205.877 20.4117 205.877 19.9391V15.2463C205.864 14.8344 205.952 14.4255 206.133 14.0554C206.286 13.7573 206.482 13.483 206.714 13.2409C206.931 13.0183 207.125 12.8151 207.295 12.6313C207.451 12.4773 207.543 12.2693 207.55 12.05C207.55 11.7759 207.472 11.5916 207.316 11.4971C207.099 11.3889 206.857 11.34 206.615 11.3553C206.072 11.364 205.54 11.5104 205.069 11.7806V10.6322C205.376 10.4531 205.708 10.3219 206.054 10.2431C206.409 10.1554 206.773 10.1099 207.139 10.1077C207.81 10.1077 208.311 10.2494 208.642 10.533C208.81 10.6837 208.942 10.8703 209.028 11.0789C209.114 11.2875 209.152 11.5128 209.138 11.7381C209.145 12.0113 209.084 12.2819 208.96 12.5257C208.842 12.7479 208.697 12.9548 208.529 13.1417C208.359 13.3307 208.188 13.5245 208.018 13.723C207.845 13.9252 207.7 14.1493 207.585 14.3893C207.46 14.67 207.4 14.9753 207.409 15.2825V19.55C207.39 19.7268 207.432 19.9047 207.528 20.0541C207.609 20.1439 207.777 20.188 208.032 20.188H208.685V21.4073L207.366 21.4136Z" fill="#4F4B66"/>
<path d="M236.615 12.5951V10.5251H240.783L240.727 11.6027H237.891V12.5951H236.615Z" fill="#4F4B66"/>
<path d="M250.608 25.1139C250.089 25.1139 249.68 24.9984 249.381 24.7674C249.244 24.6704 249.131 24.5419 249.054 24.3924C248.976 24.243 248.936 24.0772 248.936 23.9088V23.1858H248.17L248.227 22.2217H250.037V23.6536C250.037 23.9687 250.226 24.1262 250.604 24.1262C250.982 24.1262 251.176 23.9687 251.185 23.6536V22.2217H252.305V23.7529C252.306 23.9335 252.268 24.1122 252.195 24.2773C252.122 24.4424 252.014 24.5901 251.88 24.7106C251.596 24.9805 251.172 25.115 250.608 25.1139Z" fill="#4F4B66"/>
<path d="M255.613 21.4135C255.102 21.4135 254.726 21.2859 254.485 21.0307C254.243 20.7755 254.123 20.4116 254.124 19.939V13.7576H255.669V19.5562C255.669 19.9816 255.879 20.1942 256.3 20.1942H256.867V21.4135H255.613ZM259.058 21.4135C258.538 21.4135 258.16 21.2859 257.924 21.0307C257.687 20.7755 257.569 20.4116 257.569 19.939V13.7576H259.1V19.5562C259.1 19.9816 259.31 20.1942 259.731 20.1942H260.312V21.4135H259.058Z" fill="#4F4B66"/>
<path d="M264.161 21.5552C263.713 21.5617 263.268 21.4825 262.849 21.3221C262.465 21.1738 262.135 20.9116 261.904 20.5707C261.651 20.1655 261.527 19.693 261.549 19.2159C261.549 18.4692 261.802 17.8879 262.307 17.4721C262.812 17.0562 263.552 16.8461 264.527 16.8419H266.866V16.3662C266.866 15.8085 266.726 15.4189 266.447 15.1973C266.168 14.9757 265.65 14.8644 264.895 14.8634C264.466 14.8623 264.037 14.8908 263.611 14.9484C263.2 15.0053 262.794 15.1003 262.4 15.232V14.0411C262.819 13.9064 263.248 13.8047 263.682 13.737C264.168 13.6566 264.659 13.616 265.151 13.6157C266.266 13.6157 267.088 13.8499 267.617 14.3183C268.147 14.7867 268.409 15.5166 268.405 16.508V21.4135H266.86V18.036H264.62C264.095 18.036 263.695 18.1237 263.421 18.2991C263.147 18.4745 263.012 18.779 263.018 19.2128C263.018 19.6328 263.138 19.9211 263.378 20.0776C263.619 20.2341 264.014 20.3144 264.563 20.3186C264.893 20.3245 265.222 20.2863 265.541 20.2052V21.3819C265.334 21.4348 265.123 21.4753 264.911 21.5032C264.663 21.5375 264.412 21.5549 264.161 21.5552Z" fill="#4F4B66"/>
<path d="M270.199 21.4135V16.5647C270.199 15.6384 270.478 14.9153 271.036 14.3955C271.593 13.8756 272.472 13.6157 273.673 13.6157C274.883 13.6157 275.759 13.8756 276.302 14.3955C276.845 14.9153 277.117 15.6384 277.118 16.5647V21.4135H275.573V16.4229C275.573 15.8842 275.407 15.4898 275.076 15.2399C274.746 14.9899 274.278 14.8644 273.673 14.8634C273.043 14.8634 272.563 14.9889 272.233 15.2399C271.903 15.4909 271.74 15.8852 271.745 16.4229V17.9982C272.164 17.6565 272.692 17.4755 273.233 17.4878H274.155L274.211 18.7213H273.192C272.668 18.7036 272.155 18.8746 271.746 19.2033V21.4087L270.199 21.4135Z" fill="#4F4B66"/>
<path d="M281.417 21.5553C280.93 21.5563 280.444 21.5232 279.963 21.4561C279.568 21.4082 279.18 21.313 278.808 21.1725V19.8823C279.186 20.0294 279.577 20.1387 279.977 20.2084C280.358 20.2803 280.745 20.3182 281.133 20.3219C281.785 20.3219 282.267 20.263 282.579 20.1454C282.891 20.0278 283.049 19.7794 283.052 19.4003C283.061 19.284 283.044 19.1671 283.002 19.0581C282.96 18.9492 282.895 18.8508 282.811 18.7702C282.6 18.6016 282.36 18.4744 282.102 18.3953C281.787 18.2902 281.399 18.16 280.939 18.0046C280.536 17.8667 280.143 17.7009 279.762 17.5084C279.437 17.3488 279.153 17.1159 278.932 16.8278C278.721 16.5253 278.614 16.1618 278.628 15.7929C278.617 15.485 278.681 15.1791 278.815 14.9014C278.948 14.6237 279.147 14.3826 279.394 14.1987C279.904 13.8059 280.675 13.6095 281.705 13.6095C282.137 13.6093 282.568 13.6425 282.995 13.7087C283.351 13.7587 283.702 13.8393 284.044 13.9498V15.2258C283.707 15.0966 283.358 15.0042 283.001 14.9501C282.648 14.8908 282.29 14.8598 281.932 14.8571C281.485 14.8427 281.04 14.9029 280.613 15.0351C280.461 15.08 280.329 15.1753 280.239 15.3054C280.149 15.4354 280.106 15.5924 280.117 15.7503C280.112 15.8573 280.133 15.9638 280.178 16.0612C280.222 16.1586 280.289 16.2442 280.372 16.3111C280.593 16.4744 280.839 16.599 281.101 16.6798L282.244 17.0689C282.681 17.2029 283.103 17.3813 283.504 17.6013C283.816 17.7695 284.082 18.0132 284.276 18.3102C284.464 18.6394 284.555 19.0152 284.539 19.394C284.539 20.1407 284.257 20.6868 283.694 21.0323C283.132 21.3778 282.372 21.5522 281.417 21.5553Z" fill="#4F4B66"/>
<path d="M289.54 21.5553C288.444 21.5553 287.586 21.2954 286.966 20.7755C286.346 20.2557 286.037 19.4759 286.038 18.4362V13.7576H287.583V18.4929C287.583 19.123 287.751 19.5862 288.086 19.8823C288.421 20.1785 288.906 20.325 289.54 20.3218C290.183 20.3218 290.672 20.1753 291.007 19.8823C291.342 19.5893 291.51 19.1262 291.511 18.4929V13.7576H293.042V18.4362C293.042 19.4759 292.735 20.2557 292.12 20.7755C291.506 21.2954 290.646 21.5553 289.54 21.5553Z" fill="#4F4B66"/>
</g>
<defs>
<linearGradient id="paint0_linear" x1="31.8599" y1="3.84826" x2="12.1034" y2="26.4082" gradientUnits="userSpaceOnUse">
<stop stop-color="#F58124"/>
<stop offset="0.26" stop-color="#F7921E"/>
<stop offset="0.29" stop-color="#F7941D"/>
<stop offset="0.71" stop-color="#FBB040"/>
</linearGradient>
<linearGradient id="paint1_linear" x1="-1.15226" y1="6.52264" x2="17.4718" y2="24.5974" gradientUnits="userSpaceOnUse">
<stop offset="0.08" stop-color="#FBB040"/>
<stop offset="0.47" stop-color="#F7941D"/>
<stop offset="0.51" stop-color="#F7921E"/>
<stop offset="0.9" stop-color="#F58124"/>
</linearGradient>
<clipPath id="clip0">
<rect width="100.364" height="15" fill="white" transform="translate(192.678 10.1139)"/>
</clipPath>
</defs>
</svg>
