<svg width="301" height="27" viewBox="0 0 301 27" fill="none" xmlns="http://www.w3.org/2000/svg">
<path d="M11.3338 25.9912C7.07088 23.1657 7.35604 15.2892 11.964 8.39274C16.572 1.4963 23.7656 -1.80252 28.019 1.01821C32.2723 3.83893 31.9967 11.7226 27.3863 18.6191C22.7759 25.5155 15.5872 28.8119 11.3314 25.9912" fill="url(#paint0_linear)"/>
<path d="M18.4504 25.8383C21.9489 23.0797 21.1366 16.2598 16.6389 10.604C12.1411 4.94817 5.66401 2.59836 2.17027 5.34499C-1.32347 8.09161 -0.51355 14.9211 3.98422 20.5793C8.48199 26.2375 14.9591 28.5849 18.4504 25.8383Z" fill="url(#paint1_linear)"/>
<path d="M112.508 24.8749H34.1934V26.9905H112.508V24.8749Z" fill="#F7941D"/>
<path d="M51.4373 6.22961C46.8844 6.22961 43.29 9.75552 43.29 14.2543C43.29 18.6217 46.6664 22.1763 50.8119 22.1763C52.2257 22.1763 53.0955 21.8918 54.2769 21.0384L55.2929 20.3213V21.7556H59.448V14.5842C59.448 9.74835 56.0741 6.2344 51.4325 6.2344L51.4373 6.22961ZM51.375 18.0169C50.6167 18.0169 49.8754 17.7926 49.2449 17.3723C48.6144 16.9521 48.123 16.3547 47.8328 15.6558C47.5426 14.957 47.4667 14.1879 47.6147 13.446C47.7626 12.7041 48.1278 12.0226 48.6639 11.4877C49.2001 10.9528 49.8833 10.5885 50.627 10.441C51.3708 10.2934 52.1416 10.3691 52.8422 10.6586C53.5428 10.9481 54.1416 11.4383 54.5629 12.0673C54.9841 12.6963 55.209 13.4357 55.209 14.1922C55.209 15.2066 54.8051 16.1794 54.0861 16.8967C53.367 17.6139 52.3919 18.0169 51.375 18.0169Z" fill="#F7941D"/>
<path d="M70.107 6.22951C68.883 6.22931 67.687 6.59482 66.6731 7.27891L65.626 7.92433V0H61.5068V13.7283C61.5068 18.6216 64.8784 22.1762 69.5199 22.1762C74.0728 22.1762 77.6672 18.6407 77.6672 14.1228C77.6672 9.84386 74.2022 6.23429 70.1142 6.23429L70.107 6.22951ZM69.587 18.0168C68.8287 18.0168 68.0874 17.7925 67.4569 17.3722C66.8264 16.952 66.335 16.3546 66.0448 15.6557C65.7546 14.9569 65.6787 14.1878 65.8267 13.4459C65.9746 12.704 66.3398 12.0225 66.8759 11.4876C67.4121 10.9527 68.0953 10.5884 68.839 10.4409C69.5827 10.2933 70.3536 10.369 71.0542 10.6585C71.7548 10.948 72.3536 11.4382 72.7749 12.0672C73.1961 12.6962 73.421 13.4356 73.421 14.1921C73.421 15.2065 73.0171 16.1793 72.2981 16.8966C71.579 17.6138 70.6038 18.0168 69.587 18.0168Z" fill="#F7941D"/>
<path d="M87.9837 6.22951C86.7625 6.22799 85.5691 6.59369 84.5594 7.27891L83.5075 7.92433V0H79.3955V13.7283C79.3955 18.6216 82.7502 22.1762 87.399 22.1762C91.9519 22.1762 95.5462 18.6407 95.5462 14.1228C95.5462 9.84386 92.0957 6.23429 87.9933 6.23429L87.9837 6.22951ZM87.4733 18.0168C86.715 18.0168 85.9737 17.7925 85.3432 17.3722C84.7127 16.952 84.2213 16.3546 83.9311 15.6557C83.6409 14.9569 83.565 14.1878 83.7129 13.4459C83.8609 12.704 84.226 12.0225 84.7622 11.4876C85.2984 10.9527 85.9816 10.5884 86.7253 10.4409C87.469 10.2933 88.2399 10.369 88.9405 10.6585C89.6411 10.948 90.2398 11.4382 90.6611 12.0672C91.0824 12.6962 91.3073 13.4356 91.3073 14.1921C91.3073 15.2065 90.9033 16.1793 90.1843 16.8966C89.4653 17.6138 88.4901 18.0168 87.4733 18.0168Z" fill="#F7941D"/>
<path d="M101.791 6.65247H97.5381V21.7481H101.791V6.65247Z" fill="#F7941D"/>
<path d="M112.533 10.31V6.72436H108.373V0.00720215H104.256V15.8583C104.256 18.4041 104.735 19.6639 106.094 20.6894C107.273 21.538 108.25 21.7555 110.795 21.7555H112.533V18.1364H111.253C109.017 18.1364 108.377 17.5244 108.377 15.428V10.31H112.533Z" fill="#F7941D"/>
<path d="M42.188 6.22961C37.544 6.22961 34.1797 9.74357 34.1797 14.5795V21.7508H38.33V15.0575C38.33 12.0743 39.7821 10.3029 42.2167 10.3029C42.263 10.3004 42.3094 10.3004 42.3557 10.3029L42.4755 10.3173V6.24157H42.3605C42.2999 6.23716 42.239 6.23716 42.1784 6.24157" fill="#F7941D"/>
<path d="M130.569 18.1889L126.927 16.0925C126.51 16.8133 125.867 17.3767 125.096 17.6953C124.326 18.0139 123.471 18.07 122.666 17.8548C121.86 17.6396 121.148 17.1651 120.64 16.505C120.132 15.845 119.857 15.0361 119.857 14.2041C119.857 13.372 120.132 12.5632 120.64 11.9031C121.148 11.243 121.86 10.7686 122.666 10.5534C123.471 10.3382 124.326 10.3942 125.096 10.7129C125.867 11.0315 126.51 11.5949 126.927 12.3156L130.569 10.2192C129.69 8.69912 128.332 7.51102 126.707 6.83918C125.082 6.16733 123.279 6.04931 121.58 6.5034C119.881 6.9575 118.379 7.95833 117.308 9.35067C116.237 10.743 115.656 12.449 115.656 14.2041C115.656 15.9591 116.237 17.6651 117.308 19.0575C118.379 20.4498 119.881 21.4507 121.58 21.9048C123.279 22.3589 125.082 22.2408 126.707 21.569C128.332 20.8971 129.69 19.709 130.569 18.1889Z" fill="#005098"/>
<path d="M139.368 6.22961C134.815 6.22961 131.221 9.75552 131.221 14.2543C131.221 18.6217 134.597 22.1763 138.745 22.1763C140.156 22.1763 141.026 21.8918 142.21 21.0384L143.226 20.3213V21.7556H147.381V14.5842C147.381 9.74835 144.007 6.2344 139.366 6.2344L139.368 6.22961ZM139.306 18.0169C138.547 18.0169 137.806 17.7926 137.176 17.3723C136.545 16.9521 136.054 16.3547 135.764 15.6558C135.473 14.957 135.397 14.1879 135.545 13.446C135.693 12.7041 136.058 12.0226 136.595 11.4877C137.131 10.9528 137.814 10.5885 138.558 10.441C139.301 10.2934 140.072 10.3691 140.773 10.6586C141.473 10.9481 142.072 11.4383 142.494 12.0673C142.915 12.6963 143.14 13.4357 143.14 14.1922C143.14 15.2066 142.736 16.1794 142.017 16.8967C141.298 17.6139 140.323 18.0169 139.306 18.0169Z" fill="#005098"/>
<path d="M156.875 6.22961C152.231 6.22961 148.866 9.74357 148.866 14.5795V21.7508H153.017V15.0575C153.017 12.0743 154.469 10.3029 156.903 10.3029C156.95 10.3004 156.996 10.3004 157.042 10.3029L157.162 10.3173V6.24157H157.057C156.996 6.23716 156.935 6.23716 156.875 6.24157" fill="#005098"/>
<path d="M173.483 15.9515C173.611 15.3778 173.677 14.7919 173.677 14.2041C173.677 12.3097 173 10.4774 171.768 9.03557C170.536 7.59374 168.83 6.63662 166.955 6.33572C165.08 6.03482 163.159 6.40981 161.536 7.39349C159.913 8.37718 158.695 9.90525 158.098 11.7039C157.502 13.5026 157.568 15.4542 158.283 17.2091C158.998 18.9641 160.316 20.4076 162.001 21.281C163.687 22.1544 165.629 22.4006 167.479 21.9755C169.33 21.5504 170.968 20.4818 172.101 18.9611L168.643 16.5826C168.247 17.07 167.737 17.4516 167.157 17.693C166.576 17.9344 165.945 18.0281 165.32 17.9655C164.694 17.9029 164.094 17.686 163.574 17.3344C163.053 16.9829 162.629 16.5076 162.338 15.9515H173.495H173.483ZM162.329 12.4519C162.65 11.8415 163.132 11.3304 163.723 10.9737C164.315 10.6171 164.992 10.4285 165.683 10.4285C166.374 10.4285 167.052 10.6171 167.644 10.9737C168.235 11.3304 168.717 11.8415 169.038 12.4519H162.329Z" fill="#005098"/>
<g clip-path="url(#clip0)">
<path d="M193.32 13.4417C193.729 12.6924 194.341 12.073 195.084 11.6543C195.832 11.218 196.684 10.9919 197.549 11.0001C198.536 10.9767 199.507 11.2449 200.341 11.7711C201.144 12.2954 201.755 13.0661 202.082 13.9674H200.552C200.312 13.4027 199.904 12.9255 199.384 12.6005C198.829 12.272 198.194 12.106 197.549 12.1216C196.906 12.115 196.273 12.2803 195.715 12.6005C195.17 12.9216 194.729 13.3918 194.442 13.9557C194.122 14.5932 193.962 15.2987 193.975 16.0118C193.963 16.7172 194.123 17.4149 194.442 18.0445C194.729 18.6083 195.17 19.0785 195.715 19.3996C196.273 19.7198 196.906 19.8852 197.549 19.8786C198.193 19.8983 198.828 19.7364 199.384 19.4113C199.901 19.0877 200.308 18.6153 200.552 18.0562H202.082C201.754 18.9479 201.143 19.7072 200.341 20.2174C199.507 20.7436 198.536 21.0118 197.549 20.9884C196.685 21.0007 195.833 20.7786 195.084 20.3459C194.344 19.9283 193.733 19.3137 193.32 18.5702C192.899 17.7811 192.679 16.9004 192.679 16.0059C192.679 15.1114 192.899 14.2307 193.32 13.4417V13.4417Z" fill="#4F4B66"/>
<path d="M205.925 20.3571C205.182 19.9383 204.568 19.3242 204.15 18.5814C203.72 17.7928 203.495 16.9092 203.495 16.0113C203.495 15.1134 203.72 14.2297 204.15 13.4412C204.567 12.694 205.181 12.0758 205.925 11.6538C206.689 11.2397 207.545 11.0228 208.414 11.0228C209.283 11.0228 210.138 11.2397 210.902 11.6538C211.64 12.0743 212.25 12.6882 212.666 13.4295C213.087 14.2248 213.308 15.1112 213.308 16.0113C213.308 16.9113 213.087 17.7977 212.666 18.593C212.249 19.33 211.639 19.9398 210.902 20.3571C210.14 20.7784 209.284 20.9995 208.414 20.9995C207.543 20.9995 206.687 20.7784 205.925 20.3571V20.3571ZM210.248 19.4108C210.799 19.0936 211.245 18.6227 211.533 18.0557C211.845 17.4172 212.007 16.716 212.007 16.0054C212.007 15.2949 211.845 14.5937 211.533 13.9552C211.246 13.3913 210.804 12.9211 210.259 12.6C209.694 12.2785 209.053 12.1131 208.402 12.1211C207.755 12.1112 207.117 12.2767 206.556 12.6C206.008 12.9204 205.562 13.3905 205.271 13.9552C204.963 14.5949 204.804 15.2956 204.804 16.0054C204.804 16.7152 204.963 17.416 205.271 18.0557C205.566 18.6178 206.01 19.0869 206.556 19.4108C207.121 19.7249 207.756 19.8897 208.402 19.8897C209.048 19.8897 209.683 19.7249 210.248 19.4108Z" fill="#4F4B66"/>
<path d="M224.909 11.1989V20.9068H223.624V13.6638L220.4 20.9068H219.547L216.3 13.6521V20.9068H214.991V11.1989H216.37L219.956 19.2245L223.543 11.1989H224.909Z" fill="#4F4B66"/>
<path d="M232.76 16.0117C232.05 16.6061 231.135 16.8959 230.213 16.8178H228.344V20.9066H227.059V11.1286H230.213C231.127 11.0568 232.033 11.3462 232.736 11.9346C233.006 12.2009 233.221 12.5183 233.367 12.8682C233.514 13.2182 233.589 13.5938 233.589 13.9732C233.589 14.3526 233.514 14.7281 233.367 15.0781C233.221 15.4281 233.006 15.7454 232.736 16.0117H232.76ZM231.79 15.3108C231.963 15.1394 232.097 14.9329 232.184 14.7052C232.271 14.4775 232.308 14.2338 232.292 13.9907C232.292 12.8225 231.603 12.18 230.213 12.18H228.344V15.7664H230.213C230.776 15.8103 231.337 15.6484 231.79 15.3108V15.3108Z" fill="#4F4B66"/>
<path d="M236.45 19.8666H239.873V20.9063H235.2V11.1283H236.474L236.45 19.8666Z" fill="#4F4B66"/>
<path d="M242.514 12.1682V15.4976H246.077V16.549H242.514V19.9135H246.497V20.9649H241.24V11.1752H246.497V12.2266L242.514 12.1682Z" fill="#4F4B66"/>
<path d="M254.442 11.1283V12.168H251.779V20.9063H250.505V12.168H247.83V11.1283H254.442Z" fill="#4F4B66"/>
<path d="M257.293 12.1682V15.4976H260.798V16.549H257.293V19.9135H261.265V20.9649H256.008V11.1752H261.265V12.2266L257.293 12.1682Z" fill="#4F4B66"/>
<path d="M267.117 13.4414C267.525 12.6951 268.132 12.0765 268.87 11.654C269.622 11.2189 270.477 10.993 271.346 10.9998C272.332 10.9778 273.303 11.2459 274.138 11.7708C274.941 12.2951 275.552 13.0658 275.879 13.9671H274.349C274.105 13.4048 273.698 12.9286 273.18 12.6003C272.626 12.2717 271.991 12.1057 271.346 12.1213C270.703 12.113 270.069 12.2785 269.512 12.6003C268.967 12.9213 268.525 13.3915 268.239 13.9554C267.914 14.591 267.753 15.2979 267.772 16.0115C267.754 16.7175 267.915 17.4166 268.239 18.0442C268.525 18.608 268.967 19.0782 269.512 19.3993C270.069 19.7211 270.703 19.8866 271.346 19.8783C271.989 19.898 272.625 19.7361 273.18 19.411C273.695 19.0841 274.101 18.6127 274.349 18.0559H275.879C275.551 18.9476 274.94 19.7069 274.138 20.2171C273.303 20.742 272.332 21.0101 271.346 20.9881C270.478 20.999 269.623 20.7771 268.87 20.3456C268.135 19.9234 267.53 19.3097 267.117 18.5699C266.696 17.7808 266.476 16.9001 266.476 16.0056C266.476 15.1111 266.696 14.2304 267.117 13.4414V13.4414Z" fill="#4F4B66"/>
<path d="M283.542 18.7334H279.278L278.495 20.9063H277.151L280.656 11.1866H282.128L285.633 20.9063H284.278L283.542 18.7334ZM283.179 17.6937L281.462 12.7521L279.698 17.6937H283.179Z" fill="#4F4B66"/>
<path d="M292.363 20.9064L290.026 16.9111H288.473V20.9064H287.199V11.1284H290.353C290.998 11.1094 291.638 11.2414 292.223 11.5139C292.705 11.7283 293.112 12.0823 293.391 12.5302C293.643 12.9795 293.772 13.4872 293.765 14.0022C293.774 14.6464 293.569 15.2753 293.181 15.7896C292.746 16.3324 292.126 16.6946 291.44 16.8059L293.893 20.9064H292.363ZM288.496 15.883H290.377C290.942 15.9233 291.501 15.7385 291.931 15.369C292.105 15.1882 292.24 14.9736 292.328 14.7386C292.417 14.5036 292.456 14.253 292.445 14.0022C292.461 13.7544 292.424 13.506 292.335 13.2741C292.246 13.0421 292.108 12.8322 291.931 12.6588C291.492 12.3073 290.937 12.136 290.377 12.1798H288.473L288.496 15.883Z" fill="#4F4B66"/>
<path d="M297.012 12.1682V15.4976H300.575V16.549H297.012V19.9135H300.995V20.9649H295.738V11.1752H300.995V12.2266L297.012 12.1682Z" fill="#4F4B66"/>
</g>
<defs>
<linearGradient id="paint0_linear" x1="31.8599" y1="3.84826" x2="12.1034" y2="26.4082" gradientUnits="userSpaceOnUse">
<stop stop-color="#F58124"/>
<stop offset="0.26" stop-color="#F7921E"/>
<stop offset="0.29" stop-color="#F7941D"/>
<stop offset="0.71" stop-color="#FBB040"/>
</linearGradient>
<linearGradient id="paint1_linear" x1="-1.15226" y1="6.52264" x2="17.4718" y2="24.5974" gradientUnits="userSpaceOnUse">
<stop offset="0.08" stop-color="#FBB040"/>
<stop offset="0.47" stop-color="#F7941D"/>
<stop offset="0.51" stop-color="#F7921E"/>
<stop offset="0.9" stop-color="#F58124"/>
</linearGradient>
<clipPath id="clip0">
<rect width="108.318" height="10" fill="white" transform="translate(192.678 11)"/>
</clipPath>
</defs>
</svg>
