<svg width="424" height="283" viewBox="0 0 424 283" fill="none" xmlns="http://www.w3.org/2000/svg">
<path d="M366.24 243.469C426.532 153.239 430.231 50.1327 374.539 13.2022C322.946 -21.0333 238.358 13.6015 178.266 90.6564C127.773 53.3267 72.2801 43.2457 38.3847 69.9953C-7.30912 106.127 3.28944 195.26 62.0815 269.32C64.9811 273.013 67.9807 276.507 70.9803 280H337.744C347.743 268.921 357.341 256.744 366.24 243.469Z" fill="#F2F3FA"/>
<path d="M310.66 227.1C309.46 227.1 308.46 226.5 308.46 225.8V120C308.46 119.3 309.46 118.7 310.66 118.7C311.86 118.7 312.86 119.3 312.86 120V225.7C312.96 226.5 311.96 227.1 310.66 227.1Z" fill="#E9EDF5"/>
<path d="M310.66 141C310.36 141 309.96 140.9 309.76 140.6L300.56 131.9C300.06 131.4 299.96 130.5 300.46 130C300.96 129.5 301.86 129.4 302.36 129.9L311.56 138.6C312.06 139.1 312.16 140 311.66 140.5C311.36 140.8 311.06 141 310.66 141Z" fill="#E9EDF5"/>
<path d="M310.66 157.1C310.36 157.1 310.06 157 309.86 156.8C309.26 156.4 309.16 155.5 309.56 154.9L319.66 141.2C320.06 140.6 320.96 140.5 321.56 140.9C322.16 141.3 322.26 142.2 321.86 142.8L311.76 156.6C311.46 157 311.06 157.1 310.66 157.1Z" fill="#E9EDF5"/>
<path d="M310.96 185.6C310.86 185.6 310.76 185.6 310.66 185.6C310.16 185.5 297.66 182.6 293.16 167.6C288.76 153 297.66 102.2 306.76 89.9C307.96 88.3 309.06 87.4 310.26 87.1C310.46 87 310.66 87 310.86 87H311.26C311.46 87 311.66 87 311.86 87.1C313.06 87.4 314.26 88.3 315.36 89.9C324.46 102.1 333.26 152.9 328.96 167.6C324.46 182.6 311.96 185.5 311.46 185.6C311.16 185.6 311.06 185.6 310.96 185.6Z" fill="#E9EDF5"/>
<path d="M127.936 186.1C126.836 186.1 126.036 185.5 126.036 184.8V79C126.036 78.3 126.936 77.7 127.936 77.7C128.936 77.7 129.836 78.3 129.836 79V184.7C129.836 185.5 128.936 186.1 127.936 186.1Z" fill="#E9EDF5"/>
<path d="M127.936 100C127.636 100 127.236 99.9 127.036 99.6L117.836 90.9C117.336 90.4 117.236 89.5 117.736 89C118.236 88.5 119.136 88.4 119.636 88.9L128.836 97.6C129.336 98.1 129.436 99 128.936 99.5C128.636 99.9 128.236 100 127.936 100Z" fill="#E9EDF5"/>
<path d="M127.936 116.1C127.636 116.1 127.336 116 127.136 115.8C126.536 115.4 126.436 114.5 126.836 113.9L136.936 100.2C137.336 99.6 138.236 99.5 138.836 99.9C139.436 100.3 139.536 101.2 139.136 101.8L129.036 115.6C128.736 116 128.336 116.1 127.936 116.1Z" fill="#E9EDF5"/>
<path d="M128.136 144.6C128.036 144.6 127.936 144.6 127.836 144.6C127.336 144.5 114.836 141.6 110.336 126.6C105.936 112 114.836 61.2 123.936 48.9C125.136 47.3 126.236 46.4 127.436 46.1C127.636 46 127.836 46 128.036 46H128.436C128.636 46 128.836 46 129.036 46.1C130.236 46.4 131.436 47.3 132.536 48.9C141.636 61.1 150.436 111.9 146.136 126.6C141.636 141.6 129.136 144.5 128.636 144.6C128.336 144.6 128.236 144.6 128.136 144.6Z" fill="#E9EDF5"/>
<path d="M91.1363 250.9C89.6363 250.9 88.3363 250.1 88.3363 249.2V136.2C88.3363 135.3 89.5363 134.5 91.1363 134.5C92.6363 134.5 93.9363 135.3 93.9363 136.2V249.2C93.9363 250.1 92.6363 250.9 91.1363 250.9Z" fill="#E9EDF5"/>
<path d="M91.1363 131.5C90.7363 131.5 90.3363 131.3 89.9363 131L78.3363 120.1C77.6363 119.5 77.6363 118.4 78.2363 117.7C78.8363 117 79.9363 117 80.6363 117.6L92.3363 128.6C93.0363 129.2 93.0363 130.3 92.4363 131C92.0363 131.3 91.6363 131.5 91.1363 131.5Z" fill="#E9EDF5"/>
<path d="M91.1363 151.9C90.7363 151.9 90.4363 151.8 90.1363 151.6C89.3363 151 89.2363 150 89.7363 149.2L102.436 132C103.036 131.2 104.036 131.1 104.836 131.6C105.636 132.2 105.736 133.2 105.236 134L92.5363 151.2C92.1363 151.6 91.6363 151.9 91.1363 151.9Z" fill="#E9EDF5"/>
<path d="M91.4363 187.7C91.3363 187.7 91.2363 187.7 91.0363 187.7C90.3363 187.6 74.6363 183.9 68.9363 165.1C63.4363 146.7 74.5363 82.7 86.0363 67.3C87.5363 65.3 88.9363 64.2 90.4363 63.8C90.6363 63.7 90.9363 63.6 91.1363 63.6H91.6363C91.9363 63.6 92.1363 63.7 92.3363 63.8C93.8363 64.2 95.3363 65.4 96.7363 67.3C108.136 82.7 119.336 146.6 113.836 165.1C108.136 183.9 92.4363 187.6 91.7363 187.7C91.7363 187.6 91.6363 187.7 91.4363 187.7Z" fill="#E9EDF5"/>
<path d="M134.336 276.827C134.336 276.827 111.236 214.927 82.5364 222.127C59.3364 227.927 75.8364 259.027 74.4364 257.627C73.0364 256.227 60.5364 235.127 40.4364 235.127C20.3364 235.127 46.6364 263.627 46.6364 263.627C46.6364 263.627 3.73639 250.127 0.336388 264.227C-2.46361 275.927 13.1364 276.827 13.1364 276.827H134.336Z" fill="#E9EDF5"/>
<path d="M65.8363 247.427C51.7363 234.927 44.6363 216.927 41.2363 204.127C37.5363 190.127 37.1363 179.027 37.1363 178.927H36.3363C36.3363 179.027 36.7363 190.227 40.4363 204.327C43.9363 217.327 51.0363 235.427 65.3363 248.127L65.8363 247.427Z" fill="#E9EDF5"/>
<path d="M38.8363 175.627C39.4363 178.827 38.8363 181.827 37.3363 184.027C35.0363 182.327 33.2363 179.627 32.5363 176.427C31.9363 173.227 32.5363 170.227 34.0363 168.027C36.4363 169.727 38.2363 172.427 38.8363 175.627Z" fill="#E9EDF5"/>
<path d="M34.3363 184.727C36.7363 187.027 38.1363 189.927 38.3363 192.727C35.6363 192.827 32.6363 191.727 30.2363 189.527C27.8363 187.227 26.4363 184.327 26.2363 181.527C28.9363 181.427 31.9363 182.527 34.3363 184.727Z" fill="#E9EDF5"/>
<path d="M32.9364 194.327C36.0364 195.227 38.4364 197.327 39.9364 199.927C37.6364 201.327 34.7364 201.727 31.6364 200.727C28.5364 199.827 26.1364 197.727 24.6364 195.127C26.9364 193.827 29.9364 193.427 32.9364 194.327Z" fill="#E9EDF5"/>
<path d="M37.5363 205.927C39.9363 206.727 41.8363 208.627 42.9363 211.027C41.0363 212.527 38.6363 213.127 36.2363 212.327C33.8363 211.527 31.9363 209.627 30.8363 207.227C32.6363 205.727 35.0363 205.227 37.5363 205.927Z" fill="#E9EDF5"/>
<path d="M41.9364 189.427C43.8364 187.527 46.4364 186.727 48.8364 187.027C48.9364 189.527 47.9364 192.127 46.0364 194.027C44.1364 195.927 41.5364 196.727 39.1364 196.427C39.0364 193.927 40.0364 191.327 41.9364 189.427Z" fill="#E9EDF5"/>
<path d="M44.0364 197.727C45.9364 195.827 48.5364 195.027 50.9364 195.327C51.0364 197.827 50.0364 200.427 48.1364 202.327C46.2364 204.227 43.6364 205.027 41.2364 204.727C41.1364 202.227 42.0364 199.627 44.0364 197.727Z" fill="#E9EDF5"/>
<path d="M61.2242 259.526C45.3488 255.499 33.3041 243.557 26.0167 234.258C18.1423 224.162 13.9948 214.834 13.911 214.721L13.2577 215.026C13.3416 215.14 17.4891 224.468 25.4474 234.677C32.8187 244.09 44.9471 256.146 61.0203 260.203L61.2242 259.526Z" fill="#E9EDF5"/>
<path d="M14.2383 211.23C15.8856 213.705 16.3704 216.51 15.8814 219.065C13.4097 218.69 11.0042 217.213 9.34188 214.836C7.67958 212.46 7.20986 209.557 7.69881 207.001C10.1705 207.376 12.576 208.854 14.2383 211.23Z" fill="#E9EDF5"/>
<path d="M13.6428 221.153C16.465 221.885 18.5977 223.827 19.7657 226.128C17.6321 227.524 14.8277 228.008 12.0205 227.178C9.19835 226.446 7.06557 224.504 5.89762 222.203C8.13003 220.822 10.9345 220.338 13.6428 221.153Z" fill="#E9EDF5"/>
<path d="M15.858 229.884C18.6775 229.301 21.4158 229.918 23.5247 231.351C22.1759 233.574 19.8835 235.35 17.064 235.934C14.2446 236.517 11.5063 235.899 9.39734 234.467C10.7461 232.244 13.0235 230.567 15.858 229.884Z" fill="#E9EDF5"/>
<path d="M22.109 238.014C24.9284 237.431 27.6667 238.048 29.7757 239.481C28.4269 241.704 26.1345 243.48 23.315 244.064C20.4955 244.647 17.7572 244.029 15.6483 242.597C16.9971 240.374 19.2895 238.598 22.109 238.014Z" fill="#E9EDF5"/>
<path d="M20.3862 224.705C20.2969 221.961 21.1814 219.465 22.7667 217.683C24.4652 219.154 25.5343 221.44 25.6235 224.185C25.7128 226.929 24.8283 229.425 23.243 231.207C21.6434 229.751 20.4755 227.449 20.3862 224.705Z" fill="#E9EDF5"/>
<path d="M26.9038 233.078C26.7157 230.318 27.6001 227.823 29.2005 225.941C30.8989 227.413 32.0669 229.714 32.1712 232.36C32.3593 235.119 31.4749 237.615 29.8745 239.496C28.2749 238.04 27.107 235.738 26.9038 233.078Z" fill="#E9EDF5"/>
<path d="M342.252 272.884C359.555 258.768 368.888 237.808 373.619 222.816C378.693 206.461 379.757 193.317 379.788 193.222L380.738 193.219C380.707 193.314 379.707 206.584 374.601 223.034C369.808 238.216 360.507 259.398 342.951 273.641L342.252 272.884Z" fill="#E9EDF5"/>
<path d="M377.939 189.239C377.001 193.042 377.615 196.618 379.366 199.303C382.209 197.394 384.509 194.251 385.447 190.449C386.384 186.646 385.77 183.07 384.02 180.385C381.081 182.263 378.876 185.437 377.939 189.239Z" fill="#E9EDF5"/>
<path d="M382.852 200.241C379.915 202.752 378.027 206.241 377.659 209.599C380.826 209.905 384.463 208.784 387.431 206.178C390.367 203.667 392.255 200.178 392.624 196.82C389.425 196.609 385.788 197.73 382.852 200.241Z" fill="#E9EDF5"/>
<path d="M383.935 211.667C380.234 212.661 377.234 215.046 375.344 217.902C377.914 219.698 381.526 220.256 385.1 219.326C388.802 218.332 391.801 215.947 393.692 213.091C391.121 211.295 387.605 210.769 383.935 211.667Z" fill="#E9EDF5"/>
<path d="M377.996 225.207C375.118 225.945 372.718 228.106 371.367 230.929C373.494 232.79 376.378 233.635 379.288 232.802C382.167 232.064 384.566 229.903 385.918 227.08C383.791 225.219 380.906 224.374 377.996 225.207Z" fill="#E9EDF5"/>
<path d="M373.56 205.402C371.368 203.098 368.356 202 365.444 202.199C365.201 205.176 366.193 208.244 368.354 210.643C370.546 212.947 373.558 214.045 376.47 213.846C376.745 210.773 375.753 207.706 373.56 205.402Z" fill="#E9EDF5"/>
<path d="M370.68 215.1C368.487 212.796 365.476 211.698 362.564 211.898C362.32 214.875 363.312 217.943 365.473 220.342C367.666 222.646 370.677 223.744 373.59 223.544C373.833 220.567 372.872 217.404 370.68 215.1Z" fill="#E9EDF5"/>
<path fill-rule="evenodd" clip-rule="evenodd" d="M399.841 225.318C402.247 228.125 405.755 230.029 409.765 230.531C414.076 231.032 417.985 229.628 420.892 227.122C418.487 224.115 414.777 221.809 410.467 221.308C406.858 220.907 403.45 221.809 400.743 223.614C402.147 221.108 403.35 218.702 404.553 216.496C407.861 218 411.971 218.1 415.78 216.597C419.689 214.993 422.697 211.885 424 208.276C420.592 206.572 416.381 206.372 412.372 207.976C410.066 208.878 408.161 210.281 406.658 211.985C407.861 209.379 408.863 206.973 409.665 204.968C412.973 203.866 415.98 201.46 417.885 197.851C419.89 194.042 420.191 189.731 418.988 186.022C415.379 186.924 411.971 189.531 409.866 193.34C407.961 197.049 407.56 201.159 408.562 204.768C407.259 208.076 405.355 212.487 402.748 217.499C402.848 216.496 402.949 215.494 402.848 214.391C402.548 210.381 400.844 206.773 398.137 204.267C395.932 206.773 394.628 210.381 394.929 214.391C395.23 218.2 396.733 221.609 399.139 224.115C398.137 225.919 397.034 227.724 395.932 229.528C395.33 230.531 394.628 231.633 393.927 232.736C394.328 231.232 394.528 229.528 394.428 227.824C394.227 223.814 392.523 220.105 389.917 217.699C387.611 220.105 386.308 223.714 386.509 227.724C386.709 231.533 388.313 235.142 390.619 237.548C381.296 250.78 367.061 265.616 348.015 272.633L348.315 273.736C367.663 266.518 381.998 251.582 391.621 238.049C394.027 240.956 397.636 242.961 401.746 243.462C406.056 243.963 409.966 242.56 412.873 240.054C410.567 236.946 406.758 234.741 402.447 234.24C398.738 233.839 395.33 234.841 392.623 236.645C394.227 234.34 395.631 232.134 397.034 229.929C397.936 228.425 398.939 226.922 399.841 225.318Z" fill="#E9EDF5"/>
<path d="M301.336 277.106C301.336 277.106 322.336 220.906 348.436 227.406C369.536 232.706 354.536 261.006 355.836 259.706C357.136 258.406 368.436 239.206 386.736 239.206C405.036 239.206 390.636 261.006 390.636 261.006C390.636 261.006 420.136 252.906 423.236 265.706C425.736 276.306 411.636 277.106 411.636 277.106H301.336Z" fill="#E9EDF5"/>
<path d="M227.137 277.306C227.137 277.306 193.337 232.406 172.037 225.506C150.737 218.606 170.838 246.006 170.838 246.006C170.838 246.006 133.037 204.706 119.237 208.406C106.537 211.806 119.237 237.406 119.237 237.406C119.237 237.406 104.937 223.206 87.5375 223.206C70.1375 223.206 100.937 276.306 100.937 276.306L227.137 277.306Z" fill="#E9EDF5"/>
<path d="M192.301 45.62L192.974 42.1577C193.109 41.4919 192.705 40.6929 191.896 40.5598L187.449 39.6276C187.449 38.1628 187.179 36.5648 186.64 35.1L190.279 32.703C190.953 32.3035 191.088 31.5045 190.683 30.8387L188.662 27.9091C188.257 27.2432 187.449 27.1101 186.775 27.5096L183.271 29.7734C181.923 28.4417 180.306 27.3764 178.554 26.7106L179.497 22.3161C179.632 21.6503 179.228 20.8513 178.419 20.7182L174.915 20.0523C174.241 19.9192 173.433 20.3187 173.298 21.1177L172.354 25.7784C171.141 25.9116 169.794 26.0448 168.581 26.4443L166.155 22.8488C165.751 22.183 164.942 22.0498 164.268 22.4493L161.303 24.4468C160.629 24.8463 160.495 25.6453 160.899 26.3111L163.19 29.7734C161.842 31.105 160.764 32.703 160.09 34.4342L156.317 33.7683C155.643 33.6352 154.834 34.0347 154.699 34.8337L154.026 38.296C153.891 38.9618 154.295 39.7608 155.104 39.8939L159.012 40.6929C159.147 42.2909 159.416 43.8889 160.09 45.4869L156.586 47.7507C155.912 48.1502 155.778 48.9492 156.182 49.615L158.203 52.5446C158.608 53.2104 159.416 53.3436 160.09 52.9441L163.729 50.5471C165.077 51.7456 166.694 52.6778 168.311 53.2104L167.368 57.7381C167.233 58.4039 167.637 59.2029 168.446 59.336L171.95 60.0019C172.624 60.135 173.433 59.7355 173.567 58.9365L174.511 54.0094C175.858 53.8763 177.206 53.4768 178.554 52.9441L180.845 56.4064C181.249 57.0722 182.058 57.2054 182.732 56.8059L185.697 54.8084C186.371 54.4089 186.505 53.6099 186.101 52.9441L183.675 49.3487C184.484 48.4165 185.292 47.3512 185.832 46.1527L190.683 46.6854C191.357 46.8185 192.166 46.419 192.301 45.62ZM177.611 43.4894C174.646 46.8185 169.12 45.7532 167.637 41.4919C166.964 39.6276 167.368 37.497 168.716 36.0321C171.681 32.703 177.206 33.7683 178.689 38.0296C179.363 39.8939 178.958 42.0246 177.611 43.4894Z" fill="#E9EDF5"/>
<path d="M278.834 84.6613L279.834 79.7613C280.034 78.7613 279.334 77.7613 278.334 77.5613L272.134 76.3613C272.134 74.2613 271.734 72.1613 271.034 70.1613L276.034 66.7613C276.834 66.1613 277.134 65.0613 276.534 64.1613L273.734 60.0613C273.134 59.2613 272.034 58.9613 271.134 59.5613L266.534 62.7613C264.634 60.8613 262.434 59.3613 260.034 58.4613L261.234 52.2613C261.434 51.2613 260.734 50.2613 259.734 50.0613L254.834 49.0613C253.834 48.8613 252.834 49.5613 252.634 50.5613L251.334 56.9613C249.634 57.0613 247.834 57.3613 246.134 57.9613L242.734 52.9613C242.134 52.1613 241.034 51.8613 240.134 52.4613L236.034 55.2613C235.234 55.8613 234.934 56.9613 235.534 57.8613L238.734 62.6613C236.834 64.5613 235.334 66.7613 234.434 69.1613L229.234 68.1613C228.234 67.9613 227.234 68.6613 227.034 69.6613L226.034 74.5613C225.834 75.5613 226.534 76.5613 227.534 76.7613L232.934 77.8613C233.034 80.0613 233.534 82.3613 234.434 84.4613L229.634 87.6613C228.834 88.2613 228.534 89.3613 229.134 90.2613L231.934 94.3613C232.534 95.1613 233.634 95.4613 234.534 94.8613L239.534 91.4613C241.434 93.0613 243.534 94.3613 245.834 95.1613L244.634 101.361C244.434 102.361 245.134 103.361 246.134 103.561L251.034 104.561C252.034 104.761 253.034 104.061 253.234 103.061L254.634 96.1613C256.534 95.9613 258.334 95.4613 260.134 94.6613L263.334 99.4613C263.934 100.261 265.034 100.561 265.934 99.9613L270.034 97.1613C270.834 96.5613 271.134 95.4613 270.534 94.5613L267.134 89.5613C268.334 88.1613 269.234 86.7613 270.034 85.1613L276.434 86.4613C277.634 86.3613 278.634 85.6613 278.834 84.6613ZM258.734 81.6613C254.634 86.3613 247.134 84.8613 245.034 78.9613C244.134 76.3613 244.734 73.3613 246.534 71.3613C250.634 66.6613 258.134 68.1613 260.234 74.0613C261.134 76.5613 260.534 79.5613 258.734 81.6613Z" fill="#E9EDF5"/>
<path d="M299.616 257.337H125.016C122.216 257.337 120.016 255.137 120.016 252.337V136.637C120.016 133.837 122.216 131.637 125.016 131.637H299.616C302.416 131.637 304.616 133.837 304.616 136.637V252.337C304.616 255.037 302.316 257.337 299.616 257.337Z" fill="#005098"/>
<path d="M298.6 138.637H127V228.437H298.6V138.637Z" fill="white"/>
<path d="M299.616 257.337H125.016C122.216 257.337 120.016 255.137 120.016 252.337V233.837H304.616V252.337C304.616 255.037 302.316 257.337 299.616 257.337Z" fill="white"/>
<path d="M212.316 250.637C215.353 250.637 217.816 248.175 217.816 245.137C217.816 242.1 215.353 239.637 212.316 239.637C209.278 239.637 206.816 242.1 206.816 245.137C206.816 248.175 209.278 250.637 212.316 250.637Z" fill="#005098"/>
<path d="M243.816 257.337H180.916V268.937H243.816V257.337Z" fill="#DEDFE7"/>
<path d="M251.016 277.637H173.516C172.616 277.637 172.116 276.437 172.816 275.837L180.816 268.937H243.716L251.716 275.837C252.416 276.437 252.016 277.637 251.016 277.637Z" fill="#DEDFE7"/>
<path d="M307.519 224.337H117.119V233.937H307.519V224.337Z" fill="#FFDB4F"/>
<path d="M122.828 224.337L119.228 234.037H124.328L127.928 224.337H122.828Z" fill="#0066AB"/>
<path d="M135.527 224.337L131.927 234.037H136.927L140.527 224.337H135.527Z" fill="#0066AB"/>
<path d="M148.128 224.337L144.528 234.037H149.628L153.228 224.337H148.128Z" fill="#0066AB"/>
<path d="M160.726 224.337L157.126 234.037H162.226L165.826 224.337H160.726Z" fill="#0066AB"/>
<path d="M173.429 224.337L169.829 234.037H174.929L178.529 224.337H173.429Z" fill="#0066AB"/>
<path d="M186.027 224.337L182.427 234.037H187.527L191.127 224.337H186.027Z" fill="#0066AB"/>
<path d="M198.628 224.337L195.028 234.037H200.128L203.728 224.337H198.628Z" fill="#0066AB"/>
<path d="M211.328 224.337L207.728 234.037H212.828L216.428 224.337H211.328Z" fill="#0066AB"/>
<path d="M223.929 224.337L220.329 234.037H225.429L229.029 224.337H223.929Z" fill="#0066AB"/>
<path d="M236.627 224.337L232.927 234.037H238.027L241.627 224.337H236.627Z" fill="#0066AB"/>
<path d="M249.226 224.337L245.626 234.037H250.726L254.326 224.337H249.226Z" fill="#0066AB"/>
<path d="M261.828 224.337L258.228 234.037H263.328L266.928 224.337H261.828Z" fill="#0066AB"/>
<path d="M274.527 224.337L270.927 234.037H275.927L279.527 224.337H274.527Z" fill="#0066AB"/>
<path d="M287.128 224.337L283.528 234.037H288.628L292.228 224.337H287.128Z" fill="#0066AB"/>
<path d="M299.726 224.337L296.126 234.037H301.226L304.826 224.337H299.726Z" fill="#0066AB"/>
<path d="M307.617 208.94L117.617 196.741L117.002 206.321L307.002 218.52L307.617 208.94Z" fill="#FFDB4F"/>
<path d="M123.316 197.137L119.116 206.537L124.216 206.837L128.416 197.537L123.316 197.137Z" fill="#0066AB"/>
<path d="M135.916 197.937L131.716 207.337L136.816 207.737L141.016 198.337L135.916 197.937Z" fill="#0066AB"/>
<path d="M148.516 198.737L144.316 208.137L149.416 208.537L153.616 199.137L148.516 198.737Z" fill="#0066AB"/>
<path d="M161.116 199.637L156.916 208.937L162.016 209.337L166.216 199.937L161.116 199.637Z" fill="#0066AB"/>
<path d="M173.816 200.437L169.516 209.837L174.616 210.137L178.816 200.737L173.816 200.437Z" fill="#0066AB"/>
<path d="M186.416 201.237L182.216 210.637L187.216 210.937L191.416 201.537L186.416 201.237Z" fill="#0066AB"/>
<path d="M199.016 202.037L194.816 211.437L199.816 211.737L204.116 202.337L199.016 202.037Z" fill="#0066AB"/>
<path d="M211.616 202.837L207.416 212.237L212.516 212.537L216.716 203.137L211.616 202.837Z" fill="#0066AB"/>
<path d="M224.216 203.637L220.016 213.037L225.116 213.337L229.316 203.937L224.216 203.637Z" fill="#0066AB"/>
<path d="M236.816 204.437L232.616 213.837L237.716 214.137L241.916 204.737L236.816 204.437Z" fill="#0066AB"/>
<path d="M249.416 205.237L245.216 214.637L250.316 214.937L254.516 205.537L249.416 205.237Z" fill="#0066AB"/>
<path d="M262.016 206.037L257.816 215.437L262.916 215.737L267.116 206.437L262.016 206.037Z" fill="#0066AB"/>
<path d="M274.616 206.837L270.416 216.237L275.516 216.637L279.716 207.237L274.616 206.837Z" fill="#0066AB"/>
<path d="M287.316 207.637L283.016 217.037L288.116 217.437L292.316 208.037L287.316 207.637Z" fill="#0066AB"/>
<path d="M299.916 208.537L295.716 217.937L300.716 218.237L304.916 208.837L299.916 208.537Z" fill="#0066AB"/>
<path opacity="0.1" d="M307.615 208.94L117.615 196.741L117 206.321L307 218.52L307.615 208.94Z" fill="#4F4B66"/>
<path d="M306.568 193.449L117.101 212.274L118.05 221.827L307.517 203.002L306.568 193.449Z" fill="#FFDB4F"/>
<path d="M122.816 211.737L120.216 221.737L125.216 221.237L127.816 211.237L122.816 211.737Z" fill="#0066AB"/>
<path d="M135.416 210.537L132.716 220.437L137.816 219.937L140.416 210.037L135.416 210.537Z" fill="#0066AB"/>
<path d="M147.916 209.237L145.316 219.237L150.416 218.737L153.016 208.737L147.916 209.237Z" fill="#0066AB"/>
<path d="M160.516 208.037L157.916 217.937L162.916 217.437L165.616 207.537L160.516 208.037Z" fill="#0066AB"/>
<path d="M173.116 206.737L170.516 216.737L175.516 216.237L178.116 206.237L173.116 206.737Z" fill="#0066AB"/>
<path d="M185.716 205.537L183.016 215.437L188.116 214.937L190.716 205.037L185.716 205.537Z" fill="#0066AB"/>
<path d="M198.216 204.237L195.616 214.237L200.716 213.737L203.316 203.737L198.216 204.237Z" fill="#0066AB"/>
<path d="M210.816 203.037L208.216 212.937L213.216 212.437L215.916 202.537L210.816 203.037Z" fill="#0066AB"/>
<path d="M223.416 201.737L220.816 211.737L225.816 211.237L228.416 201.237L223.416 201.737Z" fill="#0066AB"/>
<path d="M236.016 200.537L233.316 210.437L238.416 209.937L241.016 200.037L236.016 200.537Z" fill="#0066AB"/>
<path d="M248.516 199.237L245.916 209.237L251.016 208.737L253.616 198.737L248.516 199.237Z" fill="#0066AB"/>
<path d="M261.116 198.037L258.516 207.937L263.516 207.437L266.216 197.537L261.116 198.037Z" fill="#0066AB"/>
<path d="M273.716 196.737L271.016 206.737L276.116 206.237L278.716 196.237L273.716 196.737Z" fill="#0066AB"/>
<path d="M286.316 195.537L283.616 205.437L288.716 204.937L291.316 195.037L286.316 195.537Z" fill="#0066AB"/>
<path d="M298.816 194.237L296.216 204.237L301.316 203.737L303.916 193.737L298.816 194.237Z" fill="#0066AB"/>
<path d="M190.255 187.337H196.411V182.657H199.363V177.329H196.411V161.417H189.535L178.159 177.689V182.657H190.255V187.337ZM184.639 177.329L190.687 168.185V177.329H184.639ZM202.378 173.837C202.378 181.613 205.006 187.229 212.494 187.229C219.982 187.229 222.61 181.613 222.61 173.837C222.61 166.133 219.982 160.517 212.494 160.517C205.006 160.517 202.378 166.133 202.378 173.837ZM216.562 173.837C216.562 178.013 216.13 181.469 212.494 181.469C208.858 181.469 208.426 178.013 208.426 173.837C208.426 169.805 208.858 166.277 212.494 166.277C216.13 166.277 216.562 169.805 216.562 173.837ZM238.102 187.337H244.258V182.657H247.21V177.329H244.258V161.417H237.382L226.006 177.689V182.657H238.102V187.337ZM232.486 177.329L238.534 168.185V177.329H232.486Z" fill="#0066AB"/>
<path d="M9 278.337L111.644 278.337L122.651 278.337L140.807 278.337L275.902 278.337L284.051 278.337L291.199 278.337L415 278.337" stroke="#005098" stroke-width="4" stroke-miterlimit="10" stroke-linecap="round" stroke-linejoin="round"/>
</svg>
