<svg width="90" height="90" viewBox="0 0 90 90" fill="none" xmlns="http://www.w3.org/2000/svg">
<g opacity="0.8" filter="url(#filter0_d)">
<rect x="15" y="8" width="60" height="60" rx="30" fill="white"/>
</g>
<path fill-rule="evenodd" clip-rule="evenodd" d="M39.3649 42.7231C38.73 43.3145 37.7776 43.3145 37.1427 42.7231C36.5078 42.1317 36.5078 41.2446 37.1427 40.6532L43.9681 34.4435C44.603 33.8522 45.5554 33.8522 46.1903 34.4435L52.857 40.6532C53.4919 41.2446 53.4919 42.1317 52.857 42.7231C52.2221 43.3145 51.2697 43.3145 50.6348 42.7231L46.6665 39.0269V47.3333C46.6665 48.2538 45.9203 49 44.9998 49C44.0794 49 43.3332 48.2538 43.3332 47.3333V39.1296L39.3649 42.7231Z" fill="#005098"/>
<path fill-rule="evenodd" clip-rule="evenodd" d="M36.6665 30.6667C36.6665 29.7462 37.4127 29 38.3332 29H51.6665C52.587 29 53.3332 29.7462 53.3332 30.6667C53.3332 31.5871 52.587 32.3333 51.6665 32.3333H38.3332C37.4127 32.3333 36.6665 31.5871 36.6665 30.6667Z" fill="#005098"/>
<defs>
<filter id="filter0_d" x="0" y="0" width="90" height="90" filterUnits="userSpaceOnUse" color-interpolation-filters="sRGB">
<feFlood flood-opacity="0" result="BackgroundImageFix"/>
<feColorMatrix in="SourceAlpha" type="matrix" values="0 0 0 0 0 0 0 0 0 0 0 0 0 0 0 0 0 0 127 0"/>
<feOffset dy="7"/>
<feGaussianBlur stdDeviation="7.5"/>
<feColorMatrix type="matrix" values="0 0 0 0 0.165799 0 0 0 0 0.19289 0 0 0 0 0.795833 0 0 0 0.1 0"/>
<feBlend mode="normal" in2="BackgroundImageFix" result="effect1_dropShadow"/>
<feBlend mode="normal" in="SourceGraphic" in2="effect1_dropShadow" result="shape"/>
</filter>
</defs>
</svg>
