<svg width="30" height="30" viewBox="0 0 30 30" fill="none" xmlns="http://www.w3.org/2000/svg">
<path d="M15 30C23.2843 30 30 23.2843 30 15C30 6.71573 23.2843 0 15 0C6.71573 0 0 6.71573 0 15C0 23.2843 6.71573 30 15 30Z" fill="#005098"/>
<path d="M20.3996 20.2075C20.8562 20.6712 20.8562 21.4133 20.4909 21.877C20.4909 21.877 20.4909 21.8771 20.3996 21.9698C20.0344 22.3408 19.7604 22.7118 19.3951 23.0829C19.0298 23.5466 18.3906 23.8249 17.7514 23.7322C16.8382 23.6394 15.925 23.3611 15.1032 22.8974C13.2768 21.8771 11.6331 20.4857 10.2633 18.8161C9.2588 17.5175 8.43693 16.1262 7.88902 14.6421C7.61507 13.9001 7.43244 13.0653 7.52376 12.3232C7.52376 11.8594 7.7064 11.3956 8.07167 11.0246C8.43694 10.6536 8.80221 10.2826 9.16749 9.81878C9.53276 9.355 10.172 9.35499 10.5373 9.63326C10.6286 9.72602 10.6286 9.72603 10.7199 9.81878C10.9938 10.0971 11.2678 10.4681 11.5417 10.7463L12.4549 11.6739C12.9115 12.1377 12.9115 12.8797 12.5463 13.3435L12.4549 13.4363C12.0897 13.8073 11.7244 14.1783 11.3591 14.5493C11.2678 14.6421 11.2678 14.7348 11.2678 14.8276C11.5418 15.3841 11.8157 16.0334 12.2723 16.4972C13.0028 17.5175 13.916 18.4451 15.0118 19.1871C15.1945 19.3726 15.4684 19.4654 15.7424 19.5582C15.8337 19.6509 15.925 19.6509 16.0163 19.4654C16.3816 19.0944 16.7469 18.7234 17.1122 18.2596C17.4774 17.7958 18.0253 17.703 18.4819 18.0741C18.5733 18.1668 18.5733 18.1668 18.6646 18.2596C19.2125 19.0016 19.8517 19.6509 20.3996 20.2075Z" fill="white"/>
<path d="M19.2128 8.89134C18.0257 8.05654 16.6559 7.59276 15.1948 7.5C14.9208 7.5 14.5556 7.68551 14.4643 7.96378C14.3729 8.24205 14.3729 8.61307 14.5556 8.89134C14.7382 9.07685 15.0122 9.16959 15.1948 9.16959C17.3864 9.26235 19.3041 10.5609 20.3086 12.5088C20.7652 13.4364 21.0392 14.4567 21.0392 15.5698C21.0392 15.9408 21.3131 16.3118 21.6784 16.4046H21.7697C22.2263 16.4046 22.5002 16.0335 22.5002 15.6625V15.5698C22.5002 13.4364 21.5871 11.303 20.126 9.8189C20.0347 9.54063 19.5781 9.16961 19.2128 8.89134Z" fill="white"/>
<path d="M15.0106 12.2305C15.8324 12.2305 16.6543 12.6016 17.2022 13.1581C17.8414 13.8074 18.2067 14.7349 18.2067 15.6625C18.2067 15.848 18.298 16.0335 18.3893 16.219C18.572 16.4973 18.9373 16.5901 19.3025 16.4973C19.5765 16.4046 19.7591 16.0335 19.7591 15.7553C19.7591 14.4567 19.3025 13.1581 18.3893 12.1378C17.5675 11.2102 16.289 10.6537 15.1019 10.6537C14.9193 10.6537 14.8279 10.6537 14.7366 10.7464C14.3713 10.932 14.28 11.303 14.3713 11.674C14.3713 11.9523 14.6453 12.2305 15.0106 12.2305Z" fill="white"/>
</svg>
