<svg xmlns="http://www.w3.org/2000/svg" width="17" height="17" viewBox="0 0 17 17"><path d="M10.5,6.25a.85.85,0,0,0-.85.85v3.4a.85.85,0,1,0,1.7,0V7.1A.85.85,0,0,0,10.5,6.25Zm.782,7.327a.646.646,0,0,0-.077-.153l-.1-.128a.85.85,0,0,0-.926-.178A.977.977,0,0,0,9.9,13.3a.841.841,0,0,0-.178.926.765.765,0,0,0,.459.459.8.8,0,0,0,.646,0,.765.765,0,0,0,.459-.459.85.85,0,0,0,.068-.323,1.156,1.156,0,0,0,0-.17.544.544,0,0,0-.068-.153ZM10.5,2A8.5,8.5,0,1,0,19,10.5,8.5,8.5,0,0,0,10.5,2Zm0,15.3a6.8,6.8,0,1,1,6.8-6.8A6.8,6.8,0,0,1,10.5,17.3Z" transform="translate(-2 -2)" /></svg>