<svg xmlns="http://www.w3.org/2000/svg" width="19" height="19" viewBox="0 0 18.967 17.572"><path d="M27.573,19.46C22.391,19.46,18,22.823,18,26.973c0,3.695,3.136,6.812,7.532,7.427h.388a2.807,2.807,0,0,1,.313.028c1.5.313.2,2.179.692,2.558.564.441,4.832-2.416,7.427-4.813a8.142,8.142,0,0,0,1.018-1.018,1.954,1.954,0,0,0,.175-.218,6.418,6.418,0,0,0,1.421-3.951c-.019-4.164-4.216-7.527-9.393-7.527Zm-3.316,9.583a.474.474,0,0,1-.474.474H21.889a.474.474,0,0,1-.474-.474V25.4a.474.474,0,0,1,.474-.474h.043a.474.474,0,0,1,.474.474v3.093h1.359a.474.474,0,0,1,.474.474Zm1.421,0a.474.474,0,0,1-.474.474h-.1a.474.474,0,0,1-.474-.474V25.4a.474.474,0,0,1,.474-.474h.038a.474.474,0,0,1,.474.474Zm4.424,0a.474.474,0,0,1-.142.341.322.322,0,0,1-.118.09.474.474,0,0,1-.227.057h-.043a.474.474,0,0,1-.185-.038.412.412,0,0,1-.189-.142L29.16,29.3l-1.776-2.43v2.165a.474.474,0,0,1-.474.474h-.043a.474.474,0,0,1-.474-.474V25.4a.474.474,0,0,1,.474-.474h.043a.474.474,0,0,1,.426.246L29.1,27.541V25.4a.474.474,0,0,1,.474-.474h.043a.474.474,0,0,1,.474.474Zm3.491-3.572a.474.474,0,0,1-.474.474H31.737v.772H33.1a.474.474,0,0,1,.474.474v.043a.474.474,0,0,1-.474.474H31.737v.772H33.1a.474.474,0,0,1,.474.474V29a.474.474,0,0,1-.474.474H31.2A.474.474,0,0,1,30.728,29V25.428a.474.474,0,0,1,.474-.474H33.1a.474.474,0,0,1,.474.474Z" transform="translate(-18 -19.46)" fill="#fff"/></svg>