<svg xmlns="http://www.w3.org/2000/svg" width="18.602" height="18.601" viewBox="0 0 18.602 18.601"><path d="M3.965,18.6a.744.744,0,0,1-.743-.722l-.051-1.654a.748.748,0,0,0-.25-.531A8.626,8.626,0,0,1,.782,12.768,9.116,9.116,0,0,1,0,9.021a9.142,9.142,0,0,1,.716-3.6A8.629,8.629,0,0,1,2.686,2.567,9.454,9.454,0,0,1,9.3,0a9.454,9.454,0,0,1,6.615,2.567,8.63,8.63,0,0,1,1.969,2.858,9.141,9.141,0,0,1,.716,3.6,9.142,9.142,0,0,1-.716,3.6,8.625,8.625,0,0,1-1.969,2.858A9.454,9.454,0,0,1,9.3,18.043a10.155,10.155,0,0,1-2.692-.357.748.748,0,0,0-.2-.027.739.739,0,0,0-.3.063l-1.846.815A.738.738,0,0,1,3.965,18.6ZM7.63,6.674h0a1.39,1.39,0,0,0-1.182.652L3.716,11.66A.426.426,0,0,0,3.7,12.1a.458.458,0,0,0,.393.238.438.438,0,0,0,.266-.093L7.291,10.02a.557.557,0,0,1,.672,0l2.173,1.63a1.395,1.395,0,0,0,2.017-.372l2.732-4.334A.425.425,0,0,0,14.9,6.5a.458.458,0,0,0-.393-.238.44.44,0,0,0-.266.093L11.31,8.581a.558.558,0,0,1-.672,0L8.465,6.953a1.383,1.383,0,0,0-.835-.279Z" fill="#fff"/></svg>
