<svg xmlns="http://www.w3.org/2000/svg" width="18" height="18" viewBox="0 0 16.519 17.495"><path d="M14.087 13.744a1.255 1.255 0 010 1.838c-.36.388-.744.758-1.085 1.161a2.075 2.075 0 01-1.833.739 7.276 7.276 0 01-2.918-.9 16.039 16.039 0 01-5.258-4.377A15.632 15.632 0 01.431 7.661a6.29 6.29 0 01-.426-2.529 2.113 2.113 0 01.606-1.388c.407-.412.791-.843 1.189-1.26a1.085 1.085 0 011.7 0c.322.336.639.682.947 1.023l.962.976a1.251 1.251 0 010 1.847c-.388.417-.777.838-1.175 1.246a.265.265 0 00-.062.332 7.479 7.479 0 001.061 1.809 12.567 12.567 0 002.97 2.875c.246.166.521.284.777.431a.227.227 0 00.327-.066c.388-.426.786-.848 1.184-1.265a1.08 1.08 0 011.7 0q.952 1.033 1.9 2.051zM12.78 1.456A7.773 7.773 0 008.342.002a.739.739 0 00-.758.507.947.947 0 00.137.995.909.909 0 00.725.279 6.452 6.452 0 015.585 3.647 7.172 7.172 0 01.815 3.268.805.805 0 00.881.862.819.819 0 00.782-.947 9.3 9.3 0 00-2.572-6.234c-.271-.203-.693-.596-1.157-.923z" fill="#005098"></path><path d="M8.208 5.071a3.373 3.373 0 012.416.995 3.879 3.879 0 011.127 2.743 1.113 1.113 0 00.18.564.786.786 0 00.976.256.838.838 0 00.5-.834 5.684 5.684 0 00-1.516-3.889 5.021 5.021 0 00-3.643-1.6.99.99 0 00-.441.095.909.909 0 00-.412 1.028.8.8 0 00.813.642z" fill="#005098"></path></svg>
