<svg xmlns="http://www.w3.org/2000/svg" width="18" height="18" viewBox="0 0 16.519 17.495"><path d="M34.667,35.583a1.255,1.255,0,0,1,0,1.838c-.36.388-.744.758-1.085,1.161a2.075,2.075,0,0,1-1.833.739,7.276,7.276,0,0,1-2.918-.9,16.039,16.039,0,0,1-5.258-4.377A15.632,15.632,0,0,1,21.011,29.5a6.29,6.29,0,0,1-.426-2.529,2.113,2.113,0,0,1,.606-1.388c.407-.412.791-.843,1.189-1.26a1.085,1.085,0,0,1,1.7,0c.322.336.639.682.947,1.023l.962.976a1.251,1.251,0,0,1,0,1.847c-.388.417-.777.838-1.175,1.246a.265.265,0,0,0-.062.332,7.479,7.479,0,0,0,1.061,1.809,12.567,12.567,0,0,0,2.97,2.875c.246.166.521.284.777.431a.227.227,0,0,0,.327-.066c.388-.426.786-.848,1.184-1.265a1.08,1.08,0,0,1,1.7,0q.952,1.033,1.9,2.051Z" transform="translate(-20.58 -21.839)" fill="#005098" /><path d="M41.694,20.992a7.773,7.773,0,0,0-4.438-1.454.739.739,0,0,0-.758.507.947.947,0,0,0,.137.995.909.909,0,0,0,.725.279,6.452,6.452,0,0,1,5.585,3.647,7.172,7.172,0,0,1,.815,3.268.805.805,0,0,0,.881.862.819.819,0,0,0,.782-.947,9.3,9.3,0,0,0-2.572-6.234C42.58,21.712,42.158,21.319,41.694,20.992Z" transform="translate(-28.914 -19.536)" fill="#005098"/><path d="M36.972,28.277a3.373,3.373,0,0,1,2.416.995,3.879,3.879,0,0,1,1.127,2.743,1.113,1.113,0,0,0,.18.564.786.786,0,0,0,.976.256.838.838,0,0,0,.5-.834,5.684,5.684,0,0,0-1.516-3.889,5.021,5.021,0,0,0-3.643-1.6.99.99,0,0,0-.441.095.909.909,0,0,0-.412,1.028A.8.8,0,0,0,36.972,28.277Z" transform="translate(-28.764 -23.206)" fill="#005098"/></svg>
