<svg xmlns="http://www.w3.org/2000/svg" xmlns:xlink="http://www.w3.org/1999/xlink" width="38" height="44.5" viewBox="0 0 38 44.5"><defs><clipPath id="a"><path d="M13266-1993a18.928,18.928,0,0,1,2-8.5h-1.5v-17h13v7.309a18.993,18.993,0,0,1,5.5-.808,19,19,0,0,1,19,19,19,19,0,0,1-19,19A19,19,0,0,1,13266-1993Z" transform="translate(-13251 2625)" fill="#4f4b66"/></clipPath><clipPath id="b"><rect width="38" height="41" transform="translate(0 -2)" fill="#fff" stroke="#707070" stroke-width="1"/></clipPath><clipPath id="c"><rect width="14.576" height="17.677" fill="none"/></clipPath></defs><g transform="translate(-14.001 -751.5)"><g transform="translate(-1 141.5)"><g transform="translate(0 3.5)" clip-path="url(#a)"><g transform="translate(-16 -916)"><g transform="translate(31 1529)"><circle cx="19" cy="19" r="19" fill="#3a6fe8"/><g clip-path="url(#b)"><g transform="translate(431.331 870.033)"><g transform="translate(-427.331 -872.483)"><g transform="translate(0 0)"><path d="M-395.114-858.89c-.541-.379-1.082-.731-1.616-1.054l-5.817,3.358a23.791,23.791,0,0,0-1.245,3.925,10.894,10.894,0,0,0-3.237-.489,10.88,10.88,0,0,0-3.391.541,25.117,25.117,0,0,0-1.816-5.26c-2.284-4.9-5.468-8.247-7.113-7.48s-1.125,5.358,1.159,10.256a24.025,24.025,0,0,0,3.295,5.306,10.856,10.856,0,0,0-2.957,6.3c-.727.433-1.5,1.008-1.619,1.1a.477.477,0,0,0-.166.5c.037.14.362,1.38.5,1.768a1.3,1.3,0,0,0,.918.721,7.421,7.421,0,0,0,2.018,3.712,4.153,4.153,0,0,0,1.055.7c.129.144.262.286.4.423l-.648-.248a.515.515,0,0,0-.665.3.515.515,0,0,0,.3.665l.936.358a1.964,1.964,0,0,0-.677,1.484,1.97,1.97,0,0,0,1.97,1.97c.038,0,.076,0,.114-.006l2.784,1.241a11.242,11.242,0,0,0-.7,4.007c0,.483.066,1.545.122,2.064a1.55,1.55,0,0,0,1.548,1.474,1.551,1.551,0,0,0,1.551-1.551,1.062,1.062,0,0,1,1.059-1.06,1.061,1.061,0,0,1,1.059,1.06,1.551,1.551,0,0,0,1.552,1.551,1.55,1.55,0,0,0,1.538-1.364h0c.059-.48.128-1.665.128-2.174a12.085,12.085,0,0,0-.215-2.287h0a1.955,1.955,0,0,0,1.362.551,1.964,1.964,0,0,0,1.964-1.964,1.963,1.963,0,0,0-1.518-1.911l-2.987-1.332a10.918,10.918,0,0,0,7.4-6.835,4.023,4.023,0,0,0,.334-.525,7.428,7.428,0,0,0,.648-4.183,1.289,1.289,0,0,0,.622-.986c0-.414-.112-1.69-.126-1.835a.478.478,0,0,0-.326-.418c-.126-.039-.84-.258-1.572-.422a10.92,10.92,0,0,0-2.06-2.94,20.853,20.853,0,0,0,1.861-2.651c3.891,2.38,7.484,3.264,8.408,1.945C-387.942-852.073-390.688-855.789-395.114-858.89Z" transform="translate(421.036 866.184)" fill="#fff"/><path d="M-410.745-826.828a2.279,2.279,0,0,1-2.276-2.276.337.337,0,0,0-.335-.335.337.337,0,0,0-.333.337,2.278,2.278,0,0,1-2.276,2.274,2.273,2.273,0,0,1-2.271-2.14c-.056-.532-.124-1.6-.124-2.122a12.329,12.329,0,0,1,.525-3.616l-2.023-.9a2.7,2.7,0,0,1-2.668-2.7,2.686,2.686,0,0,1,.257-1.146l-.05-.019a1.233,1.233,0,0,1-.689-.653,1.232,1.232,0,0,1-.025-.949,1.243,1.243,0,0,1,.152-.282l-.1-.093a7.993,7.993,0,0,1-2.134-3.7,1.826,1.826,0,0,1-.995-1.022c-.094-.262-.26-.843-.507-1.776l-.013-.051a1.194,1.194,0,0,1,.434-1.273c.127-.1.731-.544,1.376-.953a11.481,11.481,0,0,1,2.675-5.89,25.557,25.557,0,0,1-2.995-4.975,23.348,23.348,0,0,1-2.115-6.9c-.329-2.911.529-3.954,1.306-4.317s2.131-.35,4.149,1.773a23.352,23.352,0,0,1,3.928,6.058,26.88,26.88,0,0,1,1.691,4.658,11.608,11.608,0,0,1,2.859-.357,11.657,11.657,0,0,1,2.7.317,25.425,25.425,0,0,1,1.107-3.3.725.725,0,0,1,.309-.353l5.817-3.358a.725.725,0,0,1,.737.007c.549.331,1.107.695,1.658,1.08h0a23.366,23.366,0,0,1,5.283,4.92c1.74,2.357,1.519,3.69,1.027,4.393-.442.632-1.469,1.266-3.852.7a19.123,19.123,0,0,1-4.908-2.078c-.373.585-.756,1.13-1.145,1.631a11.585,11.585,0,0,1,1.6,2.346c.6.147,1.122.305,1.288.357a1.209,1.209,0,0,1,.835,1.051c0,.008.129,1.413.128,1.9a1.818,1.818,0,0,1-.593,1.3,8,8,0,0,1-.765,4.217,4.657,4.657,0,0,1-.325.523,11.627,11.627,0,0,1-6.109,6.562l1.285.573a2.676,2.676,0,0,1,2.006,2.6,2.692,2.692,0,0,1-2.689,2.689,2.687,2.687,0,0,1-.465-.04q.042.522.042,1.052c0,.546-.071,1.751-.134,2.262q0,.032-.011.063A2.276,2.276,0,0,1-410.745-826.828Zm-2.612-4.061a1.79,1.79,0,0,1,1.785,1.784.827.827,0,0,0,.826.828.825.825,0,0,0,.818-.725c0-.017,0-.034.008-.051.054-.482.117-1.569.117-2.036a11.369,11.369,0,0,0-.2-2.149.725.725,0,0,1,.372-.778.724.724,0,0,1,.331-.085.725.725,0,0,1,.514.2,1.233,1.233,0,0,0,.859.348,1.241,1.241,0,0,0,1.239-1.239,1.232,1.232,0,0,0-.957-1.205.723.723,0,0,1-.131-.044l-2.987-1.332a.725.725,0,0,1-.427-.718.725.725,0,0,1,.533-.644,10.174,10.174,0,0,0,6.909-6.38.728.728,0,0,1,.1-.189,3.3,3.3,0,0,0,.274-.429l.013-.023a6.812,6.812,0,0,0,.555-3.745.724.724,0,0,1,.3-.668c.2-.139.317-.29.317-.395,0-.294-.069-1.165-.109-1.611-.275-.082-.811-.236-1.349-.356a.725.725,0,0,1-.5-.4,10.168,10.168,0,0,0-1.923-2.745.725.725,0,0,1-.038-.973,20.042,20.042,0,0,0,1.8-2.559.726.726,0,0,1,.449-.331.725.725,0,0,1,.552.086,18.6,18.6,0,0,0,5.1,2.273c1.421.335,2.144.142,2.331-.125.239-.342.021-1.31-1.005-2.7a21.9,21.9,0,0,0-4.949-4.594c-.4-.282-.809-.551-1.212-.8l-5.227,3.017a22.985,22.985,0,0,0-1.115,3.575.725.725,0,0,1-.343.473.726.726,0,0,1-.581.066,10.173,10.173,0,0,0-3.022-.456,10.159,10.159,0,0,0-3.166.505.726.726,0,0,1-.587-.061.725.725,0,0,1-.347-.477,24.4,24.4,0,0,0-1.764-5.1,21.892,21.892,0,0,0-3.665-5.671c-1.191-1.253-2.107-1.635-2.486-1.459s-.672,1.123-.479,2.841a21.888,21.888,0,0,0,1.988,6.453,23.49,23.49,0,0,0,3.19,5.143.725.725,0,0,1-.029.971,10.068,10.068,0,0,0-2.76,5.881.725.725,0,0,1-.349.542c-.554.331-1.137.748-1.414.951.285,1.073.4,1.433.442,1.552.036.1.2.2.433.268a.725.725,0,0,1,.508.528,6.793,6.793,0,0,0,1.782,3.329l.021.019a3.432,3.432,0,0,0,.869.574.726.726,0,0,1,.236.174c.132.147.253.276.372.4a.725.725,0,0,1,.094.907.723.723,0,0,1-.163.177.726.726,0,0,1,.188.372.725.725,0,0,1-.237.673,1.244,1.244,0,0,0-.429.938,1.247,1.247,0,0,0,1.245,1.245l.033,0,.04,0a.728.728,0,0,1,.337.062l2.784,1.241a.725.725,0,0,1,.381.923,10.53,10.53,0,0,0-.654,3.746c0,.463.066,1.511.118,1.986,0,.014,0,.028,0,.042a.824.824,0,0,0,.824.784.827.827,0,0,0,.826-.826A1.79,1.79,0,0,1-413.356-830.889Zm-11.975-17.217h0Zm23.021-4.224v0Z" transform="translate(427.331 872.483)" fill="#fff"/></g><g transform="translate(0.726 0.726)"><path d="M-419.351-865.349c1.645-.767,4.829,2.582,7.113,7.48s2.8,9.491,1.159,10.258-4.829-2.583-7.113-7.482-2.8-9.49-1.159-10.256" transform="translate(420.31 865.458)" fill="#ff9000"/><g transform="translate(2.384 12.309)"><path d="M-337.532-691.932a5.267,5.267,0,0,0-5.267,5.268,5.268,5.268,0,0,0,5.267,5.268,5.269,5.269,0,0,0,5.27-5.268A5.269,5.269,0,0,0-337.532-691.932Z" transform="translate(348.428 697.561)" fill="#fff"/><path d="M-386.35-746.385a10.9,10.9,0,0,0-10.9,10.9,10.9,10.9,0,0,0,10.9,10.9,10.9,10.9,0,0,0,10.9-10.9A10.9,10.9,0,0,0-386.35-746.385Zm0,16.166a5.268,5.268,0,0,1-5.267-5.268,5.267,5.267,0,0,1,5.267-5.268,5.269,5.269,0,0,1,5.27,5.268A5.269,5.269,0,0,1-386.35-730.219Z" transform="translate(397.246 746.385)" fill="#ff9000"/></g><path d="M-262.007-779.627c-1.8,4.393-2.1,8.275-.6,8.975,1.643.766,4.828-2.583,7.111-7.482.235-.5.449-1,.646-1.493Z" transform="translate(279.769 788.5)" fill="#ff9000"/><path d="M-242.671-812.11c.535.323,1.076.675,1.616,1.054,4.427,3.1,7.172,6.817,6.132,8.3s-5.473.177-9.9-2.923a26,26,0,0,1-3.666-3.077Z" transform="translate(266.25 817.625)" fill="#ff9000"/><g transform="translate(2.466 30.615)"><path d="M-292.248-542.112a1.665,1.665,0,0,0,.842,2.2l4,1.785a1.665,1.665,0,0,0,2.2-.843h0a1.666,1.666,0,0,0-.843-2.2l-4-1.785a1.665,1.665,0,0,0-2.2.843Z" transform="translate(303.15 545.809)" fill="#ff9000"/><circle cx="1.964" cy="1.964" r="1.964" transform="translate(14.246 4.386)" fill="#ff9000"/><path d="M-353.785-522.893" transform="translate(358.196 527.69)" fill="none" stroke="#f8971d" stroke-miterlimit="10" stroke-width="2.183"/><path d="M-329.38-535.167l-4.027,1.9c-.058-.48-.131-1.636-.131-2.145,0-4.033,1.916-7.3,4.28-7.3s4.279,3.27,4.279,7.3c0,.509-.07,1.694-.129,2.174Z" transform="translate(340.042 545.464)" fill="#ff9000"/><path d="M-329.295-488.972a1.062,1.062,0,0,1,1.059-1.06h0a1.061,1.061,0,0,1,1.059,1.06h0a1.551,1.551,0,0,0,1.551,1.551h0a1.55,1.55,0,0,0,1.55-1.551h0a4.162,4.162,0,0,0-4.161-4.164h0a4.165,4.165,0,0,0-4.162,4.164h0a1.551,1.551,0,0,0,1.552,1.551h0a1.551,1.551,0,0,0,1.551-1.551Z" transform="translate(339.02 501.01)" fill="#ff9000"/><path d="M-304.824-539.172a5.054,5.054,0,0,1-1.13.39,5.4,5.4,0,0,1-1.2.093,8.148,8.148,0,0,1-1.19-.106,6.783,6.783,0,0,1-1.156-.288c.394.047.785.092,1.176.122s.782.047,1.173.05a9.063,9.063,0,0,0,1.164-.053C-305.6-539.009-305.216-539.1-304.824-539.172Z" transform="translate(318.486 542.287)" fill="#d86926"/><path d="M-368.873-555.274a1.665,1.665,0,0,0,.842,2.2l4,1.785a1.665,1.665,0,0,0,2.2-.843h0a1.666,1.666,0,0,0-.843-2.2l-4-1.786a1.665,1.665,0,0,0-2.2.844Z" transform="translate(371.854 557.61)" fill="#ff9000"/><path d="M-349.959-559.563c-.278-.091-.553-.192-.825-.3s-.543-.213-.812-.325-.537-.227-.8-.344-.532-.239-.8-.361l-.033-.015-.016-.028a1.867,1.867,0,0,0-.667-.714,1.868,1.868,0,0,0-.222-.116l-.237-.108c-.158-.072-.314-.148-.47-.225.168.045.335.093.5.144l.248.077a2,2,0,0,1,.25.1,1.752,1.752,0,0,1,.445.31,2.244,2.244,0,0,1,.336.426l-.049-.043c.268.116.536.231.8.352s.531.242.794.368.525.254.785.387S-350.213-559.709-349.959-559.563Z" transform="translate(359.142 562.842)" fill="#d86926"/><path d="M-396.451-537.127" transform="translate(396.451 540.453)" fill="none" stroke="#d86926" stroke-miterlimit="10" stroke-width="2.183"/><path d="M-257.56-526.976a2.18,2.18,0,0,0-1.049.409,2.019,2.019,0,0,0-.667.863,2,2,0,0,0-.119,1.084,2.2,2.2,0,0,0,.473,1.023,1.785,1.785,0,0,1-.645-.986,1.988,1.988,0,0,1-.056-.607,2.028,2.028,0,0,1,.138-.6,1.957,1.957,0,0,1,.778-.924A1.781,1.781,0,0,1-257.56-526.976Z" transform="translate(273.771 531.362)" fill="#d86926"/><path d="M-355.18-551.783a2.181,2.181,0,0,0,1.06-.38,2.017,2.017,0,0,0,.691-.844,2,2,0,0,0,.149-1.08,2.193,2.193,0,0,0-.444-1.035,1.785,1.785,0,0,1,.617,1,1.99,1.99,0,0,1,.039.609,2.03,2.03,0,0,1-.155.594,1.956,1.956,0,0,1-.8.9A1.781,1.781,0,0,1-355.18-551.783Z" transform="translate(359.446 556.589)" fill="#d86926"/><circle cx="1.97" cy="1.97" r="1.97" transform="translate(2.338 0.868)" fill="#ff9000"/><g transform="translate(1.748)"><path d="M-379.5-568.971a.515.515,0,0,1,.665-.3l2.663,1.019a.515.515,0,0,1,.3.665h0a.515.515,0,0,1-.665.3l-2.663-1.019a.515.515,0,0,1-.3-.665Z" transform="translate(379.537 569.301)" fill="#ff9000"/></g></g></g></g><g transform="translate(-427.158 -860.967)"><g transform="translate(15.565 8.326)"><g clip-path="url(#c)"><g transform="translate(-13.755 -0.556)"><path d="M-401.5-677.661a.973.973,0,0,0-.786,1.138l.108.687a11.091,11.091,0,0,0,12.528,9.431h0a11.091,11.091,0,0,0,9.022-12.825l-.108-.686a.986.986,0,0,0-1.114-.839h0l.766-.16h0a1.063,1.063,0,0,1,1.2.9l.117.741a11.963,11.963,0,0,1-9.732,13.834h0a11.964,11.964,0,0,1-13.513-10.173l-.117-.741a1.063,1.063,0,0,1,.865-1.23Z" transform="translate(403.662 681.445)" fill="#0083ef"/><path d="M-385.412-685.411a1.07,1.07,0,0,1,1.042.917l.117.741a11.963,11.963,0,0,1-9.732,13.834h0a11.475,11.475,0,0,1-1.788.141A12.039,12.039,0,0,1-407.5-680.093l-.117-.741a1.063,1.063,0,0,1,.865-1.23l.762-.081a.972.972,0,0,0-.786,1.138l.108.687a11.162,11.162,0,0,0,10.87,9.561,10.641,10.641,0,0,0,1.658-.13h0a11.091,11.091,0,0,0,9.022-12.825l-.108-.687a.992.992,0,0,0-.966-.85.944.944,0,0,0-.147.011l.766-.16a1.035,1.035,0,0,1,.159-.013m0-.517a1.545,1.545,0,0,0-.239.019l-.013,0-.012,0-.766.16.186,1.017a.427.427,0,0,1,.067-.005.478.478,0,0,1,.456.414l.108.686a10.586,10.586,0,0,1-8.592,12.234,10.173,10.173,0,0,1-1.577.124,10.3,10.3,0,0,1-6.755-2.565,10.962,10.962,0,0,1-3.6-6.561l-.108-.686a.458.458,0,0,1,.356-.547l-.135-1.025-.762.081h-.013l-.013,0a1.536,1.536,0,0,0-1.024.641,1.606,1.606,0,0,0-.272,1.18l.117.741a12.9,12.9,0,0,0,4.244,7.72,12.188,12.188,0,0,0,7.992,3.03,12.056,12.056,0,0,0,1.869-.147,12.017,12.017,0,0,0,8.007-5.023,12.79,12.79,0,0,0,2.155-9.4l-.117-.741a1.578,1.578,0,0,0-1.553-1.353Z" transform="translate(408.146 685.928)" fill="#fff"/></g></g></g><g transform="translate(0 0)"><g transform="translate(0)"><path d="M-379.954-743.723a.973.973,0,0,0,.786-1.138l-.108-.686a11.091,11.091,0,0,0-12.528-9.431h0a11.091,11.091,0,0,0-9.022,12.825l.108.687a.986.986,0,0,0,1.114.838h0l-.766.16h0a1.063,1.063,0,0,1-1.2-.9l-.117-.741a11.963,11.963,0,0,1,9.732-13.834h0a11.964,11.964,0,0,1,13.513,10.173l.117.741a1.063,1.063,0,0,1-.865,1.23Z" transform="translate(404.305 756.605)" fill="#0083ef"/><g transform="translate(3.607 11.871)"><path d="M-390.766-613.419l.06.381a1.012,1.012,0,0,0,.337.607l.716-.149A.986.986,0,0,1-390.766-613.419Z" transform="translate(390.766 616.813)" fill="#06c"/><path d="M-189.122-646.251a.973.973,0,0,1-.786,1.138l.718-.076a1.026,1.026,0,0,0,.128-.68Z" transform="translate(210.672 646.251)" fill="#06c"/></g><path d="M-394.66-760.571a12.04,12.04,0,0,1,11.725,10.314l.117.741a1.063,1.063,0,0,1-.865,1.23l-.762.081a.972.972,0,0,0,.786-1.138l-.108-.686a11.163,11.163,0,0,0-10.87-9.561,10.635,10.635,0,0,0-1.658.13h0a11.091,11.091,0,0,0-9.022,12.825l.108.687a.992.992,0,0,0,.966.85.931.931,0,0,0,.147-.012l-.766.16a1.01,1.01,0,0,1-.159.012,1.07,1.07,0,0,1-1.042-.917l-.117-.741a11.963,11.963,0,0,1,9.732-13.834h0a11.492,11.492,0,0,1,1.788-.141m0-.517v0a12.044,12.044,0,0,0-1.869.147,12.017,12.017,0,0,0-8.007,5.023,12.79,12.79,0,0,0-2.155,9.4l.117.741a1.577,1.577,0,0,0,1.553,1.353,1.529,1.529,0,0,0,.239-.019l.013,0,.013,0,.766-.16-.186-1.017a.435.435,0,0,1-.067.005.477.477,0,0,1-.456-.413l-.108-.687a10.866,10.866,0,0,1,1.829-7.988,10.152,10.152,0,0,1,6.763-4.246,10.153,10.153,0,0,1,1.577-.124,10.306,10.306,0,0,1,6.755,2.565,10.961,10.961,0,0,1,3.6,6.56l.108.687a.51.51,0,0,1-.078.37.409.409,0,0,1-.278.177l.135,1.025.762-.081h.013l.013,0a1.582,1.582,0,0,0,1.3-1.821l-.117-.741a12.9,12.9,0,0,0-4.244-7.72,12.188,12.188,0,0,0-7.991-3.031Z" transform="translate(408.797 761.088)" fill="#fff"/><g transform="translate(0 6.359)"><g transform="translate(0 3.328)"><path d="M2.848,0h0a0,0,0,0,1,0,0V6.4a0,0,0,0,1,0,0h0A2.848,2.848,0,0,1,0,3.555V2.848A2.848,2.848,0,0,1,2.848,0Z" transform="matrix(0.988, -0.156, 0.156, 0.988, 0, 1.168)" fill="#0083ef"/><path d="M-422.93-656.18a2.176,2.176,0,0,1-2.144-1.834l-.4-2.545a2.175,2.175,0,0,1,1.808-2.484l1.178-.186,1.077,6.836-1.178.186A2.179,2.179,0,0,1-422.93-656.18Zm-.657-6.352a1.657,1.657,0,0,0-1.377,1.893l.4,2.545a1.657,1.657,0,0,0,1.893,1.378l.668-.105-.916-5.815Z" transform="translate(425.517 663.658)" fill="#fff"/><path d="M-402.526-659.663h0a.769.769,0,0,1-.877-.638l-.976-6.2a.769.769,0,0,1,.639-.877h0a.769.769,0,0,1,.877.638l.976,6.2A.769.769,0,0,1-402.526-659.663Z" transform="translate(406.587 667.385)" fill="#0083ef"/></g><g transform="translate(23.327)"><path d="M2.848,0h0a0,0,0,0,1,0,0V6.4a0,0,0,0,1,0,0h0A2.848,2.848,0,0,1,0,3.555V2.848A2.848,2.848,0,0,1,2.848,0Z" transform="matrix(-0.988, 0.156, -0.156, -0.988, 4.709, 6.563)" fill="#0083ef"/><path d="M-193.086-690.081l-1.077-6.836,1.178-.186a2.159,2.159,0,0,1,1.616.389,2.158,2.158,0,0,1,.867,1.418l.4,2.545a2.158,2.158,0,0,1-.389,1.616,2.158,2.158,0,0,1-1.418.867Zm-.486-6.406.916,5.815.668-.105a1.644,1.644,0,0,0,1.081-.661,1.644,1.644,0,0,0,.3-1.232l-.4-2.545a1.644,1.644,0,0,0-.661-1.081,1.643,1.643,0,0,0-1.232-.3Z" transform="translate(194.767 697.382)" fill="#fff"/><path d="M-198.141-691.853h0a.77.77,0,0,0,.639-.877l-.976-6.2a.77.77,0,0,0-.877-.639h0a.77.77,0,0,0-.639.877l.976,6.2A.77.77,0,0,0-198.141-691.853Z" transform="translate(200.003 699.575)" fill="#0083ef"/></g></g><path d="M-200.5-693.828a1.028,1.028,0,0,1-1.013-.866l-.976-6.2a1.019,1.019,0,0,1,.185-.763,1.019,1.019,0,0,1,.669-.41,1.027,1.027,0,0,1,1.173.854l.976,6.2a1.027,1.027,0,0,1-.854,1.173A1.029,1.029,0,0,1-200.5-693.828Zm-.975-7.731a.5.5,0,0,0-.079.006.5.5,0,0,0-.331.2.5.5,0,0,0-.092.378l.976,6.2a.508.508,0,0,0,.582.423.509.509,0,0,0,.423-.582l-.976-6.2A.51.51,0,0,0-201.478-701.56Z" transform="translate(225.573 708.177)" fill="#fff"/><path d="M-404.889-661.638a1.02,1.02,0,0,1-.6-.2,1.02,1.02,0,0,1-.41-.669l-.976-6.2a1.027,1.027,0,0,1,.854-1.173,1.019,1.019,0,0,1,.763.185,1.019,1.019,0,0,1,.41.669l.976,6.2a1.027,1.027,0,0,1-.854,1.173h0A1.035,1.035,0,0,1-404.889-661.638Zm-.975-7.732a.512.512,0,0,0-.079.006.51.51,0,0,0-.423.582l.976,6.2a.505.505,0,0,0,.2.331.505.505,0,0,0,.378.092h0a.51.51,0,0,0,.423-.582l-.976-6.2a.505.505,0,0,0-.2-.331A.507.507,0,0,0-405.864-669.369Z" transform="translate(408.829 679.314)" fill="#fff"/></g></g><g transform="translate(12.95 21.64)"><ellipse cx="1.756" cy="1.52" rx="1.756" ry="1.52" transform="translate(0.192 0.339) rotate(-2.561)" fill="#0083ef"/><path d="M-298.392-548.2a2.135,2.135,0,0,1-1.328-.447,1.669,1.669,0,0,1-.66-1.242,1.669,1.669,0,0,1,.546-1.3,2.148,2.148,0,0,1,1.387-.571,1.909,1.909,0,0,1,2.092,1.686h0a1.909,1.909,0,0,1-1.933,1.866Zm.049-3.04-.081,0a1.634,1.634,0,0,0-1.054.43,1.161,1.161,0,0,0-.385.9,1.161,1.161,0,0,0,.464.859,1.633,1.633,0,0,0,1.089.334,1.4,1.4,0,0,0,1.44-1.327h0A1.381,1.381,0,0,0-298.343-551.239Z" transform="translate(300.381 551.756)" fill="#fff"/></g></g></g></g></g></g></g></g></g></svg>
